<svg xmlns="http://www.w3.org/2000/svg" width="600" height="600" viewBox="0 0 600 600"><g fill="none" fill-rule="nonzero"><path fill="#007A3D" d="M0 0h600v600H0z"/><path fill="#FFF" d="M503.467 286.65c-5.274 5.665-12.452 11.28-21.533 16.846-9.083 5.567-20.362 10.645-33.838 15.234-13.477 4.59-29.151 8.448-47.022 11.573s-38.233 5.078-61.084 5.86a742.638 742.638 0 0 0-6.592 19.482c-2.246 6.933-4.443 14.501-6.591 22.705h-1.465c-.977-.977-1.807-2.198-2.49-3.663-.684-1.464-1.32-3.564-1.905-6.298a390.79 390.79 0 0 1 3.223-16.114 627.364 627.364 0 0 1 3.809-16.113c-9.962 0-19.337-1.27-28.125-3.808-.587 37.89-9.669 72.656-27.247 104.296-19.14 34.57-59.082 51.856-119.824 51.856-24.414 0-44.336-7.13-59.765-21.387-15.625-14.453-23.438-32.52-23.438-54.2 0-22.85 10.742-50.878 32.227-84.081l5.566 2.05c-14.453 26.759-21.68 48.34-21.68 64.747 0 8.593 2.1 16.26 6.3 22.998 4.198 6.738 10.155 12.5 17.87 17.285 7.715 4.785 17.188 8.447 28.418 10.986 11.23 2.54 23.877 3.809 37.94 3.809 21.484 0 41.406-3.711 59.765-11.133 18.36-7.227 30.86-16.504 37.5-27.832 6.055-10.937 9.082-27.05 9.082-48.34 0-11.523-1.807-22.998-5.42-34.424-3.613-11.425-8.545-21.533-14.794-30.322l16.113-34.57c3.32 4.687 6.445 9.814 9.375 15.38 2.93 5.567 5.175 10.303 6.738 14.21 5.664 2.539 11.328 4.297 16.992 5.273 5.664.977 11.621 1.465 17.871 1.465h6.739c2.343 0 4.785-.195 7.324-.586 10.742-17.773 22.314-33.984 34.717-48.633 12.402-14.648 25.341-27.441 38.818-38.379 11.523-9.375 22.656-16.699 33.398-21.972 10.742-5.274 19.531-7.91 26.368-7.91 7.03 0 13.769 1.318 20.214 3.955 6.445 2.636 12.158 5.86 17.14 9.668 4.98 3.808 8.934 7.812 11.864 12.011 2.93 4.2 4.395 7.96 4.395 11.28 0 8.007-.782 15.332-2.344 21.972-1.563 6.64-3.614 12.647-6.152 18.018-2.54 5.371-5.42 10.254-8.643 14.648-3.223 4.395-6.494 8.448-9.814 12.158zm-37.207-64.746c-5.47 0-12.354 1.758-20.655 5.274-8.3 3.515-17.285 8.545-26.953 15.088-9.668 6.543-19.58 14.648-29.736 24.316-10.157 9.668-19.825 20.654-29.004 32.959 3.32 0 6.494-.098 9.522-.293 3.027-.195 6.591-.488 10.693-.879a255.906 255.906 0 0 0 41.455-6.299c13.574-3.222 28.173-7.86 43.799-13.916 12.304-4.687 22.265-9.619 29.883-14.795 7.616-5.175 12.5-9.521 14.648-13.037-2.344-3.32-5.176-6.69-8.496-10.107a75.267 75.267 0 0 0-10.84-9.229c-3.907-2.734-7.96-4.931-12.158-6.591-4.2-1.66-8.252-2.49-12.158-2.49zm-52.442-97.558l-20.8 30.761-27.832-23.437 20.507-30.176 28.125 22.852z"/></g></svg>