<svg xmlns="http://www.w3.org/2000/svg" width="353" height="353" viewBox="0 0 353 353"><title>g5162</title><g fill="none" fill-rule="evenodd"><path fill="#FFF" d="M-123-23h600v400h-600z"/><path fill="#09C" fill-rule="nonzero" d="M-36.97-23H-123v56.94L392.896 377H477v-58.225z"/><g><path fill="#005BBF" fill-rule="nonzero" d="M173.608 282.21c-60.134 0-58.18-56.579-58.18-56.579v-86.84h116.36v86.84s2.036 56.579-58.18 56.579"/><path stroke="#000" stroke-width="1.006" d="M173.608 282.21c-60.134 0-58.18-56.579-58.18-56.579v-86.84h116.36v86.84s2.036 56.579-58.18 56.579z"/><path fill="#D81126" fill-rule="nonzero" d="M173.097 84.139s-12.407-6.036-24.143 2.851c0 0-21.118-3.048-22.672 17.182-.063.819-.19 2.327.187 2.767.377.44.754 1.258.754 1.82 0 .567.378.882.505 1.132.125.252.44.63.502 1.698.062 1.069-.125 1.57.881 2.64 1.004 1.069 1.067 4.15 1.067 5.03 0 .879.63 3.331 1.069 3.836.44.502 1.194 1.758 1.194 2.827s.44 4.023.25 4.775c-.188.754 1.13 1.698 2.327 2.075 1.194.377 16.03 5.217 37.656 4.84 21.628-.377 29.415-1.527 38.35-4.777 1.381-.502 1.634-1.634 1.509-2.263-.128-.627 0-2.637.377-3.142.377-.502 2.892-4.525 2.388-5.28-.503-.754-.503-2.39 0-3.016.504-.63 2.077-3.654 2.387-4.905.312-1.254.353-2.731.93-3.168.579-.438.773-1.855.884-2.15.112-.298.533-1.22 1.119-1.64 0 0 1.09-5.112.418-7.625-.668-2.515-4.441-13.328-19.78-11.063 0 0-11.4-8.635-28.164-4.444"/><path stroke="#000" stroke-width="1.508" d="M173.097 84.139s-12.407-6.036-24.143 2.851c0 0-21.118-3.048-22.672 17.182-.063.819-.19 2.327.187 2.767.377.44.754 1.258.754 1.82 0 .567.378.882.505 1.132.125.252.44.63.502 1.698.062 1.069-.125 1.57.881 2.64 1.004 1.069 1.067 4.15 1.067 5.03 0 .879.63 3.331 1.069 3.836.44.502 1.194 1.758 1.194 2.827s.44 4.023.25 4.775c-.188.754 1.13 1.698 2.327 2.075 1.194.377 16.03 5.217 37.656 4.84 21.628-.377 29.415-1.527 38.35-4.777 1.381-.502 1.634-1.634 1.509-2.263-.128-.627 0-2.637.377-3.142.377-.502 2.892-4.525 2.388-5.28-.503-.754-.503-2.39 0-3.016.504-.63 2.077-3.654 2.387-4.905.312-1.254.353-2.731.93-3.168.579-.438.773-1.855.884-2.15.112-.298.533-1.22 1.119-1.64 0 0 1.09-5.112.418-7.625-.668-2.515-4.441-13.328-19.78-11.063 0 0-11.4-8.635-28.164-4.444h.005z"/><path fill="#BCAC0B" fill-rule="nonzero" d="M214.603 121.797c-47.108-14.92-83.414-.74-83.414-.74s.336 1.646.754 2.148c.42.502 1.007 1.677 1.007 2.558 0 .88.084 2.138.084 2.808 0 .668-.514 3.675 2.174 3.64 0 0 32.741-12.844 75.377.66 0 0 1.167-1.048 1.21-2.556.041-1.508.291-3.101.88-3.94.586-.838 1.926-3.456 1.926-4.578"/><path fill="#C8B100" fill-opacity=".941" fill-rule="nonzero" d="M170.928 200.316h-20.453s-2.013 18.272 13.746 23.807v1.676h3.354v2.179s-5.784 5.195-.757 11.147v1.845h.84v2.933h.92v4.775s-.754 17.06-17.476 25.23v1.007h44.65v-1.006c-16.72-8.172-17.477-25.23-17.477-25.23v-4.776h.92v-2.933h.839v-1.845c5.03-5.952-.754-11.147-.754-11.147v-2.179h3.353v-1.676c15.76-5.535 13.746-23.807 13.746-23.807h-25.454"/><path stroke="#000" stroke-width="1.006" d="M170.928 200.316h-20.453s-2.013 18.272 13.746 23.807v1.676h3.354v2.179s-5.784 5.195-.757 11.147v1.845h.84v2.933h.92v4.775s-.754 17.06-17.476 25.23v1.007h44.65v-1.006c-16.72-8.172-17.477-25.23-17.477-25.23v-4.776h.92v-2.933h.839v-1.845c5.03-5.952-.754-11.147-.754-11.147v-2.179h3.353v-1.676c15.76-5.535 13.746-23.807 13.746-23.807h-25.454.003z"/><path stroke="#000" stroke-width=".5" d="M163.549 223.87h19.742m-19.07 1.509h18.4m-15.046 2.515h11.568m-12.325 11.44h13.204m-12.323 1.406h11.528m-11.528 2.85h11.484m-18.524 23.156h25.524m-32.732 5.909h39.984m-41.493.879h43.042"/><path fill="#CCC" fill-rule="nonzero" d="M173.599 199.238c7.201 0 13.04-5.84 13.04-13.04 0-7.202-5.839-13.041-13.04-13.041-7.201 0-13.04 5.84-13.04 13.04 0 7.202 5.839 13.04 13.04 13.04"/><path stroke="#000" stroke-width="1.006" d="M173.599 199.238c7.201 0 13.04-5.84 13.04-13.04 0-7.202-5.839-13.041-13.04-13.041-7.201 0-13.04 5.84-13.04 13.04 0 7.202 5.839 13.04 13.04 13.04z"/><path fill="#CCC" fill-rule="nonzero" d="M143.254 160.921h-8.13v-8.133h-7.209v8.133h-8.131v7.206h8.131v8.131h7.209v-8.13h8.13v-7.207"/><path stroke="#000" stroke-width="1.006" d="M143.254 160.921h-8.13v-8.133h-7.209v8.133h-8.131v7.206h8.131v8.131h7.209v-8.13h8.13v-7.207"/><path fill="#CCC" fill-rule="nonzero" d="M227.759 160.921h-8.131v-8.133h-7.211v8.133h-8.128v7.206h8.128v8.131h7.211v-8.13h8.131v-7.207"/><path stroke="#000" stroke-width="1.006" d="M227.759 160.921h-8.131v-8.133h-7.211v8.133h-8.128v7.206h8.128v8.131h7.211v-8.13h8.131v-7.207"/><path fill="#CCC" fill-rule="nonzero" d="M184.936 150.703h-8.131v-8.13h-7.208v8.13h-8.131v7.208h8.131v8.131h7.208v-8.13h8.131v-7.209"/><path stroke="#000" stroke-width="1.006" d="M184.936 150.703h-8.131v-8.13h-7.208v8.13h-8.131v7.208h8.131v8.131h7.208v-8.13h8.131v-7.209"/><path fill="#CCC" fill-rule="nonzero" d="M143.254 196.125h-8.13v-8.13h-7.209v8.13h-8.131v7.208h8.131v8.131h7.209v-8.13h8.13v-7.209"/><path stroke="#000" stroke-width="1.006" d="M143.254 196.125h-8.13v-8.13h-7.209v8.13h-8.131v7.208h8.131v8.131h7.209v-8.13h8.13v-7.209"/><path fill="#CCC" fill-rule="nonzero" d="M227.759 196.125h-8.131v-8.13h-7.211v8.13h-8.128v7.208h8.128v8.131h7.211v-8.13h8.131v-7.209"/><path stroke="#000" stroke-width="1.006" d="M227.759 196.125h-8.131v-8.13h-7.211v8.13h-8.128v7.208h8.128v8.131h7.211v-8.13h8.131v-7.209"/><path fill="#CCC" fill-rule="nonzero" d="M143.254 231.677h-8.13v-8.133h-7.209v8.133h-8.131v7.208h8.131v8.128h7.209v-8.128h8.13v-7.208"/><path stroke="#000" stroke-width="1.006" d="M143.254 231.677h-8.13v-8.133h-7.209v8.133h-8.131v7.208h8.131v8.128h7.209v-8.128h8.13v-7.208"/><path fill="#CCC" fill-rule="nonzero" d="M227.759 231.677h-8.131v-8.133h-7.211v8.133h-8.128v7.208h8.128v8.128h7.211v-8.128h8.131v-7.208"/><path stroke="#000" stroke-width="1.006" d="M227.759 231.677h-8.131v-8.133h-7.211v8.133h-8.128v7.208h8.128v8.128h7.211v-8.128h8.131v-7.208"/><path fill="#005BBF" fill-rule="nonzero" d="M173.493 66.732a7.825 7.825 0 0 0 7.826-7.824 7.825 7.825 0 0 0-15.65 0 7.823 7.823 0 0 0 7.824 7.824"/><path stroke="#000" stroke-width="1.006" d="M173.493 66.732a7.825 7.825 0 0 0 7.826-7.824 7.825 7.825 0 0 0-15.65 0 7.823 7.823 0 0 0 7.824 7.824z"/><path fill="#FC0" fill-rule="nonzero" d="M180.788 57.525h-6.413V47.153h2.45v-2.075h-2.45v-2.453h-2.076v2.453h-2.452v2.075h2.452v10.372h-6.098v1.383h6.098v.063h2.076v-.063h6.413v-1.383"/><path fill="#BCAC0B" fill-rule="nonzero" stroke="#000" stroke-width=".502" d="M180.788 57.525h-6.413V47.153h2.45v-2.075h-2.45v-2.453h-2.076v2.453h-2.452v2.075h2.452v10.372h-6.098v1.383h6.098v.063h2.076v-.063h6.413v-1.383"/><path fill="#FC0" fill-rule="nonzero" d="M142.166 76.092s5.784-.67 9.135.67c0 0-3.84 4.37-3.017 10.142.42 2.935 1.007 4.443 1.845 5.868.838 1.427 1.758 4.36 1.256 6.706h1.09s1.091-4.777-.754-7.46c-1.844-2.681-2.767-6.37-.922-10.226 1.842-3.855 4.525-5.363 4.525-5.363 3.101 1.256 9.642.081 11.484-1.26 1.843-1.342 2.765-3.184-.67-3.352-3.435-.168-9.303-.084-13.326 2.935 0 0-2.097-2.433-12.575-1.259-10.477 1.175-18.05 5.65-20.369 15.09-1.172 4.777 3.27 14.834 7.377 17.265 0 0-.125-1.633.293-2.808 0 0-7-7.837-4.902-15.13 2.094-7.292 10.477-12.07 19.53-11.818"/><path fill="#BCAC0B" fill-rule="nonzero" stroke="#000" stroke-width=".653" d="M142.166 76.092s5.784-.67 9.135.67c0 0-3.84 4.37-3.017 10.142.42 2.935 1.007 4.443 1.845 5.868.838 1.427 1.758 4.36 1.256 6.706h1.09s1.091-4.777-.754-7.46c-1.844-2.681-2.767-6.37-.922-10.226 1.842-3.855 4.525-5.363 4.525-5.363 3.101 1.256 9.642.081 11.484-1.26 1.843-1.342 2.765-3.184-.67-3.352-3.435-.168-9.303-.084-13.326 2.935 0 0-2.097-2.433-12.575-1.259-10.477 1.175-18.05 5.65-20.369 15.09-1.172 4.777 3.27 14.834 7.377 17.265 0 0-.125-1.633.293-2.808 0 0-7-7.837-4.902-15.13 2.094-7.292 10.477-12.07 19.53-11.818z"/><path fill="#FFF" fill-rule="nonzero" d="M161.858 74.649c1.81-.147 3.262-.461 3.243-.709-.02-.242-1.504-.324-3.315-.178-1.811.147-3.262.464-3.243.709.02.245 1.504.324 3.315.178"/><path stroke="#000" stroke-width=".653" d="M155.262 76.385s-2.073 1.948 0 0c2.075-1.948 6.413-3.269 8.866-2.702 2.45.565-.442.88-1.259.942-.817.062-2.452.377-4.84 0"/><path fill="#FC0" fill-rule="nonzero" d="M204.695 76.72s-5.782-.669-9.135.672c0 0 3.843 4.367 3.017 10.141-.418 2.935-1.004 4.444-1.842 5.868-.84 1.422-1.76 4.36-1.259 6.706h-1.09s-1.088-4.777.754-7.46c1.845-2.683 2.767-6.37.922-10.225-1.842-3.858-4.525-5.366-4.525-5.366-3.101 1.258-9.64.084-11.484-1.257-1.84-1.342-2.765-3.185.67-3.353 3.437-.168 9.305-.084 13.329 2.933 0 0 2.094-2.43 12.572-1.256 10.48 1.172 18.05 5.65 20.369 15.087 1.174 4.777-3.27 14.837-7.377 17.268 0 0 .128-1.634-.293-2.808 0 0 7-7.838 4.905-15.13-2.097-7.293-10.477-12.07-19.533-11.82"/><path fill="#BCAC0B" fill-rule="nonzero" stroke="#000" stroke-width=".653" d="M204.695 76.72s-5.782-.669-9.135.672c0 0 3.843 4.367 3.017 10.141-.418 2.935-1.004 4.444-1.842 5.868-.84 1.422-1.76 4.36-1.259 6.706h-1.09s-1.088-4.777.754-7.46c1.845-2.683 2.767-6.37.922-10.225-1.842-3.858-4.525-5.366-4.525-5.366-3.101 1.258-9.64.084-11.484-1.257-1.84-1.342-2.765-3.185.67-3.353 3.437-.168 9.305-.084 13.329 2.933 0 0 2.094-2.43 12.572-1.256 10.48 1.172 18.05 5.65 20.369 15.087 1.174 4.777-3.27 14.837-7.377 17.268 0 0 .128-1.634-.293-2.808 0 0 7-7.838 4.905-15.13-2.097-7.293-10.477-12.07-19.533-11.82z"/><path fill="#FFF" fill-rule="nonzero" d="M185.003 75.278c-1.808-.146-3.261-.464-3.242-.709.021-.245 1.503-.324 3.315-.177 1.81.146 3.264.463 3.245.708-.022.245-1.506.325-3.318.178"/><path stroke="#000" stroke-width=".653" d="M191.6 77.015s2.075 1.948 0 0c-2.074-1.95-6.412-3.27-8.864-2.705-2.452.567.44.882 1.256.944.82.062 2.453.377 4.843 0"/><path fill="#FC0" fill-rule="nonzero" d="M168.067 70.308v22.298c-.252 2.179 2.68 5.28 4.778 6.202 0 0 4.945-1.677 5.28-6.202V69.05h-1.677v20.369c-.082 2.097-1.425 5.868-3.27 6.456 0 0-3.603-.588-3.77-6.372V69.64l-1.341.667"/><path fill="#BCAC0B" fill-rule="nonzero" stroke="#000" stroke-width=".653" d="M168.067 70.308v22.298c-.252 2.179 2.68 5.28 4.778 6.202 0 0 4.945-1.677 5.28-6.202V69.05h-1.677v20.369c-.082 2.097-1.425 5.868-3.27 6.456 0 0-3.603-.588-3.77-6.372V69.64l-1.341.667"/><path fill="#FFF" fill-rule="nonzero" d="M118.737 100.804a2.666 2.666 0 1 0 0-5.333 2.666 2.666 0 0 0 0 5.333"/><path stroke="#000" stroke-width="1.006" d="M118.737 100.804a2.666 2.666 0 1 0 0-5.333 2.666 2.666 0 0 0 0 5.333z"/><path fill="#FFF" fill-rule="nonzero" d="M117.07 94.674a2.667 2.667 0 1 0 .004-5.334 2.667 2.667 0 0 0-.004 5.334"/><path stroke="#000" stroke-width="1.006" d="M117.07 94.674a2.667 2.667 0 1 0 .004-5.334 2.667 2.667 0 0 0-.004 5.334z"/><path fill="#FFF" fill-rule="nonzero" d="M117.952 87.257a2.667 2.667 0 1 0-.002-5.334 2.667 2.667 0 0 0 .002 5.334"/><path stroke="#000" stroke-width="1.006" d="M117.952 87.257a2.667 2.667 0 1 0-.002-5.334 2.667 2.667 0 0 0 .002 5.334z"/><path fill="#FFF" fill-rule="nonzero" d="M122.1 81.096a2.667 2.667 0 1 0 .004-5.334 2.667 2.667 0 0 0-.004 5.334"/><path stroke="#000" stroke-width="1.006" d="M122.1 81.096a2.667 2.667 0 1 0 .004-5.334 2.667 2.667 0 0 0-.004 5.334z"/><path fill="#FFF" fill-rule="nonzero" d="M127.005 76.602a2.667 2.667 0 1 0-.001-5.334 2.667 2.667 0 0 0 0 5.334"/><path stroke="#000" stroke-width="1.006" d="M127.005 76.602a2.667 2.667 0 1 0-.001-5.334 2.667 2.667 0 0 0 0 5.334z"/><path fill="#FFF" fill-rule="nonzero" d="M133.322 74.087a2.667 2.667 0 1 0-.001-5.334 2.667 2.667 0 0 0 .001 5.334"/><path stroke="#000" stroke-width="1.006" d="M133.322 74.087a2.667 2.667 0 1 0-.001-5.334 2.667 2.667 0 0 0 .001 5.334z"/><path fill="#FFF" fill-rule="nonzero" d="M139.923 72.893a2.668 2.668 0 0 0 0-5.335 2.666 2.666 0 0 0 0 5.335"/><path stroke="#000" stroke-width="1.006" d="M139.923 72.893a2.668 2.668 0 0 0 0-5.335 2.666 2.666 0 0 0 0 5.335z"/><path fill="#FFF" fill-rule="nonzero" d="M146.211 72.516a2.668 2.668 0 1 0-.004-5.337 2.668 2.668 0 0 0 .004 5.337"/><path stroke="#000" stroke-width="1.006" d="M146.211 72.516a2.668 2.668 0 1 0-.004-5.337 2.668 2.668 0 0 0 .004 5.337z"/><path fill="#FFF" fill-rule="nonzero" d="M151.868 73.018a2.667 2.667 0 1 0-.001-5.336 2.667 2.667 0 0 0 0 5.336"/><path stroke="#000" stroke-width="1.006" d="M151.868 73.018a2.667 2.667 0 1 0-.001-5.336 2.667 2.667 0 0 0 0 5.336z"/><path fill="#FFF" fill-rule="nonzero" d="M167.997 71.005a2.668 2.668 0 0 0 2.669-2.666 2.666 2.666 0 1 0-2.669 2.666"/><path stroke="#000" stroke-width="1.006" d="M167.997 71.005a2.668 2.668 0 0 0 2.669-2.666 2.666 2.666 0 1 0-2.669 2.666z"/><path fill="#FFF" fill-rule="nonzero" d="M173.152 72.388a2.668 2.668 0 0 0 2.669-2.666 2.668 2.668 0 0 0-5.335 0 2.666 2.666 0 0 0 2.666 2.666"/><path stroke="#000" stroke-width="1.006" d="M173.152 72.388a2.668 2.668 0 0 0 2.669-2.666 2.668 2.668 0 0 0-5.335 0 2.666 2.666 0 0 0 2.666 2.666z"/><path fill="#FFF" fill-rule="nonzero" d="M173.152 92.128a2.668 2.668 0 0 0 2.669-2.666 2.668 2.668 0 0 0-5.335 0 2.666 2.666 0 0 0 2.666 2.666"/><path stroke="#000" stroke-width="1.006" d="M173.152 92.128a2.668 2.668 0 0 0 2.669-2.666 2.668 2.668 0 0 0-5.335 0 2.666 2.666 0 0 0 2.666 2.666z"/><path fill="#FFF" fill-rule="nonzero" d="M228.288 102.502a2.667 2.667 0 1 0-.002-5.333 2.667 2.667 0 0 0 .002 5.333"/><path stroke="#000" stroke-width="1.006" d="M228.288 102.502a2.667 2.667 0 1 0-.002-5.333 2.667 2.667 0 0 0 .002 5.333z"/><path fill="#FFF" fill-rule="nonzero" d="M229.669 95.868a2.667 2.667 0 1 0 .003-5.334 2.667 2.667 0 0 0-.003 5.334"/><path stroke="#000" stroke-width="1.006" d="M229.669 95.868a2.667 2.667 0 1 0 .003-5.334 2.667 2.667 0 0 0-.003 5.334z"/><path fill="#FFF" fill-rule="nonzero" d="M228.537 88.955a2.667 2.667 0 1 0 .003-5.335 2.667 2.667 0 0 0-.003 5.335"/><path stroke="#000" stroke-width="1.006" d="M228.537 88.955a2.667 2.667 0 1 0 .003-5.335 2.667 2.667 0 0 0-.003 5.335z"/><path fill="#FFF" fill-rule="nonzero" d="M225.645 82.417a2.668 2.668 0 1 0-2.666-2.669 2.668 2.668 0 0 0 2.666 2.669"/><path stroke="#000" stroke-width="1.006" d="M225.645 82.417a2.668 2.668 0 1 0-2.666-2.669 2.668 2.668 0 0 0 2.666 2.669z"/><path fill="#FFF" fill-rule="nonzero" d="M220.743 77.889a2.666 2.666 0 1 0 0-5.333 2.666 2.666 0 0 0 0 5.333"/><path stroke="#000" stroke-width="1.006" d="M220.743 77.889a2.666 2.666 0 1 0 0-5.333 2.666 2.666 0 0 0 0 5.333z"/><path fill="#FFF" fill-rule="nonzero" d="M214.834 74.997a2.666 2.666 0 0 0 0-5.332 2.667 2.667 0 1 0 0 5.332"/><path stroke="#000" stroke-width="1.006" d="M214.834 74.997a2.666 2.666 0 0 0 0-5.332 2.667 2.667 0 1 0 0 5.332z"/><path fill="#FFF" fill-rule="nonzero" d="M208.106 73.457a2.667 2.667 0 1 0 .003-5.333 2.667 2.667 0 0 0-.003 5.333"/><path stroke="#000" stroke-width="1.006" d="M208.106 73.457a2.667 2.667 0 1 0 .003-5.333 2.667 2.667 0 0 0-.003 5.333z"/><path fill="#FFF" fill-rule="nonzero" d="M201.945 72.955a2.667 2.667 0 1 0 .002-5.334 2.667 2.667 0 0 0-.002 5.334"/><path stroke="#000" stroke-width="1.006" d="M201.945 72.955a2.667 2.667 0 1 0 .002-5.334 2.667 2.667 0 0 0-.002 5.334z"/><path fill="#FFF" fill-rule="nonzero" d="M196.36 72.22a2.667 2.667 0 1 0 .004-5.333 2.667 2.667 0 0 0-.004 5.333"/><path stroke="#000" stroke-width="1.006" d="M196.36 72.22a2.667 2.667 0 1 0 .004-5.333 2.667 2.667 0 0 0-.004 5.333z"/><path fill="#FFF" fill-rule="nonzero" d="M199.966 94.047a2.668 2.668 0 0 0 0-5.335 2.666 2.666 0 0 0 0 5.335"/><path stroke="#000" stroke-width="1.006" d="M199.966 94.047a2.668 2.668 0 0 0 0-5.335 2.666 2.666 0 0 0 0 5.335z"/><path fill="#FFF" fill-rule="nonzero" d="M201.35 88.89a2.666 2.666 0 0 0 0-5.332 2.667 2.667 0 1 0 0 5.332"/><path stroke="#000" stroke-width="1.006" d="M201.35 88.89a2.666 2.666 0 0 0 0-5.332 2.667 2.667 0 1 0 0 5.332z"/><path fill="#FFF" fill-rule="nonzero" d="M178.936 71.824a2.667 2.667 0 1 0 .004-5.336 2.667 2.667 0 0 0-.004 5.336"/><path stroke="#000" stroke-width="1.006" d="M178.936 71.824a2.667 2.667 0 1 0 .004-5.336 2.667 2.667 0 0 0-.004 5.336z"/><path fill="#FFF" fill-rule="nonzero" d="M165.886 71.101a2.667 2.667 0 1 0 .003-5.335 2.667 2.667 0 0 0-.003 5.335"/><path stroke="#000" stroke-width="1.006" d="M165.886 71.101a2.667 2.667 0 1 0 .003-5.335 2.667 2.667 0 0 0-.003 5.335z"/><path fill="#FFF" fill-rule="nonzero" d="M162.744 70.974a2.666 2.666 0 1 0 0-5.333 2.666 2.666 0 0 0 0 5.333"/><path stroke="#000" stroke-width="1.006" d="M162.744 70.974a2.666 2.666 0 1 0 0-5.333 2.666 2.666 0 0 0 0 5.333z"/><path fill="#FFF" fill-rule="nonzero" d="M145.8 94.11a2.668 2.668 0 1 0 0-5.333 2.668 2.668 0 0 0 0 5.333"/><path stroke="#000" stroke-width="1.006" d="M145.8 94.11a2.668 2.668 0 1 0 0-5.333 2.668 2.668 0 0 0 0 5.333z"/><path fill="#FFF" fill-rule="nonzero" d="M145.015 87.728a2.668 2.668 0 0 0 2.669-2.667 2.668 2.668 0 0 0-5.335 0 2.666 2.666 0 0 0 2.666 2.667"/><path stroke="#000" stroke-width="1.006" d="M145.015 87.728a2.668 2.668 0 0 0 2.669-2.667 2.668 2.668 0 0 0-5.335 0 2.666 2.666 0 0 0 2.666 2.667z"/><path fill="#FFF" fill-rule="nonzero" d="M146.9 81.566a2.667 2.667 0 1 0 .004-5.333 2.667 2.667 0 0 0-.003 5.333"/><path stroke="#000" stroke-width="1.006" d="M146.9 81.566a2.667 2.667 0 1 0 .004-5.333 2.667 2.667 0 0 0-.003 5.333z"/><path fill="#FFF" fill-rule="nonzero" d="M158.625 71.572a2.667 2.667 0 1 0 .003-5.334 2.667 2.667 0 0 0-.003 5.334"/><path stroke="#000" stroke-width="1.006" d="M158.625 71.572a2.667 2.667 0 1 0 .003-5.334 2.667 2.667 0 0 0-.003 5.334z"/><path fill="#FFF" fill-rule="nonzero" d="M154.193 73.395a2.667 2.667 0 1 0 .004-5.334 2.667 2.667 0 0 0-.004 5.334"/><path stroke="#000" stroke-width="1.006" d="M154.193 73.395a2.667 2.667 0 1 0 .004-5.334 2.667 2.667 0 0 0-.004 5.334z"/><path fill="#FFF" fill-rule="nonzero" d="M149.951 76.979a2.668 2.668 0 1 0-.004-5.337 2.668 2.668 0 0 0 .004 5.337"/><path stroke="#000" stroke-width="1.006" d="M149.951 76.979a2.668 2.668 0 1 0-.004-5.337 2.668 2.668 0 0 0 .004 5.337z"/><path fill="#FFF" fill-rule="nonzero" d="M173.152 75.408a2.67 2.67 0 0 0 2.669-2.669 2.666 2.666 0 1 0-2.669 2.669"/><path stroke="#000" stroke-width="1.006" d="M173.152 75.408a2.67 2.67 0 0 0 2.669-2.669 2.666 2.666 0 1 0-2.669 2.669z"/><path fill="#FFF" fill-rule="nonzero" d="M173.152 80.435a2.668 2.668 0 0 0 2.669-2.666 2.668 2.668 0 0 0-5.335 0 2.666 2.666 0 0 0 2.666 2.666"/><path stroke="#000" stroke-width="1.006" d="M173.152 80.435a2.668 2.668 0 0 0 2.669-2.666 2.668 2.668 0 0 0-5.335 0 2.666 2.666 0 0 0 2.666 2.666z"/><path fill="#FFF" fill-rule="nonzero" d="M173.152 85.842a2.668 2.668 0 0 0 2.669-2.666 2.666 2.666 0 1 0-2.669 2.666"/><path stroke="#000" stroke-width="1.006" d="M173.152 85.842a2.668 2.668 0 0 0 2.669-2.666 2.666 2.666 0 1 0-2.669 2.666z"/><path fill="#FFF" fill-rule="nonzero" d="M182.395 71.132a2.668 2.668 0 1 0-.004-5.337 2.668 2.668 0 0 0 .004 5.337"/><path stroke="#000" stroke-width="1.006" d="M182.395 71.132a2.668 2.668 0 1 0-.004-5.337 2.668 2.668 0 0 0 .004 5.337z"/><path fill="#FFF" fill-rule="nonzero" d="M186.041 70.378a2.668 2.668 0 1 0-.004-5.337 2.668 2.668 0 0 0 .004 5.337"/><path stroke="#000" stroke-width="1.006" d="M186.041 70.378a2.668 2.668 0 1 0-.004-5.337 2.668 2.668 0 0 0 .004 5.337z"/><path fill="#FFF" fill-rule="nonzero" d="M190.158 71.039a2.668 2.668 0 0 0 0-5.335 2.666 2.666 0 0 0 0 5.335"/><path stroke="#000" stroke-width="1.006" d="M190.158 71.039a2.668 2.668 0 0 0 0-5.335 2.666 2.666 0 0 0 0 5.335z"/><path fill="#FFF" fill-rule="nonzero" d="M200.468 82.352a2.668 2.668 0 0 0 2.668-2.666 2.668 2.668 0 0 0-5.335 0 2.666 2.666 0 0 0 2.667 2.666"/><path stroke="#000" stroke-width="1.006" d="M200.468 82.352a2.668 2.668 0 0 0 2.668-2.666 2.668 2.668 0 0 0-5.335 0 2.666 2.666 0 0 0 2.667 2.666z"/><path fill="#FFF" fill-rule="nonzero" d="M194.306 73.426a2.667 2.667 0 1 0 .004-5.334 2.667 2.667 0 0 0-.004 5.334"/><path stroke="#000" stroke-width="1.006" d="M194.306 73.426a2.667 2.667 0 1 0 .004-5.334 2.667 2.667 0 0 0-.004 5.334z"/><path fill="#FFF" fill-rule="nonzero" d="M198.08 77.072a2.667 2.667 0 1 0-.001-5.333 2.667 2.667 0 0 0 .001 5.333"/><path stroke="#000" stroke-width="1.006" d="M198.08 77.072a2.667 2.667 0 1 0-.001-5.333 2.667 2.667 0 0 0 .001 5.333z"/><path fill="#FFF" fill-rule="nonzero" d="M172.981 117.013l-7.04 3.521 6.337 3.99 7.511-3.755-6.808-3.756"/><path stroke="#000" stroke-width=".502" d="M172.981 117.013l-7.04 3.521 6.337 3.99 7.511-3.755-6.808-3.756"/><path fill="#FFF" fill-rule="nonzero" d="M157.59 117.753l-10.562 1.633s-.127 5.659.377 7.043l10.811-1.511s.505-5.28-.627-7.165"/><path stroke="#000" stroke-width=".502" d="M157.59 117.753l-10.562 1.633s-.127 5.659.377 7.043l10.811-1.511s.505-5.28-.627-7.165z"/><path fill="#058E6E" fill-opacity=".941" fill-rule="nonzero" d="M156.415 119.763s-6.37.586-7.963 1.175l.084 3.855s4.192-.754 8.047-1.09l-.168-3.94"/><path stroke="#000" stroke-width=".502" d="M156.415 119.763s-6.37.586-7.963 1.175l.084 3.855s4.192-.754 8.047-1.09l-.168-3.94"/><path fill="#FFF" fill-rule="nonzero" d="M187.703 118.055l10.56 1.636s.127 5.657-.378 7.04l-10.811-1.508s-.504-5.282.63-7.168"/><path stroke="#000" stroke-width=".502" d="M187.703 118.055l10.56 1.636s.127 5.657-.378 7.04l-10.811-1.508s-.504-5.282.63-7.168z"/><path fill="#058E6E" fill-opacity=".941" fill-rule="nonzero" d="M188.876 120.068s6.37.586 7.962 1.172l-.084 3.855s-4.191-.754-8.047-1.088l.169-3.939"/><path stroke="#000" stroke-width=".502" d="M188.876 120.068s6.37.586 7.962 1.172l-.084 3.855s-4.191-.754-8.047-1.088l.169-3.939"/><path stroke="#000" stroke-width=".502" d="M131.184 122.782s37.049-13.758 84.16 1.163m-82.651 6.757s35.835-13.403 80.03.595m-79.862-9.02l7.208 2.095-5.03 5.366"/><path fill="red" fill-rule="nonzero" d="M133.029 128.732l4.107-3.437-4.693-.923s.639.726.507 1.391c-.13.666.038 2.383.079 2.97"/><path stroke="#000" stroke-width=".502" d="M133.029 128.732l4.107-3.437-4.693-.923s.639.726.507 1.391c-.13.666.038 2.383.079 2.97zM214.546 123.661l-7.67 1.384 5.155 6.034"/><path fill="red" fill-rule="nonzero" d="M212.283 128.943l-2.892-3.019 4.148-.377s-1.131.754-1.131 1.384c0 .629.127 1.508-.125 2.012"/><path stroke="#000" stroke-width=".502" d="M212.283 128.943l-2.892-3.019 4.148-.377s-1.131.754-1.131 1.384c0 .629.127 1.508-.125 2.012zM142.25 122.809c.654 0 1.185-.425 1.185-.951 0-.522-.531-.947-1.185-.947-.655 0-1.186.425-1.186.947 0 .526.53.95 1.186.95zm20.607-2.35c.656 0 1.187-.425 1.187-.946 0-.526-.531-.949-1.187-.949-.653 0-1.184.423-1.184.95 0 .52.53.946 1.184.946zm0 3.354c.656 0 1.187-.425 1.187-.949s-.531-.946-1.187-.946c-.653 0-1.184.422-1.184.946s.53.949 1.184.949zm20.285-3.185c.656 0 1.187-.423 1.187-.95 0-.52-.531-.945-1.187-.945-.653 0-1.184.422-1.184.946 0 .526.53.949 1.184.949zm20.117 3.69c.655 0 1.186-.426 1.186-.952 0-.521-.53-.946-1.186-.946-.654 0-1.184.425-1.184.946 0 .526.53.951 1.184.951zm-.334 2.68c.656 0 1.186-.425 1.186-.947 0-.52-.53-.95-1.186-.95-.656 0-1.187.427-1.187.95 0 .522.531.947 1.187.947zm-19.783-3.017c.656 0 1.187-.425 1.187-.949 0-.521-.531-.946-1.187-.946-.653 0-1.184.422-1.184.946s.53.949 1.184.949zm-39.897 3.017c.653 0 1.184-.425 1.184-.947 0-.52-.53-.95-1.184-.95-.656 0-1.187.427-1.187.95 0 .522.531.947 1.187.947z"/><path fill="#FC0" fill-rule="nonzero" d="M130.514 111.969s.168 7.208 4.862 6.201c4.693-1.006 4.191-6.874 4.528-7.208.333-.336.835-.336.835-.336s.67 5.7 5.028 5.03c4.36-.67 4.191-7.71 3.69-8.885l1.006-.337s1.674 8.215 6.704 7.043c5.03-1.175 4.527-6.37 4.527-6.37h.387s1.122 5.532 5.145 5.195c4.021-.333 4.862-1.676 4.358-7.208l2.683-.502s-1.007 8.047 3.852 7.879c4.864-.169 5.03-4.024 5.366-4.694h.733s.274 5.7 4.297 5.7c4.024 0 4.86-4.862 4.86-6.706l3.93.175s-4.096 7.537 1.94 8.544c6.034 1.004 6.202-4.864 6.202-4.864h1.172s-.168 7.544 3.185 7.713c3.35.168 5.364-1.007 5.698-6.539l1.844.67s-1.6 8.943-7.878 7.375c-3.353-.836-4.36-4.691-4.192-5.698 0 0-2.344 4.19-6.872 2.849-4.525-1.34-4.023-4.525-4.023-5.532 0 0-2.722 4.999-6.538 3.853-3.351-1.004-4.694-2.179-4.694-4.525 0 0-1.676 3.855-5.03 3.689-3.353-.168-5.027-2.181-5.195-4.023 0 0-.666 3.603-5.198 3.855-3.017.168-4.694-1.338-5.364-3.353 0 0-.867 3.65-5.195 4.191-2.68.336-5.364-1.172-6.036-3.687 0 0-.668 4.86-5.028 5.532-4.36.67-5.366-2.347-5.366-2.347s-.836 3.858-4.357 4.694c-3.521.838-5.868-.668-6.707-4.19-.838-3.52-.502-5.03-.502-5.03l1.34 1.843"/><path fill="#BCAC0B" fill-rule="nonzero" stroke="#000" stroke-width=".653" d="M130.514 111.969s.168 7.208 4.862 6.201c4.693-1.006 4.191-6.874 4.528-7.208.333-.336.835-.336.835-.336s.67 5.7 5.028 5.03c4.36-.67 4.191-7.71 3.69-8.885l1.006-.337s1.674 8.215 6.704 7.043c5.03-1.175 4.527-6.37 4.527-6.37h.387s1.122 5.532 5.145 5.195c4.021-.333 4.862-1.676 4.358-7.208l2.683-.502s-1.007 8.047 3.852 7.879c4.864-.169 5.03-4.024 5.366-4.694h.733s.274 5.7 4.297 5.7c4.024 0 4.86-4.862 4.86-6.706l3.93.175s-4.096 7.537 1.94 8.544c6.034 1.004 6.202-4.864 6.202-4.864h1.172s-.168 7.544 3.185 7.713c3.35.168 5.364-1.007 5.698-6.539l1.844.67s-1.6 8.943-7.878 7.375c-3.353-.836-4.36-4.691-4.192-5.698 0 0-2.344 4.19-6.872 2.849-4.525-1.34-4.023-4.525-4.023-5.532 0 0-2.722 4.999-6.538 3.853-3.351-1.004-4.694-2.179-4.694-4.525 0 0-1.676 3.855-5.03 3.689-3.353-.168-5.027-2.181-5.195-4.023 0 0-.666 3.603-5.198 3.855-3.017.168-4.694-1.338-5.364-3.353 0 0-.867 3.65-5.195 4.191-2.68.336-5.364-1.172-6.036-3.687 0 0-.668 4.86-5.028 5.532-4.36.67-5.366-2.347-5.366-2.347s-.836 3.858-4.357 4.694c-3.521.838-5.868-.668-6.707-4.19-.838-3.52-.502-5.03-.502-5.03l1.34 1.843.003.003z"/><path fill="#FC0" fill-rule="nonzero" d="M140.237 112.286a1.659 1.659 0 1 0 0-3.32 1.66 1.66 0 0 0 0 3.32"/><path fill="#BCAC0B" fill-rule="nonzero" stroke="#000" stroke-width=".653" d="M140.237 112.286a1.659 1.659 0 1 0 0-3.32 1.66 1.66 0 0 0 0 3.32z"/><path fill="#FC0" fill-rule="nonzero" d="M162.084 108.788a1.66 1.66 0 1 0-.001-3.32 1.66 1.66 0 0 0 0 3.32"/><path fill="#BCAC0B" fill-rule="nonzero" stroke="#000" stroke-width=".653" d="M162.084 108.788a1.66 1.66 0 1 0-.001-3.32 1.66 1.66 0 0 0 0 3.32z"/><path fill="#FC0" fill-rule="nonzero" d="M184.223 109.437a1.66 1.66 0 1 0 0-3.32 1.66 1.66 0 0 0 0 3.32"/><path fill="#BCAC0B" fill-rule="nonzero" stroke="#000" stroke-width=".653" d="M184.223 109.437a1.66 1.66 0 1 0 0-3.32 1.66 1.66 0 0 0 0 3.32z"/><path fill="#FC0" fill-rule="nonzero" d="M206.194 112.968a1.66 1.66 0 0 0 0-3.32 1.66 1.66 0 0 0 0 3.32"/><path fill="#BCAC0B" fill-rule="nonzero" stroke="#000" stroke-width=".653" d="M206.194 112.968a1.66 1.66 0 0 0 0-3.32 1.66 1.66 0 0 0 0 3.32z"/><path fill="#FC0" fill-rule="nonzero" d="M172.174 106.939h-1.508c-.377 1.508-3.584 2.452-3.584 2.452-.377-1.194.44-2.892.44-2.892-3.709-.944-3.709-2.265-3.709-2.265.565-1.256 3.961-1.444 3.961-1.444-.882-1.13-.692-2.954-.692-2.954 2.263.127 4.148 2.388 4.148 2.388s-2.262-1.13-2.01-5.155c0 0 1.256-.06 2.01.754 0 0 0-4.335 1.824-4.837h.187c1.823.502 1.823 4.837 1.823 4.837.754-.814 2.01-.754 2.01-.754.253 4.023-2.01 5.155-2.01 5.155s1.886-2.26 4.148-2.388c0 0 .19 1.82-.692 2.954 0 0 3.397.188 3.961 1.444 0 0 0 1.321-3.708 2.265 0 0 .816 1.698.44 2.892 0 0-3.207-.944-3.585-2.452h-3.456"/><path fill="#BCAC0B" fill-rule="nonzero" stroke="#000" stroke-width=".653" d="M172.174 106.939h-1.508c-.377 1.508-3.584 2.452-3.584 2.452-.377-1.194.44-2.892.44-2.892-3.709-.944-3.709-2.265-3.709-2.265.565-1.256 3.961-1.444 3.961-1.444-.882-1.13-.692-2.954-.692-2.954 2.263.127 4.148 2.388 4.148 2.388s-2.262-1.13-2.01-5.155c0 0 1.256-.06 2.01.754 0 0 0-4.335 1.824-4.837h.187c1.823.502 1.823 4.837 1.823 4.837.754-.814 2.01-.754 2.01-.754.253 4.023-2.01 5.155-2.01 5.155s1.886-2.26 4.148-2.388c0 0 .19 1.82-.692 2.954 0 0 3.397.188 3.961 1.444 0 0 0 1.321-3.708 2.265 0 0 .816 1.698.44 2.892 0 0-3.207-.944-3.585-2.452h-3.456.002z"/><path fill="#FFF" fill-rule="nonzero" d="M173.032 107.796a3.037 3.037 0 1 0 .002-6.075 3.037 3.037 0 0 0-.002 6.075"/><path stroke="#000" stroke-width=".5" d="M173.032 107.796a3.037 3.037 0 1 0 .002-6.075 3.037 3.037 0 0 0-.002 6.075z"/><path fill="#FFF" fill-rule="nonzero" d="M173.032 106.418a1.66 1.66 0 0 0 1.662-1.66 1.66 1.66 0 0 0-3.32 0c0 .917.743 1.66 1.658 1.66"/><path stroke="#000" stroke-width=".5" d="M173.032 106.418a1.66 1.66 0 0 0 1.662-1.66 1.66 1.66 0 0 0-3.32 0c0 .917.743 1.66 1.658 1.66z"/><path fill="#FC0" fill-rule="nonzero" d="M196.067 108.906l1.475.32c.046 1.554 2.986 3.15 2.986 3.15.617-1.087.177-2.918.177-2.918 3.824-.139 4.1-1.429 4.1-1.429-.285-1.35-3.564-2.25-3.564-2.25 1.098-.92 1.3-2.744 1.3-2.744-2.24-.353-4.562 1.46-4.562 1.46s2.453-.626 3.055-4.613c0 0-1.217-.325-2.123.312 0 0 .913-4.24-.761-5.114l-.185-.04c-1.888.107-2.803 4.347-2.803 4.347-.565-.959-1.807-1.163-1.807-1.163-1.095 3.88.88 5.465.88 5.465s-1.367-2.611-3.553-3.212c0 0-.57 1.742.053 3.034 0 0-3.358-.53-4.177.579 0 0-.277 1.29 3.149 2.995 0 0-1.158 1.487-1.04 2.734 0 0 3.334-.245 4.02-1.64l1.473.316 1.907.411"/><path fill="#BCAC0B" fill-rule="nonzero" stroke="#000" stroke-width=".653" d="M196.067 108.906l1.475.32c.046 1.554 2.986 3.15 2.986 3.15.617-1.087.177-2.918.177-2.918 3.824-.139 4.1-1.429 4.1-1.429-.285-1.35-3.564-2.25-3.564-2.25 1.098-.92 1.3-2.744 1.3-2.744-2.24-.353-4.562 1.46-4.562 1.46s2.453-.626 3.055-4.613c0 0-1.217-.325-2.123.312 0 0 .913-4.24-.761-5.114l-.185-.04c-1.888.107-2.803 4.347-2.803 4.347-.565-.959-1.807-1.163-1.807-1.163-1.095 3.88.88 5.465.88 5.465s-1.367-2.611-3.553-3.212c0 0-.57 1.742.053 3.034 0 0-3.358-.53-4.177.579 0 0-.277 1.29 3.149 2.995 0 0-1.158 1.487-1.04 2.734 0 0 3.334-.245 4.02-1.64l1.473.316 1.907.411"/><path fill="#FFF" fill-rule="nonzero" d="M195.044 109.564a3.038 3.038 0 1 1 1.285-5.94 3.038 3.038 0 0 1-1.285 5.94"/><path stroke="#000" stroke-width=".5" d="M195.044 109.564a3.038 3.038 0 1 1 1.285-5.94 3.038 3.038 0 0 1-1.285 5.94z"/><path fill="#FFF" fill-rule="nonzero" d="M195.337 108.217a1.659 1.659 0 1 1 .699-3.243 1.66 1.66 0 1 1-.699 3.243"/><path stroke="#000" stroke-width=".5" d="M195.337 108.217a1.659 1.659 0 1 1 .699-3.243 1.66 1.66 0 1 1-.699 3.243z"/><path fill="#FC0" fill-rule="nonzero" d="M149.226 108.61l-1.497.198c-.175 1.546-3.23 2.904-3.23 2.904-.531-1.134.055-2.924.055-2.924-3.8-.446-3.975-1.756-3.975-1.756.396-1.318 3.735-1.955 3.735-1.955-1.021-1.004-1.074-2.837-1.074-2.837 2.26-.17 4.43 1.821 4.43 1.821s-2.393-.824-2.674-4.845c0 0 1.24-.228 2.094.483 0 0-.571-4.3 1.165-5.04l.188-.02c1.873.254 2.445 4.556 2.445 4.556.641-.908 1.895-1.014 1.895-1.014.78 3.956-1.314 5.373-1.314 5.373s1.571-2.488 3.798-2.91c0 0 .427 1.779-.296 3.016 0 0 3.39-.262 4.117.91 0 0 .173 1.31-3.38 2.734 0 0 1.036 1.573.82 2.808 0 0-3.303-.512-3.877-1.958l-1.496.2-1.93.257"/><path fill="#BCAC0B" fill-rule="nonzero" stroke="#000" stroke-width=".653" d="M149.226 108.61l-1.497.198c-.175 1.546-3.23 2.904-3.23 2.904-.531-1.134.055-2.924.055-2.924-3.8-.446-3.975-1.756-3.975-1.756.396-1.318 3.735-1.955 3.735-1.955-1.021-1.004-1.074-2.837-1.074-2.837 2.26-.17 4.43 1.821 4.43 1.821s-2.393-.824-2.674-4.845c0 0 1.24-.228 2.094.483 0 0-.571-4.3 1.165-5.04l.188-.02c1.873.254 2.445 4.556 2.445 4.556.641-.908 1.895-1.014 1.895-1.014.78 3.956-1.314 5.373-1.314 5.373s1.571-2.488 3.798-2.91c0 0 .427 1.779-.296 3.016 0 0 3.39-.262 4.117.91 0 0 .173 1.31-3.38 2.734 0 0 1.036 1.573.82 2.808 0 0-3.303-.512-3.877-1.958l-1.496.2-1.93.257"/><path fill="#FFF" fill-rule="nonzero" d="M150.189 109.348a3.036 3.036 0 0 0 2.61-3.413 3.035 3.035 0 0 0-3.41-2.609 3.036 3.036 0 1 0 .8 6.022"/><path stroke="#000" stroke-width=".5" d="M150.189 109.348a3.036 3.036 0 0 0 2.61-3.413 3.035 3.035 0 0 0-3.41-2.609 3.036 3.036 0 1 0 .8 6.022z"/><path fill="#FFF" fill-rule="nonzero" d="M150.009 107.981a1.66 1.66 0 0 0-.437-3.29 1.659 1.659 0 1 0 .437 3.29"/><path stroke="#000" stroke-width=".5" d="M150.009 107.981a1.66 1.66 0 0 0-.437-3.29 1.659 1.659 0 1 0 .437 3.29z"/><path fill="#FC0" fill-rule="nonzero" d="M217.12 115.067s-.76-1.998-2.442-1.28c-1.682.718-1.509.98-3.012.889 0 0-.586-1.797.153-2.573 0 0-2.402-.898-2.906-3.007 0 0 1.287-1.494 4.338-.937 0 0-.096-1.516.322-2.183 0 0 3.276 1.013 3.293 2.841 0 0-.982-3.586.747-6.19 0 0 1.535.658 1.436 2.292 0 0 .707-3.36 5.249-2.458 0 0-2.462 2.184-2.585 3.183-.122 1-2.176 2.702-2.212 3.27-.031.564-.281 1.556-.884 2.149s-.663 1.6-.615 1.914c.041.32-.103 1.696-.881 2.09"/><path fill="#BCAC0B" fill-rule="nonzero" stroke="#000" stroke-width=".653" d="M217.12 115.067s-.76-1.998-2.442-1.28c-1.682.718-1.509.98-3.012.889 0 0-.586-1.797.153-2.573 0 0-2.402-.898-2.906-3.007 0 0 1.287-1.494 4.338-.937 0 0-.096-1.516.322-2.183 0 0 3.276 1.013 3.293 2.841 0 0-.982-3.586.747-6.19 0 0 1.535.658 1.436 2.292 0 0 .707-3.36 5.249-2.458 0 0-2.462 2.184-2.585 3.183-.122 1-2.176 2.702-2.212 3.27-.031.564-.281 1.556-.884 2.149s-.663 1.6-.615 1.914c.041.32-.103 1.696-.881 2.09z"/><path fill="#FFF" fill-rule="nonzero" d="M214.661 111.08a3.038 3.038 0 0 1 3.562-2.4c.469.09.886.286 1.242.555-.091.57-.346 1.336-.846 1.828-.602.593-.662 1.6-.617 1.914.034.25-.055 1.149-.468 1.718a3.043 3.043 0 0 1-2.873-3.615"/><path stroke="#000" stroke-width=".5" d="M214.661 111.08a3.038 3.038 0 0 1 3.562-2.4c.469.09.886.286 1.242.555-.091.57-.346 1.336-.846 1.828-.602.593-.662 1.6-.617 1.914.034.25-.055 1.149-.468 1.718a3.043 3.043 0 0 1-2.873-3.615z"/><path fill="#FFF" fill-rule="nonzero" d="M216.016 111.344a1.658 1.658 0 0 1 1.945-1.311c.409.079.747.307.988.614a2.41 2.41 0 0 1-.33.416c-.602.593-.662 1.6-.617 1.914.007.065.007.176-.005.305a1.657 1.657 0 0 1-1.982-1.938"/><path stroke="#000" stroke-width=".5" d="M216.016 111.344a1.658 1.658 0 0 1 1.945-1.311c.409.079.747.307.988.614a2.41 2.41 0 0 1-.33.416c-.602.593-.662 1.6-.617 1.914.007.065.007.176-.005.305a1.657 1.657 0 0 1-1.982-1.938z"/><path fill="#FC0" fill-rule="nonzero" d="M129.111 114.231s.88-1.948 2.513-1.131c1.636.817 1.446 1.069 2.957 1.069 0 0 .69-1.76 0-2.578 0 0 2.45-.754 3.08-2.83 0 0-1.195-1.57-4.276-1.193 0 0 .19-1.51-.188-2.2 0 0-3.331.817-3.459 2.64 0 0 1.197-3.522-.377-6.224 0 0-1.57.565-1.57 2.2 0 0-.503-3.396-5.093-2.767 0 0 2.325 2.328 2.39 3.332.062 1.006 2.01 2.83 2.01 3.396 0 .565.19 1.571.755 2.2.567.63.567 1.634.502 1.948-.063.313 0 1.696.756 2.138"/><path fill="#BCAC0B" fill-rule="nonzero" stroke="#000" stroke-width=".653" d="M129.111 114.231s.88-1.948 2.513-1.131c1.636.817 1.446 1.069 2.957 1.069 0 0 .69-1.76 0-2.578 0 0 2.45-.754 3.08-2.83 0 0-1.195-1.57-4.276-1.193 0 0 .19-1.51-.188-2.2 0 0-3.331.817-3.459 2.64 0 0 1.197-3.522-.377-6.224 0 0-1.57.565-1.57 2.2 0 0-.503-3.396-5.093-2.767 0 0 2.325 2.328 2.39 3.332.062 1.006 2.01 2.83 2.01 3.396 0 .565.19 1.571.755 2.2.567.63.567 1.634.502 1.948-.063.313 0 1.696.756 2.138z"/><path fill="#FFF" fill-rule="nonzero" d="M131.802 110.4a3.035 3.035 0 0 0-3.411-2.61c-.471.062-.901.232-1.273.48.057.574.264 1.352.735 1.875.567.63.567 1.634.502 1.948-.048.245-.015 1.149.367 1.74.154.002.313 0 .471-.022a3.035 3.035 0 0 0 2.609-3.411"/><path stroke="#000" stroke-width=".5" d="M131.802 110.4a3.035 3.035 0 0 0-3.411-2.61c-.471.062-.901.232-1.273.48.057.574.264 1.352.735 1.875.567.63.567 1.634.502 1.948-.048.245-.015 1.149.367 1.74.154.002.313 0 .471-.022a3.035 3.035 0 0 0 2.609-3.411z"/><path fill="#FFF" fill-rule="nonzero" d="M130.437 110.58a1.66 1.66 0 0 0-1.864-1.427 1.663 1.663 0 0 0-1.023.555c.089.156.185.305.303.437.567.63.567 1.634.502 1.948-.012.063-.017.171-.015.303.212.06.44.08.67.05a1.663 1.663 0 0 0 1.427-1.866"/><path stroke="#000" stroke-width=".5" d="M130.437 110.58a1.66 1.66 0 0 0-1.864-1.427 1.663 1.663 0 0 0-1.023.555c.089.156.185.305.303.437.567.63.567 1.634.502 1.948-.012.063-.017.171-.015.303.212.06.44.08.67.05a1.663 1.663 0 0 0 1.427-1.866z"/><path stroke="#000" stroke-width="1.508" d="M134.201 132.587s33.748-13.22 76.384.284"/><path stroke="#000" stroke-width=".502" d="M215.343 122.06c-47.11-14.922-84.66-.839-84.66-.839"/><path fill="red" fill-rule="nonzero" d="M172.929 118.76l-3.774 1.884 3.397 2.138 4.023-2.013-3.646-2.01"/><path stroke="#000" stroke-width=".502" d="M172.929 118.76l-3.774 1.884 3.397 2.138 4.023-2.013-3.646-2.01"/></g></g></svg>