<svg xmlns="http://www.w3.org/2000/svg" width="20" height="20" fill="none" viewBox="0 0 20 20"><path fill="#2F3237" fill-rule="evenodd" d="M10 20c5.523 0 10-4.477 10-10S15.523 0 10 0 0 4.477 0 10s4.477 10 10 10zm3.267-1.611a9.005 9.005 0 0 0 5.72-7.889h-2.994c-.098 3.306-1.16 6.19-2.726 7.889zM6.733 1.61a9.005 9.005 0 0 0-5.72 7.89h2.994c.098-3.306 1.16-6.19 2.726-7.889zM5.008 9.5c.075-2.406.692-4.532 1.607-6.057.849-1.415 1.874-2.2 2.885-2.395V9.5H5.008zm0 1H9.5v8.452c-1.011-.195-2.036-.98-2.885-2.395-.915-1.525-1.532-3.65-1.607-6.057zm-1 0c.097 3.306 1.158 6.19 2.725 7.889a9.005 9.005 0 0 1-5.72-7.889h2.994zm6.492 8.452V10.5h4.492c-.075 2.406-.692 4.532-1.607 6.057-.849 1.415-1.874 2.2-2.885 2.395zM14.992 9.5H10.5V1.048c1.011.195 2.036.98 2.885 2.395.915 1.525 1.532 3.65 1.607 6.057zm1 0c-.097-3.306-1.158-6.19-2.725-7.889a9.005 9.005 0 0 1 5.72 7.889h-2.994z" clip-rule="evenodd"/></svg>