<svg xmlns="http://www.w3.org/2000/svg" width="10" height="10" fill="none" viewBox="0 0 10 10"><path fill="#DEE3ED" d="M0 0h10v10H0z"/><path fill="#5E636E" d="M4.363 6.254c0-.365.045-.655.133-.871.089-.216.25-.429.484-.637.237-.21.395-.381.473-.512a.812.812 0 0 0 .117-.418c0-.44-.203-.66-.61-.66a.62.62 0 0 0-.464.18c-.114.117-.174.28-.18.488H3.184c.005-.497.165-.886.48-1.168.318-.281.75-.422 1.297-.422.552 0 .98.134 1.285.403.305.265.457.642.457 1.129 0 .221-.05.43-.148.629-.1.195-.272.412-.52.652l-.316.3c-.198.19-.311.413-.34.669l-.016.238h-1zm-.113 1.2c0-.175.059-.319.176-.43a.634.634 0 0 1 .457-.172.62.62 0 0 1 .453.171c.12.112.18.256.18.43a.564.564 0 0 1-.176.426.626.626 0 0 1-.457.168.64.64 0 0 1-.461-.168.57.57 0 0 1-.172-.426z"/></svg>