<svg xmlns="http://www.w3.org/2000/svg" xmlns:xlink="http://www.w3.org/1999/xlink" width="513" height="512" viewBox="0 0 513 512"><title>Slice</title><defs><path id="a" d="M0 0h797.96v530.973H0z"/></defs><g fill="none" fill-rule="evenodd" transform="translate(-133 -9)"><mask id="b" fill="#fff"><use xlink:href="#a"/></mask><g fill-rule="nonzero" mask="url(#b)"><path fill="#D4001C" d="M0 0h797.96v530.973H0z"/><g fill="#FDDD00" transform="translate(157 25)"><path d="M26.175 242l9.125 7.138c14.633 11.443 38.502 35.909 45.015 77.3l1.722 10.924 8.36-7.312c14.038-12.277 55.754-44.434 116.757-53.224-8.792 61.003-40.948 102.718-53.224 116.756l-7.312 8.361 10.924 1.721c41.392 6.515 65.857 30.383 77.301 45.015l7.137 9.126 7.138-9.126c11.442-14.632 35.907-38.5 77.299-45.015l10.924-1.721-7.312-8.361c-12.276-14.038-44.432-55.753-53.224-116.756 61.003 8.79 102.719 40.947 116.756 53.224l8.361 7.312 1.721-10.924c6.514-41.391 30.383-65.857 45.014-77.3l9.127-7.138-9.127-7.138c-14.631-11.443-38.5-35.908-45.014-77.299l-1.721-10.925-8.361 7.312c-14.037 12.277-55.753 44.434-116.756 53.225 8.792-61.003 40.948-102.719 53.224-116.756l7.312-8.362-10.924-1.72c-41.392-6.516-65.857-30.384-77.299-45.016l-7.138-9.126-7.137 9.126c-11.444 14.632-35.909 38.5-77.301 45.016l-10.924 1.72 7.312 8.362c12.276 14.037 44.432 55.753 53.224 116.756-61.003-8.791-102.719-40.948-116.757-53.225l-8.36-7.312-1.722 10.925c-6.513 41.391-30.382 65.856-45.015 77.299L26.175 242zm35.125 0c27.829-25.798 34.256-54.425 34.256-54.425 40.625 34.242 103.986 41.96 135.664 43.666-1.707-31.679-9.424-95.039-43.665-135.666 0 0 28.625-6.425 54.425-34.255 25.799 27.83 54.424 34.255 54.424 34.255-34.241 40.627-41.958 103.987-43.665 135.666 31.678-1.706 95.039-9.424 135.665-43.666 0 0 6.425 28.627 34.255 54.425-27.83 25.799-34.255 54.425-34.255 54.425-40.626-34.242-103.987-41.96-135.665-43.666 1.707 31.679 9.424 95.039 43.665 135.666 0 0-28.625 6.425-54.424 34.255-25.8-27.83-54.425-34.255-54.425-34.255 34.241-40.627 41.958-103.987 43.665-135.666-31.678 1.706-95.039 9.424-135.664 43.666 0 0-6.427-28.626-34.256-54.425z"/><circle cx="18.755" cy="242" r="18"/><circle cx="79.555" cy="139.576" r="18"/><circle cx="79.555" cy="344.425" r="18"/><circle cx="139.555" cy="79.575" r="18"/><circle cx="139.555" cy="404.426" r="18"/><circle cx="241.98" cy="18.774" r="18"/><circle cx="241.98" cy="465.226" r="18"/><circle cx="344.404" cy="79.575" r="18"/><circle cx="344.404" cy="404.426" r="18"/><circle cx="404.404" cy="139.576" r="18"/><circle cx="404.404" cy="344.425" r="18"/><circle cx="465.205" cy="242" r="18"/></g></g></g></svg>