<svg xmlns="http://www.w3.org/2000/svg" width="40" height="40" fill="none" viewBox="0 0 40 40"><clipPath id="a"><path d="M0 0h40v40H0z"/></clipPath><g fill="#fff" fill-rule="evenodd" clip-path="url(#a)" clip-rule="evenodd"><path d="M10 4a2 2 0 0 0-2 2v28a2 2 0 0 0 2 2h10.514a11.064 11.064 0 0 0 2.16 2H10a4 4 0 0 1-4-4V6a4 4 0 0 1 4-4h12.457a4 4 0 0 1 2.852 1.196l7.543 7.672A4 4 0 0 1 34 13.672V19.2a10.924 10.924 0 0 0-2-.785V14h-9a1 1 0 0 1-1-1V4zm14 .717L31.16 12H24z"/><path d="M11 9a1 1 0 011-1h6a1 1 0 110 2h-6a1 1 0 01-1-1zm0 4a1 1 0 011-1h6a1 1 0 110 2h-6a1 1 0 01-1-1zm0 4a1 1 0 011-1h16a1 1 0 110 2H12a1 1 0 01-1-1zm0 4a1 1 0 011-1h10.674a11.064 11.064 0 00-2.16 2H12a1 1 0 01-1-1zm8.2 3H12a1 1 0 100 2h6.414c.197-.697.461-1.366.785-2zm-1.155 4H12a1 1 0 100 2h6.045a11.17 11.17 0 010-2zM23.393 33.193l9.8-9.8a7.001 7.001 0 00-9.8 9.8zm10.557.757a7.001 7.001 0 01-9.143.657l9.8-9.8a7.001 7.001 0 01-.657 9.143zm1.414 1.414a9 9 0 11-12.728-12.728 9 9 0 0112.728 12.728z"/></g></svg>