<svg width="20" height="8" viewBox="0 0 20 8" fill="none" xmlns="http://www.w3.org/2000/svg">
<path fill-rule="evenodd" clip-rule="evenodd" d="M1.6 3.2C2.48366 3.2 3.2 2.48366 3.2 1.6C3.2 0.716344 2.48366 0 1.6 0C0.716344 0 0 0.716344 0 1.6C0 2.48366 0.716344 3.2 1.6 3.2ZM7.2 3.2C8.08366 3.2 8.8 2.48366 8.8 1.6C8.8 0.716344 8.08366 0 7.2 0C6.31634 0 5.6 0.716344 5.6 1.6C5.6 2.48366 6.31634 3.2 7.2 3.2ZM14.4 1.6C14.4 2.48366 13.6837 3.2 12.8 3.2C11.9163 3.2 11.2 2.48366 11.2 1.6C11.2 0.716344 11.9163 0 12.8 0C13.6837 0 14.4 0.716344 14.4 1.6ZM18.4 3.2C19.2837 3.2 20 2.48366 20 1.6C20 0.716344 19.2837 0 18.4 0C17.5163 0 16.8 0.716344 16.8 1.6C16.8 2.48366 17.5163 3.2 18.4 3.2ZM3.2 6.4C3.2 7.28366 2.48366 8 1.6 8C0.716344 8 0 7.28366 0 6.4C0 5.51634 0.716344 4.8 1.6 4.8C2.48366 4.8 3.2 5.51634 3.2 6.4ZM7.2 8C8.08366 8 8.8 7.28366 8.8 6.4C8.8 5.51634 8.08366 4.8 7.2 4.8C6.31634 4.8 5.6 5.51634 5.6 6.4C5.6 7.28366 6.31634 8 7.2 8ZM14.4 6.4C14.4 7.28366 13.6837 8 12.8 8C11.9163 8 11.2 7.28366 11.2 6.4C11.2 5.51634 11.9163 4.8 12.8 4.8C13.6837 4.8 14.4 5.51634 14.4 6.4ZM18.4 8C19.2837 8 20 7.28366 20 6.4C20 5.51634 19.2837 4.8 18.4 4.8C17.5163 4.8 16.8 5.51634 16.8 6.4C16.8 7.28366 17.5163 8 18.4 8Z" fill="#C2C9D6"/>
</svg>
