<svg xmlns="http://www.w3.org/2000/svg" width="20" height="20" viewBox="0 0 20 20"><path fill="#F91A47" fill-rule="evenodd" d="M17.881 8.619a8.01 8.01 0 0 0-4.32-5.785c.69 1.38 1.158 3.17 1.346 5.167a6.993 6.993 0 0 0-1.982.312C12.597 4.667 11.249 2 10 2 8.673 2 7.236 5.008 7.026 9h4.366a7.037 7.037 0 0 0-2.137 2H7.026c.103 1.954.5 3.672 1.033 4.917A6.981 6.981 0 0 0 10.101 20H10C4.477 20 0 15.523 0 10S4.477 0 10 0s10 4.477 10 10v.1A7.016 7.016 0 0 0 17.88 8.62zM5.023 11H2.062a8.007 8.007 0 0 0 4.377 6.166C5.637 15.56 5.133 13.396 5.023 11zm0-2c.11-2.396.614-4.56 1.416-6.166A8.007 8.007 0 0 0 2.062 9h2.96zm11.391 6l1.414 1.414a1 1 0 1 1-1.414 1.414L15 16.414l-1.414 1.414a1 1 0 1 1-1.414-1.414L13.586 15l-1.414-1.414a1 1 0 1 1 1.414-1.414L15 13.586l1.414-1.414a1 1 0 1 1 1.414 1.414L16.414 15z"/></svg>