<svg xmlns="http://www.w3.org/2000/svg" width="40" height="5" fill="none" viewBox="0 0 40 5"><path fill="#fff" d="M40 3v2c-1.655 0-2.416-.57-3.332-1.945C36.084 2.179 35.845 2 35 2s-1.084.18-1.668 1.055C32.416 4.429 31.655 5 30 5c-1.655 0-2.416-.57-3.332-1.945C26.084 2.179 25.845 2 25 2s-1.084.18-1.668 1.055C22.416 4.429 21.655 5 20 5c-1.655 0-2.416-.57-3.332-1.945C16.084 2.179 15.845 2 15 2s-1.084.18-1.668 1.055C12.416 4.429 11.655 5 10 5c-1.655 0-2.416-.57-3.332-1.945C6.084 2.179 5.845 2 5 2s-1.084.18-1.668 1.055C2.416 4.429 1.655 5 0 5V3c.845 0 1.084-.18 1.668-1.055C2.584.571 3.345 0 5 0c1.655 0 2.416.57 3.332 1.945C8.916 2.821 9.155 3 10 3s1.084-.18 1.668-1.055C12.584.571 13.345 0 15 0c1.655 0 2.416.57 3.332 1.945C18.916 2.821 19.155 3 20 3s1.084-.18 1.668-1.055C22.584.571 23.345 0 25 0c1.655 0 2.416.57 3.332 1.945C28.916 2.821 29.155 3 30 3s1.084-.18 1.668-1.055C32.584.571 33.345 0 35 0c1.655 0 2.416.57 3.332 1.945C38.916 2.821 39.155 3 40 3z"/></svg>