<svg xmlns="http://www.w3.org/2000/svg" width="40" height="40" fill="none" viewBox="0 0 40 40"><path fill="#5e636e" fill-rule="evenodd" d="M10 4a2 2 0 0 0-2 2v28a2 2 0 0 0 2 2h10.514a11.064 11.064 0 0 0 2.16 2H10a4 4 0 0 1-4-4V6a4 4 0 0 1 4-4h12.457a4 4 0 0 1 2.852 1.196l7.543 7.672A4 4 0 0 1 34 13.672V19.2a10.924 10.924 0 0 0-2-.785V14h-9a1 1 0 0 1-1-1V4zm14 .717L31.16 12H24z" clip-rule="evenodd"/><path fill="#dee3ed" fill-rule="evenodd" d="M11 9a1 1 0 0 1 1-1h6a1 1 0 1 1 0 2h-6a1 1 0 0 1-1-1zm0 4a1 1 0 0 1 1-1h6a1 1 0 1 1 0 2h-6a1 1 0 0 1-1-1zm0 4a1 1 0 0 1 1-1h16a1 1 0 1 1 0 2H12a1 1 0 0 1-1-1zm0 4a1 1 0 0 1 1-1h10.674a11.064 11.064 0 0 0-2.16 2H12a1 1 0 0 1-1-1zm8.2 3H12a1 1 0 1 0 0 2h6.414c.197-.697.461-1.366.785-2zm-1.155 4H12a1 1 0 1 0 0 2h6.045a11.17 11.17 0 0 1 0-2z" clip-rule="evenodd"/><path fill="#45a1fc" d="M38 29a9 9 0 1 1-18 0 9 9 0 0 1 18 0z"/><path stroke="#fff" stroke-linecap="round" stroke-linejoin="round" stroke-width="2" d="M25 29l3 3 5-6"/></svg>