<svg xmlns="http://www.w3.org/2000/svg" width="40" height="40" fill="none" viewBox="0 0 40 40"><path fill="#5E636E" fill-rule="evenodd" d="M10 4a2 2 0 0 0-2 2v28a2 2 0 0 0 2 2h10.514a11.064 11.064 0 0 0 2.16 2H10a4 4 0 0 1-4-4V6a4 4 0 0 1 4-4h12.457a4 4 0 0 1 2.852 1.196l7.543 7.672A4 4 0 0 1 34 13.672V19.2a10.924 10.924 0 0 0-2-.785V14h-9a1 1 0 0 1-1-1V4H10zm14 .717L31.16 12H24V4.717z" clip-rule="evenodd"/><path fill="#DEE3ED" fill-rule="evenodd" d="M11 9a1 1 0 0 1 1-1h6a1 1 0 1 1 0 2h-6a1 1 0 0 1-1-1zm0 4a1 1 0 0 1 1-1h6a1 1 0 1 1 0 2h-6a1 1 0 0 1-1-1zm0 4a1 1 0 0 1 1-1h16a1 1 0 1 1 0 2H12a1 1 0 0 1-1-1zm0 4a1 1 0 0 1 1-1h10.674a11.064 11.064 0 0 0-2.16 2H12a1 1 0 0 1-1-1zm8.2 3H12a1 1 0 1 0 0 2h6.414c.197-.697.461-1.366.785-2zm-1.155 4H12a1 1 0 1 0 0 2h6.045a11.17 11.17 0 0 1 0-2z" clip-rule="evenodd"/><path fill="#EF2850" d="M38 29a9 9 0 1 1-18 0 9 9 0 0 1 18 0z"/><path fill="#fff" fill-rule="evenodd" d="M28.5 22a1 1 0 0 0-.997 1.071l.5 7a1 1 0 0 0 1.994 0l.5-7A1 1 0 0 0 29.5 22h-1zm.5 13.5a1.5 1.5 0 1 0 0-3 1.5 1.5 0 0 0 0 3z" clip-rule="evenodd"/></svg>