<svg xmlns="http://www.w3.org/2000/svg" width="40" height="40" fill="none" viewBox="0 0 40 40"><g fill-rule="evenodd" clip-rule="evenodd"><path fill="#5e636e" d="M10 4a2 2 0 0 0-2 2v28a2 2 0 0 0 2 2h10.514a11.064 11.064 0 0 0 2.16 2H10a4 4 0 0 1-4-4V6a4 4 0 0 1 4-4h12.457a4 4 0 0 1 2.852 1.196l7.543 7.672A4 4 0 0 1 34 13.672V19.2a10.924 10.924 0 0 0-2-.785V14h-9a1 1 0 0 1-1-1V4zm14 .717L31.16 12H24z"/><path fill="#dee3ed" d="M11 9a1 1 0 0 1 1-1h6a1 1 0 1 1 0 2h-6a1 1 0 0 1-1-1zm0 4a1 1 0 0 1 1-1h6a1 1 0 1 1 0 2h-6a1 1 0 0 1-1-1zm0 4a1 1 0 0 1 1-1h16a1 1 0 1 1 0 2H12a1 1 0 0 1-1-1zm0 4a1 1 0 0 1 1-1h10.674a11.064 11.064 0 0 0-2.16 2H12a1 1 0 0 1-1-1zm8.2 3H12a1 1 0 1 0 0 2h6.414c.197-.697.461-1.366.785-2zm-1.155 4H12a1 1 0 1 0 0 2h6.045a11.17 11.17 0 0 1 0-2z"/><path fill="#2f3237" d="M36 29a7 7 0 1 1-14 0 7 7 0 0 1 14 0zm2 0a9 9 0 1 1-18 0 9 9 0 0 1 18 0zm-6.375-3.22a1 1 0 1 0-1.25-1.56l-5 4a1 1 0 0 0 0 1.56l5 4a1 1 0 1 0 1.25-1.56L27.6 29z"/></g></svg>