<svg xmlns="http://www.w3.org/2000/svg" width="819" height="300" fill="none" viewBox="0 0 819 300"><linearGradient id="b" x1="189.403" x2="145.523" y1="151.487" y2="54.779" gradientUnits="userSpaceOnUse"><stop offset="0" stop-color="#4c89ef"/><stop offset="1" stop-color="#3b6cc3"/></linearGradient><mask id="a" width="220" height="300" x="0" y="0" maskUnits="userSpaceOnUse"><path fill="#fff" d="M20 0h120l80 80v200c0 11.046-8.954 20-20 20H20c-11.046 0-20-8.954-20-20V20C0 8.954 8.954 0 20 0z"/></mask><mask id="c" width="220" height="300" x="0" y="0" maskUnits="userSpaceOnUse"><path fill="#fff" d="M20 0h120l80 80v200c0 11.046-8.954 20-20 20H20c-11.046 0-20-8.954-20-20V20C0 8.954 8.954 0 20 0z"/></mask><mask id="d" width="220" height="300" x="0" y="0" maskUnits="userSpaceOnUse"><path fill="#fff" d="M20 0h120l80 80v200c0 11.046-8.954 20-20 20H20c-11.046 0-20-8.954-20-20V20C0 8.954 8.954 0 20 0z"/></mask><path fill="#4c89ef" d="M20 0h120l80 80v200c0 11.046-8.954 20-20 20H20c-11.046 0-20-8.954-20-20V20C0 8.954 8.954 0 20 0z"/><g mask="url(#a)"><path fill="url(#b)" d="M140 0l80 80v85l-80-99.853z"/></g><g mask="url(#c)"><path fill="#000" d="M140 0l80 80h-60c-11.046 0-20-8.954-20-20z"/><path fill="#9cb7ed" d="M140 0l80 80h-60c-11.046 0-20-8.954-20-20z"/></g><g mask="url(#d)"><path fill="#fff" d="M50 140h120v10H50zm0 20h120v10H50zm0 20h120v10H50zm0 20h70v10H50z"/></g><path fill="#000" d="M562 52h29.032c12.056 0 21.829 9.767 21.829 21.815v84.644h56.756V189H604.13c-12.056 0-21.829-9.767-21.829-21.815V82.541H562zm222 21.815v22.688h-30.56V82.541h-24.012V189h-30.561V82.541h-24.012v13.962h-30.56V73.815c0-12.048 9.773-21.815 21.829-21.815h96.047C774.227 52 784 61.767 784 73.815z"/><path fill="#45a1fc" d="M548.411 271.742L520 251.592c8.347-11.602 16.957-20.579 26.016-26.875C556.085 217.718 566.785 214 577.849 214c10.273 0 19.171 2.474 27.121 7.21 3.207 1.91 6.154 4.114 9.132 6.724 2.054 1.799 3.521 3.211 6.642 6.309 4.73 4.697 6.696 6.419 9.048 7.821 2.552 1.52 5.247 2.269 9.158 2.269 3.915 0 6.62-.751 9.186-2.277 2.363-1.405 4.345-3.137 9.074-7.824l.044-.043c3.106-3.078 4.587-4.501 6.641-6.297 2.975-2.6 5.916-4.797 9.116-6.702 7.933-4.722 16.806-7.19 27.039-7.19 10.234 0 19.106 2.468 27.04 7.19 3.199 1.905 6.141 4.102 9.115 6.702 2.054 1.796 3.536 3.219 6.642 6.297l.043.043c4.729 4.687 6.711 6.419 9.075 7.824 2.565 1.526 5.271 2.277 9.186 2.277 3.484 0 7.332-1.337 11.811-4.45 5.488-3.814 11.425-10.004 17.627-18.624L819 241.408c-8.347 11.602-16.957 20.579-26.016 26.875C782.915 275.282 772.215 279 761.151 279c-10.269 0-19.169-2.472-27.125-7.202-3.21-1.909-6.16-4.111-9.143-6.719-2.06-1.8-3.546-3.227-6.658-6.311l-.044-.043c-4.717-4.675-6.692-6.403-9.043-7.802-2.542-1.513-5.216-2.256-9.088-2.256s-6.545.743-9.088 2.256c-2.35 1.399-4.325 3.127-9.043 7.802l-.043.043c-3.112 3.084-4.598 4.511-6.658 6.312-2.983 2.607-5.933 4.809-9.144 6.718-7.955 4.73-16.855 7.202-27.124 7.202-10.274 0-19.172-2.474-27.121-7.21-3.208-1.91-6.154-4.114-9.132-6.724-2.054-1.799-3.521-3.211-6.642-6.309-4.73-4.697-6.696-6.419-9.049-7.821-2.552-1.52-5.246-2.269-9.157-2.269-3.484 0-7.332 1.337-11.811 4.45-5.488 3.814-11.425 10.004-17.627 18.624z"/><path fill="#2f3237" d="M339 163.871v-27.956h43.915V92h28.17v43.915H455v27.956h-43.915V208h-28.17v-44.129z"/></svg>