<svg xmlns="http://www.w3.org/2000/svg" width="819" height="300" fill="none" viewBox="0 0 819 300"><filter id="c" width="90" height="90" x="135" y="-5" color-interpolation-filters="sRGB" filterUnits="userSpaceOnUse"><feFlood flood-opacity="0" result="BackgroundImageFix"/><feColorMatrix in="SourceAlpha" values="0 0 0 0 0 0 0 0 0 0 0 0 0 0 0 0 0 0 127 0"/><feOffset/><feGaussianBlur stdDeviation="2.5"/><feColorMatrix values="0 0 0 0 0 0 0 0 0 0 0 0 0 0 0 0 0 0 0.144503 0"/><feBlend in2="BackgroundImageFix" result="effect1_dropShadow"/><feBlend in="SourceGraphic" in2="effect1_dropShadow" result="shape"/></filter><linearGradient id="b" x1="246.966" x2="161.74" y1="99.437" y2="55.283" gradientUnits="userSpaceOnUse"><stop offset="0" stop-color="#f4b70a"/><stop offset="1" stop-color="#eba216"/></linearGradient><mask id="a" width="220" height="300" x="0" y="0" maskUnits="userSpaceOnUse"><path fill="#fff" fill-rule="evenodd" d="M20 0h120l80 80v200c0 11.046-8.954 20-20 20H20c-11.046 0-20-8.954-20-20V20C0 8.954 8.954 0 20 0z" clip-rule="evenodd"/></mask><path fill="#000" d="M562 52h29.032c12.056 0 21.829 9.767 21.829 21.815v84.644h56.756V189H604.13c-12.056 0-21.829-9.767-21.829-21.815V82.541H562zm222 21.815v22.688h-30.56V82.541h-24.012V189h-30.561V82.541h-24.012v13.962h-30.56V73.815c0-12.048 9.773-21.815 21.829-21.815h96.047C774.227 52 784 61.767 784 73.815z"/><path fill="#2f3237" d="M339 163.871v-27.956h43.915V92h28.17v43.915H455v27.956h-43.915V208h-28.17v-44.129z"/><path fill="#f5ba16" fill-rule="evenodd" d="M20 0h120l80 80v200c0 11.046-8.954 20-20 20H20c-11.046 0-20-8.954-20-20V20C0 8.954 8.954 0 20 0z" clip-rule="evenodd"/><g mask="url(#a)"><path fill="url(#b)" fill-rule="evenodd" d="M140 0l80 80v85l-75-92z" clip-rule="evenodd"/><g filter="url(#c)"><path fill="#fadc86" fill-rule="evenodd" d="M140 0l80 80h-60c-11.046 0-20-8.954-20-20z" clip-rule="evenodd"/></g><path fill="#fff" fill-rule="evenodd" d="M65 138c-5.523 0-10 4.477-10 10v90c0 5.523 4.477 10 10 10h90c5.523 0 10-4.477 10-10v-90c0-5.523-4.477-10-10-10zm86 31H69v48h82z" clip-rule="evenodd"/></g><path fill="#1976f0" d="M644 228c0-6.627 5.373-12 12-12h151c6.627 0 12 5.373 12 12v60c0 6.627-5.373 12-12 12H656c-6.627 0-12-5.373-12-12z"/><path fill="#fff" d="M668.62 279v-39.12H682c2.04 0 3.92.16 5.64.48 1.76.28 3.28.8 4.56 1.56 1.32.76 2.34 1.76 3.06 3 .76 1.24 1.14 2.8 1.14 4.68 0 .88-.12 1.76-.36 2.64s-.58 1.7-1.02 2.46-.98 1.44-1.62 2.04c-.6.6-1.3 1.04-2.1 1.32v.24c1 .24 1.92.62 2.76 1.14.84.48 1.58 1.1 2.22 1.86s1.14 1.66 1.5 2.7c.36 1 .54 2.16.54 3.48 0 2-.4 3.72-1.2 5.16-.76 1.44-1.84 2.64-3.24 3.6-1.36.92-2.96 1.62-4.8 2.1-1.84.44-3.82.66-5.94.66zm8.82-23.46h4.14c2.16 0 3.72-.42 4.68-1.26 1-.84 1.5-1.96 1.5-3.36 0-1.52-.5-2.6-1.5-3.24s-2.54-.96-4.62-.96h-4.2zm0 16.62h4.98c4.84 0 7.26-1.76 7.26-5.28 0-1.72-.6-2.94-1.8-3.66-1.2-.76-3.02-1.14-5.46-1.14h-4.98zm27.508 6.84v-39.12h24.48v7.44h-15.66v7.86h13.32v7.38h-13.32v9h16.26V279zm40.491 0v-31.68h-10.74v-7.44h30.36v7.44h-10.74V279zm32.498-19.8l-.96 3.6h8.34l-.9-3.6c-.56-1.96-1.1-4.04-1.62-6.24s-1.04-4.32-1.56-6.36h-.24c-.48 2.08-.98 4.22-1.5 6.42-.48 2.16-1 4.22-1.56 6.18zm-14.16 19.8l12.24-39.12h10.62l12.24 39.12h-9.36l-2.4-9.3h-11.94l-2.4 9.3z"/><path fill="#45a1fc" fill-rule="evenodd" d="M624 237.418c-.928-.88-1.994-1.922-3.256-3.175-3.121-3.098-4.588-4.51-6.642-6.309-2.978-2.61-5.925-4.814-9.132-6.724-7.95-4.736-16.848-7.21-27.121-7.21-11.064 0-21.764 3.718-31.833 10.717-9.059 6.296-17.669 15.273-26.016 26.875l28.411 20.149c6.202-8.62 12.139-14.81 17.627-18.624 4.479-3.113 8.327-4.45 11.811-4.45 3.911 0 6.605.749 9.157 2.269 2.353 1.402 4.319 3.124 9.049 7.821 3.121 3.098 4.588 4.51 6.642 6.309 2.978 2.61 5.924 4.814 9.132 6.724A50.07 50.07 0 0 0 624 277.029z" clip-rule="evenodd"/></svg>