<svg fill="none" height="28" viewBox="0 0 69 28" width="69" xmlns="http://www.w3.org/2000/svg"><rect fill="#5e636e" height="28" rx="4" width="69"/><g fill="#fff"><path d="m10.522 18.168c1.876 0 3.304-1.022 3.304-3.962v-5.39h-1.134v5.418c0 2.198-.952 2.898-2.17 2.898-1.204 0-2.128-.7-2.128-2.898v-5.418h-1.176v5.39c0 2.94 1.428 3.962 3.304 3.962zm5.6768-.168h1.162v-4.928c.672-.686 1.162-1.036 1.848-1.036.896 0 1.288.532 1.288 1.806v4.158h1.162v-4.312c0-1.736-.644-2.66-2.086-2.66-.938 0-1.638.504-2.282 1.148h-.042l-.098-.98h-.952zm9.9802.168c.798 0 1.526-.448 2.058-.966h.042l.098.798h.952v-9.968h-1.162v2.618l.056 1.162c-.602-.49-1.12-.784-1.904-.784-1.554 0-2.954 1.372-2.954 3.584 0 2.268 1.106 3.556 2.814 3.556zm.252-.98c-1.19 0-1.862-.966-1.862-2.59 0-1.554.868-2.59 1.946-2.59.56 0 1.078.182 1.652.7v3.556c-.56.616-1.106.924-1.736.924zm7.8357.98c1.666 0 3.164-1.302 3.164-3.556 0-2.282-1.498-3.584-3.164-3.584s-3.15 1.302-3.15 3.584c0 2.254 1.484 3.556 3.15 3.556zm0-.966c-1.162 0-1.946-1.036-1.946-2.59 0-1.568.784-2.618 1.946-2.618 1.176 0 1.96 1.05 1.96 2.618 0 1.554-.784 2.59-1.96 2.59z"/><path d="m46 18.5c-.2761 0-.5.2239-.5.5s.2239.5.5.5zm1-7.5-.3536-.3536c-.1952.1953-.1952.5119 0 .7072zm3.3536-2.64645c.1952-.19526.1952-.51184 0-.7071-.1953-.19527-.5119-.19527-.7072 0zm-.7072 6.00005c.1953.1952.5119.1952.7072 0 .1952-.1953.1952-.5119 0-.7072zm-3.6464 5.1464h11v-1h-11zm14.5-4.5c0 1.933-1.567 3.5-3.5 3.5v1c2.4853 0 4.5-2.0147 4.5-4.5zm-3.5-3.5c1.933 0 3.5 1.567 3.5 3.5h1c0-2.4853-2.0147-4.5-4.5-4.5zm0-1h-10v1h10zm-9.6464.8536 3-3.00005-.7072-.7071-3 2.99995zm-.7072 0 3 3 .7072-.7072-3-3z"/></g></svg>