<svg xmlns="http://www.w3.org/2000/svg" width="20" height="20" fill="none" viewBox="0 0 20 20"><path fill="#1d1e20" d="M4.375 4.963h1.527c.634 0 1.148.52 1.148 1.161v4.504h2.984v1.625H6.591c-.634 0-1.148-.52-1.148-1.161V6.588H4.375zM16.05 6.124v1.207h-1.607v-.743H13.18v5.665h-1.607V6.588H10.31v.743H8.703V6.124c0-.641.514-1.16 1.148-1.16h5.05c.635 0 1.149.519 1.149 1.16z"/><path fill="#45a1fc" d="M3.63 16.611l-1.495-1.08c.44-.62.892-1.102 1.369-1.439.53-.375 1.092-.574 1.674-.574.54 0 1.009.132 1.427.386.169.102.324.22.48.36.109.097.186.172.35.338.249.252.352.344.476.42a.867.867 0 0 0 .482.12.87.87 0 0 0 .483-.121c.124-.075.229-.168.477-.42l.003-.002c.163-.164.241-.24.35-.337.156-.14.31-.257.479-.359a2.675 2.675 0 0 1 1.422-.385c.538 0 1.005.132 1.423.385.168.102.323.22.479.36.108.095.186.172.35.336l.002.003c.248.25.353.344.477.419a.87.87 0 0 0 .483.122c.184 0 .386-.072.622-.238.288-.205.6-.536.927-.998l1.495 1.08c-.44.62-.893 1.102-1.37 1.439-.529.375-1.092.574-1.674.574-.54 0-1.008-.132-1.427-.386a3.246 3.246 0 0 1-.48-.36 6.951 6.951 0 0 1-.35-.338l-.003-.002c-.248-.25-.352-.343-.476-.418a.86.86 0 0 0-.478-.121.86.86 0 0 0-.478.12c-.124.076-.228.168-.476.419l-.002.002a6.951 6.951 0 0 1-.35.338c-.157.14-.312.258-.481.36A2.685 2.685 0 0 1 8.393 17a2.68 2.68 0 0 1-1.427-.386 3.242 3.242 0 0 1-.48-.36 6.986 6.986 0 0 1-.35-.338c-.249-.252-.352-.344-.476-.42a.866.866 0 0 0-.482-.121c-.183 0-.385.072-.62.238-.29.205-.602.536-.928.998z"/></svg>