<?xml version="1.0" encoding="utf-8"?>
<!-- Generator: Adobe Illustrator 21.0.0, SVG Export Plug-In . SVG Version: 6.00 Build 0)  -->
<svg version="1.1" id="Layer_1" xmlns="http://www.w3.org/2000/svg" xmlns:xlink="http://www.w3.org/1999/xlink" x="0px" y="0px"
	 viewBox="0 0 457.2 104.2" style="enable-background:new 0 0 457.2 104.2;" xml:space="preserve">
<style type="text/css">
	.st0{clip-path:url(#SVGID_2_);}
</style>
<g>
	<defs>
		<rect id="SVGID_1_" width="457.2" height="104.2"/>
	</defs>
	<clipPath id="SVGID_2_">
		<use xlink:href="#SVGID_1_"  style="overflow:visible;"/>
	</clipPath>
	<path class="st0" d="M59.9,38.7h27.5v48.7H0V38.7h27.5V63h32.3V38.7z M152.9,63.6c0,8.3-5.4,13.1-12.9,13.1
		c-7.3,0-12.8-4.9-12.8-13.1V24.4H115v39.1c0,15.4,11,25.2,25.1,25.2c14.2,0,25.1-9.8,25.1-25.2V24.4h-12.2V63.6z M196.6,42.5
		c-4.7,0-9.9,2-12.6,6.6v-5.4h-11.4v43.7h11.8V62.2c0-5.1,3-9.1,8.2-9.1c5.7,0,8.1,3.8,8.1,8.7v25.5h11.8V59.8
		C212.4,50.2,207.4,42.5,196.6,42.5 M239.9,60.9c0,0-4-0.8-6.5-1.3c-2.5-0.5-4-1.8-4-3.9c0-2.5,2.2-4.3,5.3-4.3
		c4.4,0,6.1,2.2,6.5,4.9h10.2c-0.1-6-4.8-13.8-16.5-13.8c-9.4,0-16.3,6.5-16.3,14.3c0,6.1,3.8,11.2,12.2,13l6,1.3
		c3.4,0.7,4.7,2.3,4.7,4.3c0,2.3-2.1,4.3-6,4.3c-4.7,0-7.3-2.7-7.9-5.8l-10.5,0c0.6,6.5,5.3,14.8,18.5,14.8
		c11.4,0,17.2-7.3,17.2-14.4C252.9,67.9,248.5,62.7,239.9,60.9 M303.1,65.4c0,13.2-8.3,23-20.6,23c-6,0-10.5-2.4-12.6-5.3v21.1
		h-11.8V43.7h11.4v5.4c2-3.4,6.8-6.4,13.4-6.4C295.7,42.7,303.1,52.5,303.1,65.4 M291.5,65.5c0-7.7-4.8-12.2-10.8-12.2
		s-10.9,4.5-10.9,12.2c0,7.7,4.9,12.3,10.9,12.3S291.5,73.3,291.5,65.5 M359.5,43.7h11.4v43.7h-11.8V82c-2,3.5-6.6,6.4-12.6,6.4
		c-12.3,0-20.6-9.8-20.6-23c0-13,7.4-22.7,20.1-22.7c6.6,0,11.3,3,13.4,6.4V43.7z M359.3,65.5c0-7.7-4.9-12.2-10.9-12.2
		s-10.8,4.5-10.8,12.2c0,7.8,4.8,12.3,10.8,12.3S359.3,73.2,359.3,65.5 M308.6,87.3h11.8V24.4h-11.8V87.3z M441,42.5
		c-4.2,0-9,1.4-11.8,4.8l0-22.9h-11.8l0,62.9l11.8,0l0-25.6c0.3-4.8,3.2-8.5,8.2-8.5c5.7,0,8.1,3.8,8.1,8.7l0,25.5l11.8,0l0-27.5
		C457.2,50.2,452.1,42.5,441,42.5 M399,60.9c0,0-4-0.8-6.5-1.3c-2.5-0.5-4-1.8-4-3.9c0-2.5,2.2-4.3,5.3-4.3c4.4,0,6.1,2.2,6.5,4.9
		h10.2c-0.1-6-4.8-13.8-16.5-13.8c-9.4,0-16.3,6.5-16.3,14.3c0,6.1,3.8,11.2,12.2,13l6,1.3c3.4,0.7,4.7,2.3,4.7,4.3
		c0,2.3-2.1,4.3-6,4.3c-4.7,0-7.3-2.7-7.9-5.8l-10.5,0c0.6,6.5,5.3,14.8,18.5,14.8c11.4,0,17.2-7.3,17.2-14.4
		C412,67.9,407.6,62.7,399,60.9 M59.9,0H27.5v24.4h32.3V0z"/>
</g>
</svg>
