<?xml version="1.0" encoding="UTF-8"?><svg id="Calque_1" xmlns="http://www.w3.org/2000/svg" viewBox="0 0 130 149.5"><defs><style>.cls-1{fill:#000091;}.cls-2{fill:#fff;}</style></defs><path class="cls-1" d="M65,3l62.4,35.88V110.62l-62.4,35.88L2.6,110.62V38.88L65,3m0-3L0,37.37V112.13l65,37.37,65-37.37V37.37L65,0h0Z"/><polygon class="cls-1" points="65 8.72 7.58 41.74 7.58 107.76 65 140.78 122.42 107.76 122.42 41.74 65 8.72"/><g><path class="cls-2" d="M55.54,54.27h2.45c1.74,0,2.8,.86,2.8,2.27,0,.68-.31,1.26-.89,1.64,.88,.39,1.37,1.11,1.37,1.98,0,1.53-1.18,2.46-3.1,2.46h-2.63v-8.34Zm1.69,1.41v1.88h.8c.64,0,1.02-.34,1.02-.95s-.38-.93-1.02-.93h-.8Zm0,3.29v2.24h1.04c.79,0,1.26-.42,1.26-1.12s-.48-1.12-1.26-1.12h-1.04Z"/><path class="cls-2" d="M61.87,54.27h6.84v1.54h-2.57v6.81h-1.69v-6.81h-2.57v-1.54Z"/><path class="cls-2" d="M70.5,60.33c.5,.64,1.17,1.03,1.85,1.03s1.07-.36,1.07-.95c0-1.54-3.79-1.12-3.79-3.95,0-1.32,1.1-2.42,2.69-2.42,1.25,0,2.21,.56,2.92,1.41l-1.24,1.12c-.49-.63-1.04-1.05-1.67-1.05-.6,0-.99,.38-.99,.88,0,1.51,3.79,1.09,3.79,3.95-.02,1.57-1.25,2.51-2.78,2.51-1.41,0-2.35-.51-3.09-1.39l1.23-1.13Z"/><path class="cls-2" d="M39.71,76.15l.89,.69c-.76,1.04-1.99,1.72-3.49,1.72-2.61,0-4.39-2.03-4.39-4.41s1.78-4.41,4.39-4.41c1.5,0,2.73,.69,3.49,1.72l-.89,.69c-.56-.81-1.48-1.36-2.6-1.36-1.88,0-3.23,1.5-3.23,3.36s1.35,3.36,3.23,3.36c1.12,0,2.04-.55,2.6-1.36Z"/><path class="cls-2" d="M50.24,74.15c0,2.38-1.78,4.41-4.37,4.41s-4.39-2.03-4.39-4.41,1.78-4.41,4.39-4.41,4.37,2.03,4.37,4.41Zm-1.16,0c0-1.86-1.35-3.36-3.22-3.36s-3.23,1.5-3.23,3.36,1.35,3.36,3.23,3.36,3.22-1.5,3.22-3.36Z"/><path class="cls-2" d="M52.05,69.98h1.47l4.72,6.97v-6.97h1.12v8.34h-1.47l-4.72-6.97v6.97h-1.12v-8.34Z"/><path class="cls-2" d="M60.98,69.98h6.65v1.03h-2.76v7.32h-1.12v-7.32h-2.76v-1.03Z"/><path class="cls-2" d="M69.26,69.98h2.22c1.68,0,2.72,.92,2.72,2.35,0,1-.51,1.75-1.41,2.11l2.69,3.89h-1.32l-2.42-3.67c-.08,.01-.18,.01-.26,.01h-1.1v3.66h-1.12v-8.34Zm1.12,.95v2.78h1.14c.95,0,1.51-.51,1.51-1.41,0-.85-.56-1.37-1.51-1.37h-1.14Z"/><path class="cls-2" d="M84.69,74.15c0,2.38-1.78,4.41-4.37,4.41s-4.39-2.03-4.39-4.41,1.78-4.41,4.39-4.41,4.37,2.03,4.37,4.41Zm-1.16,0c0-1.86-1.35-3.36-3.22-3.36s-3.23,1.5-3.23,3.36,1.35,3.36,3.23,3.36,3.22-1.5,3.22-3.36Zm-5.18-4.89l1.35-1.61h1.25l1.33,1.61h-.92l-1.05-1.1-1.05,1.1h-.92Z"/><path class="cls-2" d="M86.5,69.98h1.12v7.32h3.36v1.03h-4.48v-8.34Z"/><path class="cls-2" d="M92.61,69.98h4.48v.95h-3.36v2.67h2.88v.94h-2.88v2.82h3.36v.95h-4.48v-8.34Zm1.75-.72l1.35-1.61h1.22l-1.53,1.61h-1.04Z"/><path class="cls-2" d="M35.38,85.69h2.44c1.67,0,2.71,.92,2.71,2.35s-1.04,2.34-2.71,2.34h-1.32v3.66h-1.12v-8.34Zm1.12,.95v2.78h1.35c.95,0,1.53-.51,1.53-1.41,0-.85-.57-1.37-1.53-1.37h-1.35Z"/><path class="cls-2" d="M43.55,85.69h1.5l3.33,8.34h-1.19l-.97-2.46h-3.84l-.97,2.46h-1.19l3.33-8.34Zm2.3,4.92l-1.55-3.95-1.55,3.95h3.1Z"/><path class="cls-2" d="M49.91,85.69h2.22c1.68,0,2.72,.92,2.72,2.35,0,1-.51,1.75-1.41,2.11l2.69,3.89h-1.32l-2.42-3.67c-.08,.01-.18,.01-.26,.01h-1.1v3.66h-1.12v-8.34Zm1.12,.95v2.78h1.14c.95,0,1.51-.51,1.51-1.41,0-.85-.56-1.37-1.51-1.37h-1.14Z"/><path class="cls-2" d="M60.52,85.69h1.12v7.32h3.36v1.03h-4.48v-8.34Z"/><path class="cls-2" d="M64.85,88.88l1.01-3.19h1.16l-1.23,3.19h-.94Z"/><path class="cls-2" d="M68.75,85.69h4.48v.95h-3.36v2.67h2.88v.94h-2.88v2.82h3.36v.95h-4.48v-8.34Zm1.75-.72l1.35-1.61h1.22l-1.53,1.61h-1.04Z"/><path class="cls-2" d="M74.53,85.69h6.65v1.03h-2.76v7.32h-1.12v-7.32h-2.76v-1.03Z"/><path class="cls-2" d="M84.37,85.69h1.5l3.33,8.34h-1.19l-.97-2.46h-3.84l-.97,2.46h-1.19l3.33-8.34Zm2.3,4.92l-1.55-3.95-1.55,3.95h3.1Z"/><path class="cls-2" d="M88.98,85.69h6.65v1.03h-2.76v7.32h-1.12v-7.32h-2.76v-1.03Z"/></g></svg>