<?xml version="1.0" encoding="UTF-8"?><svg id="Calque_1" xmlns="http://www.w3.org/2000/svg" viewBox="0 0 130 149.5"><defs><style>.cls-1{fill:#fff;}.cls-1,.cls-2{stroke-width:0px;}.cls-2{fill:#000091;}</style></defs><path class="cls-2" d="m65,3l62.4,35.88v71.74l-62.4,35.88L2.6,110.62V38.88L65,3m0-3L0,37.37v74.75l65,37.37,65-37.37V37.37L65,0h0Z"/><polygon class="cls-2" points="65 8.72 7.58 41.74 7.58 107.76 65 140.78 122.42 107.76 122.42 41.74 65 8.72"/><path class="cls-1" d="m26.47,52.27l1.33,1.03c-.76,1.04-2,1.7-3.52,1.7-2.63,0-4.43-2.03-4.43-4.41s1.8-4.41,4.43-4.41c1.51,0,2.75.68,3.52,1.69l-1.33,1.04c-.48-.68-1.23-1.14-2.18-1.14-1.57,0-2.69,1.23-2.69,2.82s1.12,2.82,2.69,2.82c.95,0,1.7-.46,2.18-1.14Z"/><path class="cls-1" d="m29.27,46.42h4.86v1.41h-3.17v1.98h2.69v1.41h-2.69v2.15h3.17v1.41h-4.86v-8.34Z"/><path class="cls-1" d="m36.1,46.42h2.55c1.84,0,2.97.94,2.97,2.49,0,1.01-.49,1.76-1.35,2.16l2.61,3.69h-1.99l-2.23-3.37h-.87v3.37h-1.69v-8.34Zm1.69,1.41v2.16h.95c.72,0,1.13-.42,1.13-1.1,0-.63-.42-1.06-1.13-1.06h-.95Z"/><path class="cls-1" d="m42.73,46.42h6.84v1.54h-2.57v6.81h-1.69v-6.81h-2.57v-1.54Z"/><path class="cls-1" d="m51.06,46.42h1.69v8.34h-1.69v-8.34Z"/><path class="cls-1" d="m55.09,46.42h4.86v1.41h-3.17v1.98h2.69v1.41h-2.69v3.55h-1.69v-8.34Z"/><path class="cls-1" d="m61.44,46.42h1.69v8.34h-1.69v-8.34Z"/><path class="cls-1" d="m71.36,52.27l1.33,1.03c-.76,1.04-2,1.7-3.52,1.7-2.63,0-4.43-2.03-4.43-4.41s1.8-4.41,4.43-4.41c1.51,0,2.75.68,3.52,1.69l-1.33,1.04c-.48-.68-1.23-1.14-2.18-1.14-1.57,0-2.69,1.23-2.69,2.82s1.12,2.82,2.69,2.82c.95,0,1.7-.46,2.18-1.14Z"/><path class="cls-1" d="m76.21,46.42h2.22l3.16,8.34h-1.8l-.8-2.17h-3.34l-.8,2.17h-1.8l3.16-8.34Zm2.25,4.73l-1.14-3.13-1.14,3.13h2.29Z"/><path class="cls-1" d="m81.18,46.42h6.84v1.54h-2.57v6.81h-1.69v-6.81h-2.57v-1.54Z"/><path class="cls-1" d="m92.61,46.42h3.28c2.65,0,4.43,1.92,4.43,4.17s-1.79,4.17-4.43,4.17h-3.28v-8.34Zm1.69,1.54v5.27h1.61c1.55,0,2.67-1.16,2.67-2.63s-1.12-2.63-2.67-2.63h-1.61Z"/><path class="cls-1" d="m101.95,46.42h4.86v1.41h-3.17v1.98h2.69v1.41h-2.69v2.15h3.17v1.41h-4.86v-8.34Z"/><path class="cls-1" d="m17.47,68.18c.5.64,1.17,1.03,1.85,1.03s1.07-.36,1.07-.95c0-1.54-3.79-1.12-3.79-3.95,0-1.32,1.1-2.42,2.69-2.42,1.25,0,2.21.56,2.92,1.41l-1.24,1.12c-.49-.63-1.04-1.05-1.67-1.05-.6,0-.99.38-.99.88,0,1.51,3.79,1.09,3.79,3.95-.02,1.57-1.25,2.51-2.78,2.51-1.41,0-2.35-.51-3.09-1.39l1.23-1.13Z"/><path class="cls-1" d="m23.88,62.13h2.75c1.84,0,2.96.94,2.96,2.49s-1.12,2.48-2.96,2.48h-1.06v3.37h-1.69v-8.34Zm1.69,1.41v2.16h1.13c.72,0,1.14-.42,1.14-1.1,0-.63-.43-1.06-1.14-1.06h-1.13Z"/><path class="cls-1" d="m30.98,62.13h4.86v1.41h-3.17v1.98h2.69v1.41h-2.69v2.15h3.17v1.41h-4.86v-8.34Zm1.64-.72l1.35-1.61h1.74l-1.55,1.61h-1.54Z"/><path class="cls-1" d="m43.52,67.98l1.33,1.03c-.76,1.04-2,1.7-3.52,1.7-2.63,0-4.43-2.03-4.43-4.41s1.8-4.41,4.43-4.41c1.51,0,2.75.68,3.52,1.69l-1.33,1.04c-.48-.68-1.23-1.14-2.18-1.14-1.57,0-2.69,1.23-2.69,2.82s1.12,2.82,2.69,2.82c.95,0,1.7-.46,2.18-1.14Z"/><path class="cls-1" d="m46.32,62.13h1.69v8.34h-1.69v-8.34Z"/><path class="cls-1" d="m52.46,62.13h2.22l3.16,8.34h-1.8l-.8-2.17h-3.34l-.8,2.17h-1.8l3.16-8.34Zm2.25,4.73l-1.14-3.13-1.14,3.13h2.29Z"/><path class="cls-1" d="m59.12,62.13h1.69v6.81h3.17v1.54h-4.86v-8.34Z"/><path class="cls-1" d="m65.47,62.13h1.69v8.34h-1.69v-8.34Z"/><path class="cls-1" d="m69.97,68.18c.5.64,1.17,1.03,1.85,1.03s1.07-.36,1.07-.95c0-1.54-3.79-1.12-3.79-3.95,0-1.32,1.1-2.42,2.69-2.42,1.25,0,2.21.56,2.92,1.41l-1.24,1.12c-.49-.63-1.04-1.05-1.67-1.05-.6,0-.99.38-.99.88,0,1.51,3.79,1.09,3.79,3.95-.02,1.57-1.25,2.51-2.78,2.51-1.41,0-2.35-.51-3.09-1.39l1.23-1.13Z"/><path class="cls-1" d="m78.45,62.13h2.22l3.16,8.34h-1.8l-.8-2.17h-3.34l-.8,2.17h-1.8l3.16-8.34Zm2.25,4.73l-1.14-3.13-1.14,3.13h2.29Z"/><path class="cls-1" d="m83.42,62.13h6.84v1.54h-2.57v6.81h-1.69v-6.81h-2.57v-1.54Z"/><path class="cls-1" d="m91.75,62.13h1.69v8.34h-1.69v-8.34Z"/><path class="cls-1" d="m103.91,66.3c0,2.38-1.8,4.41-4.42,4.41s-4.43-2.03-4.43-4.41,1.8-4.41,4.43-4.41,4.42,2.03,4.42,4.41Zm-1.74,0c0-1.6-1.12-2.82-2.68-2.82s-2.69,1.23-2.69,2.82,1.12,2.82,2.69,2.82,2.68-1.23,2.68-2.82Z"/><path class="cls-1" d="m105.53,62.13h2.17l3.73,6.03v-6.03h1.69v8.34h-2.17l-3.73-6.03v6.03h-1.69v-8.34Z"/><path class="cls-1" d="m39.71,84.01l.89.69c-.76,1.04-1.99,1.72-3.49,1.72-2.61,0-4.39-2.03-4.39-4.41s1.78-4.41,4.39-4.41c1.5,0,2.73.69,3.49,1.72l-.89.69c-.56-.81-1.48-1.36-2.6-1.36-1.88,0-3.23,1.5-3.23,3.36s1.35,3.36,3.23,3.36c1.12,0,2.04-.55,2.6-1.36Z"/><path class="cls-1" d="m50.24,82.01c0,2.38-1.78,4.41-4.37,4.41s-4.39-2.03-4.39-4.41,1.78-4.41,4.39-4.41,4.37,2.03,4.37,4.41Zm-1.16,0c0-1.86-1.35-3.36-3.22-3.36s-3.23,1.5-3.23,3.36,1.35,3.36,3.23,3.36,3.22-1.5,3.22-3.36Z"/><path class="cls-1" d="m52.05,77.83h1.47l4.72,6.97v-6.97h1.12v8.34h-1.47l-4.72-6.97v6.97h-1.12v-8.34Z"/><path class="cls-1" d="m60.98,77.83h6.65v1.03h-2.76v7.32h-1.12v-7.32h-2.76v-1.03Z"/><path class="cls-1" d="m69.26,77.83h2.22c1.68,0,2.72.92,2.72,2.35,0,1-.51,1.75-1.41,2.11l2.69,3.89h-1.32l-2.42-3.67c-.08.01-.18.01-.26.01h-1.1v3.66h-1.12v-8.34Zm1.12.95v2.78h1.14c.95,0,1.51-.51,1.51-1.41,0-.85-.56-1.37-1.51-1.37h-1.14Z"/><path class="cls-1" d="m84.69,82.01c0,2.38-1.78,4.41-4.37,4.41s-4.39-2.03-4.39-4.41,1.78-4.41,4.39-4.41,4.37,2.03,4.37,4.41Zm-1.16,0c0-1.86-1.35-3.36-3.22-3.36s-3.23,1.5-3.23,3.36,1.35,3.36,3.23,3.36,3.22-1.5,3.22-3.36Zm-5.18-4.89l1.35-1.61h1.25l1.33,1.61h-.92l-1.05-1.1-1.05,1.1h-.92Z"/><path class="cls-1" d="m86.5,77.83h1.12v7.32h3.36v1.03h-4.48v-8.34Z"/><path class="cls-1" d="m92.62,77.83h4.48v.95h-3.36v2.67h2.88v.94h-2.88v2.82h3.36v.95h-4.48v-8.34Zm1.75-.72l1.35-1.61h1.22l-1.53,1.61h-1.04Z"/><path class="cls-1" d="m35.38,93.54h2.44c1.67,0,2.71.92,2.71,2.35s-1.04,2.34-2.71,2.34h-1.32v3.66h-1.12v-8.34Zm1.12.95v2.78h1.35c.95,0,1.53-.51,1.53-1.41,0-.85-.57-1.37-1.53-1.37h-1.35Z"/><path class="cls-1" d="m43.56,93.54h1.5l3.33,8.34h-1.19l-.97-2.46h-3.84l-.97,2.46h-1.19l3.33-8.34Zm2.3,4.92l-1.55-3.95-1.55,3.95h3.1Z"/><path class="cls-1" d="m49.91,93.54h2.22c1.68,0,2.72.92,2.72,2.35,0,1-.51,1.75-1.41,2.11l2.69,3.89h-1.32l-2.42-3.67c-.08.01-.18.01-.26.01h-1.1v3.66h-1.12v-8.34Zm1.12.95v2.78h1.14c.95,0,1.51-.51,1.51-1.41,0-.85-.56-1.37-1.51-1.37h-1.14Z"/><path class="cls-1" d="m60.52,93.54h1.12v7.32h3.36v1.03h-4.48v-8.34Z"/><path class="cls-1" d="m64.85,96.74l1.01-3.19h1.16l-1.23,3.19h-.94Z"/><path class="cls-1" d="m68.75,93.54h4.48v.95h-3.36v2.67h2.88v.94h-2.88v2.82h3.36v.95h-4.48v-8.34Zm1.75-.72l1.35-1.61h1.22l-1.53,1.61h-1.04Z"/><path class="cls-1" d="m74.53,93.54h6.65v1.03h-2.76v7.32h-1.12v-7.32h-2.76v-1.03Z"/><path class="cls-1" d="m84.37,93.54h1.5l3.33,8.34h-1.19l-.97-2.46h-3.84l-.97,2.46h-1.19l3.33-8.34Zm2.3,4.92l-1.55-3.95-1.55,3.95h3.1Z"/><path class="cls-1" d="m88.98,93.54h6.65v1.03h-2.76v7.32h-1.12v-7.32h-2.76v-1.03Z"/></svg>