<?xml version="1.0" encoding="UTF-8"?><svg id="Calque_1" xmlns="http://www.w3.org/2000/svg" viewBox="0 0 130 130"><defs><style>.cls-1{fill:#000091;}.cls-2{fill:#fff;}</style></defs><g><polygon class="cls-2" points="18.52 111.48 1.5 47.99 47.99 1.51 111.48 18.52 128.5 82.01 82.01 128.5 18.52 111.48"/><path class="cls-1" d="M48.39,3.01l61.99,16.61,16.61,61.99-45.38,45.38-61.99-16.61L3.01,48.39,48.39,3.01m-.81-3.01L0,47.58,17.42,112.58l65,17.42,47.58-47.58L112.58,17.42,47.58,0h0Z"/></g><g><path class="cls-1" d="M32.98,43.16h3.28c2.65,0,4.43,1.92,4.43,4.17s-1.79,4.17-4.43,4.17h-3.28v-8.34Zm1.69,1.54v5.27h1.61c1.55,0,2.67-1.16,2.67-2.63s-1.12-2.63-2.67-2.63h-1.61Z"/><path class="cls-1" d="M42.32,43.16h1.69v8.34h-1.69v-8.34Z"/><path class="cls-1" d="M46.35,43.16h2.75c1.84,0,2.96,.94,2.96,2.49s-1.12,2.48-2.96,2.48h-1.06v3.37h-1.69v-8.34Zm1.69,1.41v2.16h1.13c.72,0,1.14-.42,1.14-1.1,0-.63-.43-1.06-1.14-1.06h-1.13Z"/><path class="cls-1" d="M53.45,43.16h1.69v6.81h3.17v1.54h-4.86v-8.34Z"/><path class="cls-1" d="M67.64,47.33c0,2.38-1.8,4.41-4.42,4.41s-4.43-2.03-4.43-4.41,1.8-4.41,4.43-4.41,4.42,2.03,4.42,4.41Zm-1.74,0c0-1.6-1.12-2.82-2.68-2.82s-2.69,1.23-2.69,2.82,1.12,2.82,2.69,2.82,2.68-1.23,2.68-2.82Zm-4.9-4.89l1.36-1.61h1.73l1.34,1.61h-1.32l-.88-.92-.88,.92h-1.33Z"/><path class="cls-1" d="M69.26,43.16h2.11l2.04,3.5,2.04-3.5h2.11v8.34h-1.69v-5.98l-1.86,3.12h-1.19l-1.86-3.12v5.98h-1.69v-8.34Z"/><path class="cls-1" d="M79.88,43.16h4.86v1.41h-3.17v1.98h2.69v1.41h-2.69v2.15h3.17v1.41h-4.86v-8.34Z"/><path class="cls-1" d="M89.81,43.16h3.28c2.65,0,4.43,1.92,4.43,4.17s-1.79,4.17-4.43,4.17h-3.28v-8.34Zm1.69,1.54v5.27h1.61c1.55,0,2.67-1.16,2.67-2.63s-1.12-2.63-2.67-2.63h-1.61Z"/><path class="cls-1" d="M99.15,43.16h4.86v1.41h-3.17v1.98h2.69v1.41h-2.69v2.15h3.17v1.41h-4.86v-8.34Z"/><path class="cls-1" d="M20.72,64.92c.5,.64,1.17,1.03,1.85,1.03s1.07-.36,1.07-.95c0-1.54-3.79-1.12-3.79-3.95,0-1.32,1.1-2.42,2.69-2.42,1.25,0,2.21,.56,2.92,1.41l-1.24,1.12c-.49-.63-1.04-1.05-1.67-1.05-.6,0-.99,.38-.99,.88,0,1.51,3.79,1.09,3.79,3.95-.02,1.57-1.25,2.51-2.78,2.51-1.41,0-2.35-.51-3.09-1.39l1.23-1.13Z"/><path class="cls-1" d="M27.13,58.87h2.75c1.84,0,2.96,.94,2.96,2.49s-1.12,2.48-2.96,2.48h-1.06v3.37h-1.69v-8.34Zm1.69,1.41v2.16h1.13c.72,0,1.14-.42,1.14-1.1,0-.63-.43-1.06-1.14-1.06h-1.13Z"/><path class="cls-1" d="M34.23,58.87h4.86v1.41h-3.17v1.98h2.69v1.41h-2.69v2.15h3.17v1.41h-4.86v-8.34Zm1.64-.72l1.35-1.61h1.74l-1.55,1.61h-1.54Z"/><path class="cls-1" d="M46.77,64.72l1.33,1.03c-.76,1.04-2,1.7-3.52,1.7-2.63,0-4.43-2.03-4.43-4.41s1.8-4.41,4.43-4.41c1.51,0,2.75,.68,3.52,1.69l-1.33,1.04c-.48-.68-1.23-1.14-2.18-1.14-1.57,0-2.69,1.23-2.69,2.82s1.12,2.82,2.69,2.82c.95,0,1.7-.46,2.18-1.14Z"/><path class="cls-1" d="M49.57,58.87h1.69v8.34h-1.69v-8.34Z"/><path class="cls-1" d="M55.71,58.87h2.22l3.16,8.34h-1.8l-.8-2.17h-3.34l-.8,2.17h-1.8l3.16-8.34Zm2.25,4.73l-1.14-3.13-1.14,3.13h2.29Z"/><path class="cls-1" d="M62.37,58.87h1.69v6.81h3.17v1.54h-4.86v-8.34Z"/><path class="cls-1" d="M68.72,58.87h1.69v8.34h-1.69v-8.34Z"/><path class="cls-1" d="M73.22,64.92c.5,.64,1.17,1.03,1.85,1.03s1.07-.36,1.07-.95c0-1.54-3.79-1.12-3.79-3.95,0-1.32,1.1-2.42,2.69-2.42,1.25,0,2.21,.56,2.92,1.41l-1.24,1.12c-.49-.63-1.04-1.05-1.67-1.05-.6,0-.99,.38-.99,.88,0,1.51,3.79,1.09,3.79,3.95-.02,1.57-1.25,2.51-2.78,2.51-1.41,0-2.35-.51-3.09-1.39l1.23-1.13Z"/><path class="cls-1" d="M81.7,58.87h2.22l3.16,8.34h-1.8l-.8-2.17h-3.34l-.8,2.17h-1.8l3.16-8.34Zm2.25,4.73l-1.14-3.13-1.14,3.13h2.29Z"/><path class="cls-1" d="M86.67,58.87h6.84v1.54h-2.57v6.81h-1.69v-6.81h-2.57v-1.54Z"/><path class="cls-1" d="M95,58.87h1.69v8.34h-1.69v-8.34Z"/><path class="cls-1" d="M107.16,63.04c0,2.38-1.8,4.41-4.42,4.41s-4.43-2.03-4.43-4.41,1.8-4.41,4.43-4.41,4.42,2.03,4.42,4.41Zm-1.74,0c0-1.6-1.12-2.82-2.68-2.82s-2.69,1.23-2.69,2.82,1.12,2.82,2.69,2.82,2.68-1.23,2.68-2.82Z"/><path class="cls-1" d="M108.78,58.87h2.17l3.73,6.03v-6.03h1.69v8.34h-2.17l-3.73-6.03v6.03h-1.69v-8.34Z"/><path class="cls-1" d="M14.98,74.58h2.75c1.84,0,2.96,.94,2.96,2.49s-1.12,2.48-2.96,2.48h-1.06v3.37h-1.69v-8.34Zm1.69,1.41v2.16h1.13c.71,0,1.14-.42,1.14-1.1,0-.63-.43-1.06-1.14-1.06h-1.13Z"/><path class="cls-1" d="M21.9,74.58h2.55c1.84,0,2.97,.94,2.97,2.49,0,1.01-.49,1.76-1.35,2.16l2.61,3.69h-1.99l-2.23-3.37h-.87v3.37h-1.69v-8.34Zm1.69,1.41v2.16h.95c.72,0,1.13-.42,1.13-1.1,0-.63-.42-1.06-1.13-1.06h-.95Z"/><path class="cls-1" d="M37.63,78.75c0,2.38-1.8,4.41-4.42,4.41s-4.43-2.03-4.43-4.41,1.8-4.41,4.43-4.41,4.42,2.03,4.42,4.41Zm-1.74,0c0-1.6-1.12-2.82-2.68-2.82s-2.69,1.23-2.69,2.82,1.12,2.82,2.69,2.82,2.68-1.23,2.68-2.82Z"/><path class="cls-1" d="M39.07,74.58h4.86v1.41h-3.17v1.98h2.69v1.41h-2.69v3.55h-1.69v-8.34Z"/><path class="cls-1" d="M45.24,74.58h4.86v1.41h-3.17v1.98h2.69v1.41h-2.69v2.15h3.17v1.41h-4.86v-8.34Z"/><path class="cls-1" d="M52.37,80.63c.5,.64,1.17,1.03,1.85,1.03s1.07-.36,1.07-.95c0-1.54-3.79-1.12-3.79-3.95,0-1.32,1.1-2.42,2.69-2.42,1.25,0,2.21,.56,2.92,1.41l-1.24,1.12c-.49-.63-1.04-1.05-1.67-1.05-.6,0-.99,.38-.99,.88,0,1.51,3.79,1.09,3.79,3.95-.02,1.57-1.25,2.51-2.78,2.51-1.41,0-2.35-.51-3.09-1.39l1.23-1.13Z"/><path class="cls-1" d="M59,80.63c.5,.64,1.17,1.03,1.85,1.03s1.07-.36,1.07-.95c0-1.54-3.79-1.12-3.79-3.95,0-1.32,1.1-2.42,2.69-2.42,1.25,0,2.21,.56,2.92,1.41l-1.24,1.12c-.49-.63-1.04-1.05-1.67-1.05-.6,0-.99,.38-.99,.88,0,1.51,3.79,1.09,3.79,3.95-.02,1.57-1.25,2.51-2.78,2.51-1.41,0-2.35-.51-3.09-1.39l1.23-1.13Z"/><path class="cls-1" d="M65.23,74.58h1.69v8.34h-1.69v-8.34Z"/><path class="cls-1" d="M77.22,78.75c0,2.38-1.8,4.41-4.42,4.41s-4.43-2.03-4.43-4.41,1.8-4.41,4.43-4.41,4.42,2.03,4.42,4.41Zm-1.74,0c0-1.6-1.12-2.82-2.68-2.82s-2.69,1.23-2.69,2.82,1.12,2.82,2.69,2.82,2.68-1.23,2.68-2.82Z"/><path class="cls-1" d="M78.66,74.58h2.17l3.73,6.03v-6.03h1.69v8.34h-2.17l-3.73-6.03v6.03h-1.69v-8.34Z"/><path class="cls-1" d="M88.41,74.58h2.17l3.73,6.03v-6.03h1.69v8.34h-2.17l-3.73-6.03v6.03h-1.69v-8.34Z"/><path class="cls-1" d="M98.15,74.58h4.86v1.41h-3.17v1.98h2.69v1.41h-2.69v2.15h3.17v1.41h-4.86v-8.34Z"/><path class="cls-1" d="M104.8,74.58h1.69v6.81h3.17v1.54h-4.86v-8.34Z"/><path class="cls-1" d="M110.98,74.58h1.69v6.81h3.17v1.54h-4.86v-8.34Z"/><path class="cls-1" d="M117.15,74.58h4.86v1.41h-3.17v1.98h2.69v1.41h-2.69v2.15h3.17v1.41h-4.86v-8.34Z"/></g></svg>