<?xml version="1.0" encoding="UTF-8"?><svg id="Calque_1" xmlns="http://www.w3.org/2000/svg" viewBox="0 0 130 149.5"><defs><style>.cls-1{fill:#000091;}.cls-2{fill:#fff;}</style></defs><path class="cls-1" d="M65,3l62.4,35.88V110.62l-62.4,35.88L2.6,110.62V38.88L65,3m0-3L0,37.37V112.13l65,37.37,65-37.37V37.37L65,0h0Z"/><polygon class="cls-1" points="65 8.72 7.58 41.74 7.58 107.76 65 140.78 122.42 107.76 122.42 41.74 65 8.72"/><g><path class="cls-2" d="M39.36,30.98h3.28c2.65,0,4.43,1.92,4.43,4.17s-1.79,4.17-4.43,4.17h-3.28v-8.34Zm1.69,1.54v5.27h1.61c1.55,0,2.67-1.16,2.67-2.63s-1.12-2.63-2.67-2.63h-1.61Z"/><path class="cls-2" d="M48.7,30.98h1.69v8.34h-1.69v-8.34Z"/><path class="cls-2" d="M52.73,30.98h2.75c1.84,0,2.96,.94,2.96,2.49s-1.12,2.48-2.96,2.48h-1.06v3.37h-1.69v-8.34Zm1.69,1.41v2.16h1.13c.72,0,1.14-.42,1.14-1.1,0-.63-.43-1.06-1.14-1.06h-1.13Z"/><path class="cls-2" d="M59.83,30.98h1.69v6.81h3.17v1.54h-4.86v-8.34Z"/><path class="cls-2" d="M74.03,35.15c0,2.38-1.8,4.41-4.42,4.41s-4.43-2.03-4.43-4.41,1.8-4.41,4.43-4.41,4.42,2.03,4.42,4.41Zm-1.74,0c0-1.6-1.12-2.82-2.68-2.82s-2.69,1.23-2.69,2.82,1.12,2.82,2.69,2.82,2.68-1.23,2.68-2.82Zm-4.9-4.89l1.36-1.61h1.73l1.34,1.61h-1.32l-.88-.92-.88,.92h-1.33Z"/><path class="cls-2" d="M75.65,30.98h2.11l2.04,3.5,2.04-3.5h2.11v8.34h-1.69v-5.98l-1.86,3.12h-1.19l-1.86-3.12v5.98h-1.69v-8.34Z"/><path class="cls-2" d="M86.26,30.98h4.86v1.41h-3.17v1.98h2.69v1.41h-2.69v2.15h3.17v1.41h-4.86v-8.34Z"/><path class="cls-2" d="M34.18,52.54l1.33,1.03c-.76,1.04-2,1.7-3.52,1.7-2.63,0-4.43-2.03-4.43-4.41s1.8-4.41,4.43-4.41c1.51,0,2.75,.68,3.52,1.69l-1.33,1.04c-.48-.68-1.23-1.14-2.18-1.14-1.57,0-2.69,1.23-2.69,2.82s1.12,2.82,2.69,2.82c.95,0,1.7-.46,2.18-1.14Z"/><path class="cls-2" d="M45.07,50.86c0,2.38-1.8,4.41-4.42,4.41s-4.43-2.03-4.43-4.41,1.8-4.41,4.43-4.41,4.42,2.03,4.42,4.41Zm-1.74,0c0-1.6-1.12-2.82-2.68-2.82s-2.69,1.23-2.69,2.82,1.12,2.82,2.69,2.82,2.68-1.23,2.68-2.82Z"/><path class="cls-2" d="M46.68,46.68h2.17l3.73,6.03v-6.03h1.69v8.34h-2.17l-3.73-6.03v6.03h-1.69v-8.34Z"/><path class="cls-2" d="M56.61,46.68h4.86v1.41h-3.17v1.98h2.69v1.41h-2.69v3.55h-1.69v-8.34Z"/><path class="cls-2" d="M62.96,46.68h4.86v1.41h-3.17v1.98h2.69v1.41h-2.69v2.15h3.17v1.41h-4.86v-8.34Zm1.64-.72l1.35-1.61h1.74l-1.55,1.61h-1.54Z"/><path class="cls-2" d="M69.79,46.68h2.55c1.84,0,2.97,.94,2.97,2.49,0,1.01-.49,1.76-1.35,2.16l2.61,3.69h-1.99l-2.23-3.37h-.87v3.37h-1.69v-8.34Zm1.69,1.41v2.16h.95c.72,0,1.13-.42,1.13-1.1,0-.63-.42-1.06-1.13-1.06h-.95Z"/><path class="cls-2" d="M80.11,46.68h2.22l3.16,8.34h-1.8l-.8-2.17h-3.34l-.8,2.17h-1.8l3.16-8.34Zm2.25,4.73l-1.14-3.13-1.14,3.13h2.29Z"/><path class="cls-2" d="M86.77,46.68h2.17l3.73,6.03v-6.03h1.69v8.34h-2.17l-3.73-6.03v6.03h-1.69v-8.34Z"/><path class="cls-2" d="M95.84,46.68h6.84v1.54h-2.57v6.81h-1.69v-6.81h-2.57v-1.54Z"/><path class="cls-2" d="M41.12,68.66v-1.45h-2.12v-1.44h3.81v3.5c-.77,1.04-2.07,1.7-3.64,1.7-2.71,0-4.55-2.03-4.55-4.41s1.8-4.41,4.43-4.41c1.51,0,2.75,.68,3.52,1.69l-1.33,1.04c-.48-.68-1.23-1.14-2.18-1.14-1.57,0-2.69,1.23-2.69,2.82s1.18,2.82,2.81,2.82c.79,0,1.47-.27,1.94-.73Z"/><path class="cls-2" d="M44.69,62.39h2.55c1.84,0,2.97,.94,2.97,2.49,0,1.01-.49,1.76-1.35,2.16l2.61,3.69h-1.99l-2.23-3.37h-.87v3.37h-1.69v-8.34Zm1.69,1.41v2.16h.95c.72,0,1.13-.42,1.13-1.1,0-.63-.42-1.06-1.13-1.06h-.95Z"/><path class="cls-2" d="M55.01,62.39h2.22l3.16,8.34h-1.8l-.8-2.17h-3.34l-.8,2.17h-1.8l3.16-8.34Zm2.25,4.73l-1.14-3.13-1.14,3.13h2.29Z"/><path class="cls-2" d="M61.68,62.39h3.28c2.65,0,4.43,1.92,4.43,4.17s-1.79,4.17-4.43,4.17h-3.28v-8.34Zm1.69,1.54v5.27h1.61c1.55,0,2.67-1.16,2.67-2.63s-1.12-2.63-2.67-2.63h-1.61Z"/><path class="cls-2" d="M71.02,62.39h4.86v1.41h-3.17v1.98h2.69v1.41h-2.69v2.15h3.17v1.41h-4.86v-8.34Z"/><path class="cls-2" d="M80.94,62.39h3.28c2.65,0,4.43,1.92,4.43,4.17s-1.79,4.17-4.43,4.17h-3.28v-8.34Zm1.69,1.54v5.27h1.61c1.55,0,2.67-1.16,2.67-2.63s-1.12-2.63-2.67-2.63h-1.61Z"/><path class="cls-2" d="M90.29,62.39h4.86v1.41h-3.17v1.98h2.69v1.41h-2.69v2.15h3.17v1.41h-4.86v-8.34Z"/><path class="cls-2" d="M42.05,78.1h2.11l2.04,3.5,2.04-3.5h2.11v8.34h-1.69v-5.98l-1.86,3.12h-1.19l-1.86-3.12v5.98h-1.69v-8.34Z"/><path class="cls-2" d="M54.78,78.1h2.22l3.16,8.34h-1.8l-.8-2.17h-3.34l-.8,2.17h-1.8l3.16-8.34Zm2.25,4.73l-1.14-3.13-1.14,3.13h2.29Z"/><path class="cls-2" d="M61.9,84.16c.5,.64,1.17,1.03,1.85,1.03s1.07-.36,1.07-.95c0-1.54-3.79-1.12-3.79-3.95,0-1.32,1.1-2.42,2.69-2.42,1.25,0,2.21,.56,2.92,1.41l-1.24,1.12c-.49-.63-1.04-1.05-1.67-1.05-.6,0-.99,.38-.99,.88,0,1.51,3.79,1.09,3.79,3.95-.02,1.57-1.25,2.51-2.78,2.51-1.41,0-2.35-.51-3.09-1.39l1.23-1.13Z"/><path class="cls-2" d="M67.39,78.1h6.84v1.54h-2.57v6.81h-1.69v-6.81h-2.57v-1.54Z"/><path class="cls-2" d="M75.72,78.1h4.86v1.41h-3.17v1.98h2.69v1.41h-2.69v2.15h3.17v1.41h-4.86v-8.34Z"/><path class="cls-2" d="M82.55,78.1h2.55c1.84,0,2.97,.94,2.97,2.49,0,1.01-.49,1.76-1.35,2.16l2.61,3.69h-1.99l-2.23-3.37h-.87v3.37h-1.69v-8.34Zm1.69,1.41v2.16h.95c.72,0,1.13-.42,1.13-1.1,0-.63-.42-1.06-1.13-1.06h-.95Z"/><path class="cls-2" d="M39.71,99.98l.89,.69c-.76,1.04-1.99,1.72-3.49,1.72-2.61,0-4.39-2.03-4.39-4.41s1.78-4.41,4.39-4.41c1.5,0,2.73,.69,3.49,1.72l-.89,.69c-.56-.81-1.48-1.36-2.6-1.36-1.88,0-3.23,1.5-3.23,3.36s1.35,3.36,3.23,3.36c1.12,0,2.04-.55,2.6-1.36Z"/><path class="cls-2" d="M50.24,97.98c0,2.38-1.78,4.41-4.37,4.41s-4.39-2.03-4.39-4.41,1.78-4.41,4.39-4.41,4.37,2.03,4.37,4.41Zm-1.16,0c0-1.86-1.35-3.36-3.22-3.36s-3.23,1.5-3.23,3.36,1.35,3.36,3.23,3.36,3.22-1.5,3.22-3.36Z"/><path class="cls-2" d="M52.05,93.81h1.47l4.72,6.97v-6.97h1.12v8.34h-1.47l-4.72-6.97v6.97h-1.12v-8.34Z"/><path class="cls-2" d="M60.98,93.81h6.65v1.03h-2.76v7.32h-1.12v-7.32h-2.76v-1.03Z"/><path class="cls-2" d="M69.26,93.81h2.22c1.68,0,2.72,.92,2.72,2.35,0,1-.51,1.75-1.41,2.11l2.69,3.89h-1.32l-2.42-3.67c-.08,.01-.18,.01-.26,.01h-1.1v3.66h-1.12v-8.34Zm1.12,.95v2.78h1.14c.95,0,1.51-.51,1.51-1.41,0-.85-.56-1.37-1.51-1.37h-1.14Z"/><path class="cls-2" d="M84.69,97.98c0,2.38-1.78,4.41-4.37,4.41s-4.39-2.03-4.39-4.41,1.78-4.41,4.39-4.41,4.37,2.03,4.37,4.41Zm-1.16,0c0-1.86-1.35-3.36-3.22-3.36s-3.23,1.5-3.23,3.36,1.35,3.36,3.23,3.36,3.22-1.5,3.22-3.36Zm-5.18-4.89l1.35-1.61h1.25l1.33,1.61h-.92l-1.05-1.1-1.05,1.1h-.92Z"/><path class="cls-2" d="M86.5,93.81h1.12v7.32h3.36v1.03h-4.48v-8.34Z"/><path class="cls-2" d="M92.62,93.81h4.48v.95h-3.36v2.67h2.88v.94h-2.88v2.82h3.36v.95h-4.48v-8.34Zm1.75-.72l1.35-1.61h1.22l-1.53,1.61h-1.04Z"/><path class="cls-2" d="M35.38,109.52h2.44c1.67,0,2.71,.92,2.71,2.35s-1.04,2.34-2.71,2.34h-1.32v3.66h-1.12v-8.34Zm1.12,.95v2.78h1.35c.95,0,1.53-.51,1.53-1.41,0-.85-.57-1.37-1.53-1.37h-1.35Z"/><path class="cls-2" d="M43.56,109.52h1.5l3.33,8.34h-1.19l-.97-2.46h-3.84l-.97,2.46h-1.19l3.33-8.34Zm2.3,4.92l-1.55-3.95-1.55,3.95h3.1Z"/><path class="cls-2" d="M49.91,109.52h2.22c1.68,0,2.72,.92,2.72,2.35,0,1-.51,1.75-1.41,2.11l2.69,3.89h-1.32l-2.42-3.67c-.08,.01-.18,.01-.26,.01h-1.1v3.66h-1.12v-8.34Zm1.12,.95v2.78h1.14c.95,0,1.51-.51,1.51-1.41,0-.85-.56-1.37-1.51-1.37h-1.14Z"/><path class="cls-2" d="M60.52,109.52h1.12v7.32h3.36v1.03h-4.48v-8.34Z"/><path class="cls-2" d="M64.85,112.71l1.01-3.19h1.16l-1.23,3.19h-.94Z"/><path class="cls-2" d="M68.75,109.52h4.48v.95h-3.36v2.67h2.88v.94h-2.88v2.82h3.36v.95h-4.48v-8.34Zm1.75-.72l1.35-1.61h1.22l-1.53,1.61h-1.04Z"/><path class="cls-2" d="M74.53,109.52h6.65v1.03h-2.76v7.32h-1.12v-7.32h-2.76v-1.03Z"/><path class="cls-2" d="M84.37,109.52h1.5l3.33,8.34h-1.19l-.97-2.46h-3.84l-.97,2.46h-1.19l3.33-8.34Zm2.3,4.92l-1.55-3.95-1.55,3.95h3.1Z"/><path class="cls-2" d="M88.98,109.52h6.65v1.03h-2.76v7.32h-1.12v-7.32h-2.76v-1.03Z"/></g></svg>