<?xml version="1.0" encoding="UTF-8"?><svg id="Calque_1" xmlns="http://www.w3.org/2000/svg" viewBox="0 0 130 130"><defs><style>.cls-1{fill:#000091;}.cls-2{fill:#fff;}</style></defs><g><polygon class="cls-2" points="18.52 111.48 1.5 47.99 47.99 1.51 111.48 18.52 128.5 82.01 82.01 128.5 18.52 111.48"/><path class="cls-1" d="M48.39,3.01l61.99,16.61,16.61,61.99-45.38,45.38-61.99-16.61L3.01,48.39,48.39,3.01m-.81-3.01L0,47.58,17.42,112.58l65,17.42,47.58-47.58L112.58,17.42,47.58,0h0Z"/></g><g><path class="cls-1" d="M39.36,44.78h3.28c2.65,0,4.43,1.92,4.43,4.17s-1.79,4.17-4.43,4.17h-3.28v-8.34Zm1.69,1.54v5.27h1.61c1.55,0,2.67-1.16,2.67-2.63s-1.12-2.63-2.67-2.63h-1.61Z"/><path class="cls-1" d="M48.7,44.78h1.69v8.34h-1.69v-8.34Z"/><path class="cls-1" d="M52.73,44.78h2.75c1.84,0,2.96,.94,2.96,2.49s-1.12,2.48-2.96,2.48h-1.06v3.37h-1.69v-8.34Zm1.69,1.41v2.16h1.13c.72,0,1.14-.42,1.14-1.1,0-.63-.43-1.06-1.14-1.06h-1.13Z"/><path class="cls-1" d="M59.83,44.78h1.69v6.81h3.17v1.54h-4.86v-8.34Z"/><path class="cls-1" d="M74.03,48.96c0,2.38-1.8,4.41-4.42,4.41s-4.43-2.03-4.43-4.41,1.8-4.41,4.43-4.41,4.42,2.03,4.42,4.41Zm-1.74,0c0-1.6-1.12-2.82-2.68-2.82s-2.69,1.23-2.69,2.82,1.12,2.82,2.69,2.82,2.68-1.23,2.68-2.82Zm-4.9-4.89l1.36-1.61h1.73l1.34,1.61h-1.32l-.88-.92-.88,.92h-1.33Z"/><path class="cls-1" d="M75.65,44.78h2.11l2.04,3.5,2.04-3.5h2.11v8.34h-1.69v-5.98l-1.86,3.12h-1.19l-1.86-3.12v5.98h-1.69v-8.34Z"/><path class="cls-1" d="M86.26,44.78h4.86v1.41h-3.17v1.98h2.69v1.41h-2.69v2.15h3.17v1.41h-4.86v-8.34Z"/><path class="cls-1" d="M36.11,60.49h1.69v6.81h3.17v1.54h-4.86v-8.34Z"/><path class="cls-1" d="M44.93,60.49h2.22l3.16,8.34h-1.8l-.8-2.17h-3.34l-.8,2.17h-1.8l3.16-8.34Zm2.25,4.73l-1.14-3.13-1.14,3.13h2.29Z"/><path class="cls-1" d="M51.59,60.49h2.45c1.74,0,2.8,.86,2.8,2.27,0,.68-.31,1.26-.89,1.64,.88,.39,1.37,1.11,1.37,1.98,0,1.53-1.18,2.46-3.1,2.46h-2.63v-8.34Zm1.69,1.41v1.88h.8c.64,0,1.02-.34,1.02-.95s-.38-.93-1.02-.93h-.8Zm0,3.29v2.24h1.04c.79,0,1.26-.42,1.26-1.12s-.48-1.12-1.26-1.12h-1.04Z"/><path class="cls-1" d="M59.06,60.49h4.86v1.41h-3.17v1.98h2.69v1.41h-2.69v2.15h3.17v1.41h-4.86v-8.34Z"/><path class="cls-1" d="M65.89,60.49h1.69v6.81h3.17v1.54h-4.86v-8.34Z"/><path class="cls-1" d="M72.24,60.49h1.69v6.81h3.17v1.54h-4.86v-8.34Z"/><path class="cls-1" d="M78.6,60.49h1.69v8.34h-1.69v-8.34Z"/><path class="cls-1" d="M83.1,66.55c.5,.64,1.17,1.03,1.85,1.03s1.07-.36,1.07-.95c0-1.54-3.79-1.12-3.79-3.95,0-1.32,1.1-2.42,2.69-2.42,1.25,0,2.21,.56,2.92,1.41l-1.24,1.12c-.49-.63-1.04-1.05-1.67-1.05-.6,0-.99,.38-.99,.88,0,1.51,3.79,1.09,3.79,3.95-.02,1.57-1.25,2.51-2.78,2.51-1.41,0-2.35-.51-3.09-1.39l1.23-1.13Z"/><path class="cls-1" d="M89.51,60.49h4.86v1.41h-3.17v1.98h2.69v1.41h-2.69v2.15h3.17v1.41h-4.86v-8.34Zm1.64-.72l1.35-1.61h1.74l-1.55,1.61h-1.54Z"/><path class="cls-1" d="M46.52,76.2h2.75c1.84,0,2.96,.94,2.96,2.49s-1.12,2.48-2.96,2.48h-1.06v3.37h-1.69v-8.34Zm1.69,1.41v2.16h1.13c.71,0,1.14-.42,1.14-1.1,0-.63-.43-1.06-1.14-1.06h-1.13Z"/><path class="cls-1" d="M55.02,76.2h2.22l3.16,8.34h-1.8l-.8-2.17h-3.34l-.8,2.17h-1.8l3.16-8.34Zm2.25,4.73l-1.14-3.13-1.14,3.13h2.29Z"/><path class="cls-1" d="M61.68,76.2h2.55c1.84,0,2.97,.94,2.97,2.49,0,1.01-.49,1.76-1.35,2.16l2.61,3.69h-1.99l-2.23-3.37h-.87v3.37h-1.69v-8.34Zm1.69,1.41v2.16h.95c.72,0,1.13-.42,1.13-1.1,0-.63-.42-1.06-1.13-1.06h-.95Z"/><path class="cls-1" d="M69.53,76.2h4.86v1.41h-3.17v1.98h2.69v1.41h-2.69v2.15h3.17v1.41h-4.86v-8.34Zm1.64-.72l1.35-1.61h1.74l-1.55,1.61h-1.54Z"/><path class="cls-1" d="M84.31,80.37c0,2.38-1.8,4.41-4.42,4.41s-4.43-2.03-4.43-4.41,1.8-4.41,4.43-4.41,4.42,2.03,4.42,4.41Zm-1.74,0c0-1.6-1.12-2.82-2.68-2.82s-2.69,1.23-2.69,2.82,1.12,2.82,2.69,2.82,2.68-1.23,2.68-2.82Z"/></g></svg>