<?xml version="1.0" encoding="UTF-8"?><svg id="Calque_1" xmlns="http://www.w3.org/2000/svg" viewBox="0 0 130 130"><defs><style>.cls-1{fill:#000091;}.cls-2{fill:#fff;}</style></defs><g><polygon class="cls-2" points="18.52 111.48 1.5 47.99 47.99 1.51 111.48 18.52 128.5 82.01 82.01 128.5 18.52 111.48"/><path class="cls-1" d="M48.39,3.01l61.99,16.61,16.61,61.99-45.38,45.38-61.99-16.61L3.01,48.39,48.39,3.01m-.81-3.01L0,47.58,17.42,112.58l65,17.42,47.58-47.58L112.58,17.42,47.58,0h0Z"/></g><g><path class="cls-1" d="M33.85,36.66h2.75c1.84,0,2.96,.94,2.96,2.49s-1.12,2.48-2.96,2.48h-1.06v3.37h-1.69v-8.34Zm1.69,1.41v2.16h1.13c.72,0,1.14-.42,1.14-1.1,0-.63-.43-1.06-1.14-1.06h-1.13Z"/><path class="cls-1" d="M42.35,36.66h2.22l3.16,8.34h-1.8l-.8-2.17h-3.34l-.8,2.17h-1.8l3.16-8.34Zm2.25,4.73l-1.14-3.13-1.14,3.13h2.29Z"/><path class="cls-1" d="M49.01,36.66h2.55c1.84,0,2.97,.94,2.97,2.49,0,1.01-.49,1.76-1.35,2.16l2.61,3.69h-1.99l-2.23-3.37h-.87v3.37h-1.69v-8.34Zm1.69,1.41v2.16h.95c.72,0,1.13-.42,1.13-1.1,0-.63-.42-1.06-1.13-1.06h-.95Z"/><path class="cls-1" d="M62.68,42.51l1.33,1.03c-.76,1.04-2,1.7-3.52,1.7-2.63,0-4.43-2.03-4.43-4.41s1.8-4.41,4.43-4.41c1.51,0,2.75,.68,3.52,1.69l-1.33,1.04c-.48-.68-1.23-1.14-2.18-1.14-1.57,0-2.69,1.23-2.69,2.82s1.12,2.82,2.69,2.82c.95,0,1.7-.46,2.18-1.14Z"/><path class="cls-1" d="M73.56,40.83c0,2.38-1.8,4.41-4.42,4.41s-4.43-2.03-4.43-4.41,1.8-4.41,4.43-4.41,4.42,2.03,4.42,4.41Zm-1.74,0c0-1.6-1.12-2.82-2.68-2.82s-2.69,1.23-2.69,2.82,1.12,2.82,2.69,2.82,2.68-1.23,2.68-2.82Z"/><path class="cls-1" d="M80.1,36.66h1.69v5.08c0,2.19-1.29,3.5-3.38,3.5s-3.37-1.31-3.37-3.5v-5.08h1.69v5.22c0,1.12,.63,1.78,1.69,1.78s1.68-.66,1.68-1.78v-5.22Z"/><path class="cls-1" d="M83.89,36.66h2.55c1.84,0,2.97,.94,2.97,2.49,0,1.01-.49,1.76-1.35,2.16l2.61,3.69h-1.99l-2.23-3.37h-.87v3.37h-1.69v-8.34Zm1.69,1.41v2.16h.95c.72,0,1.13-.42,1.13-1.1,0-.63-.42-1.06-1.13-1.06h-.95Z"/><path class="cls-1" d="M92.19,42.72c.5,.64,1.17,1.03,1.85,1.03s1.07-.36,1.07-.95c0-1.54-3.79-1.12-3.79-3.95,0-1.32,1.1-2.42,2.69-2.42,1.25,0,2.21,.56,2.92,1.41l-1.24,1.12c-.49-.63-1.04-1.05-1.67-1.05-.6,0-.99,.38-.99,.88,0,1.51,3.79,1.09,3.79,3.95-.02,1.57-1.25,2.51-2.78,2.51-1.41,0-2.35-.51-3.09-1.39l1.23-1.13Z"/><path class="cls-1" d="M21.9,52.37h2.75c1.84,0,2.96,.94,2.96,2.49s-1.12,2.48-2.96,2.48h-1.06v3.37h-1.69v-8.34Zm1.69,1.41v2.16h1.13c.71,0,1.14-.42,1.14-1.1,0-.63-.43-1.06-1.14-1.06h-1.13Z"/><path class="cls-1" d="M29.01,52.37h2.55c1.84,0,2.97,.94,2.97,2.49,0,1.01-.49,1.76-1.35,2.16l2.61,3.69h-1.99l-2.23-3.37h-.87v3.37h-1.69v-8.34Zm1.69,1.41v2.16h.95c.72,0,1.13-.42,1.13-1.1,0-.63-.42-1.06-1.13-1.06h-.95Z"/><path class="cls-1" d="M36.86,52.37h4.86v1.41h-3.17v1.98h2.69v1.41h-2.69v2.15h3.17v1.41h-4.86v-8.34Zm1.64-.72l1.35-1.61h1.74l-1.55,1.61h-1.54Z"/><path class="cls-1" d="M43.69,52.37h2.75c1.84,0,2.96,.94,2.96,2.49s-1.12,2.48-2.96,2.48h-1.06v3.37h-1.69v-8.34Zm1.69,1.41v2.16h1.13c.72,0,1.14-.42,1.14-1.1,0-.63-.43-1.06-1.14-1.06h-1.13Z"/><path class="cls-1" d="M52.18,52.37h2.22l3.16,8.34h-1.8l-.8-2.17h-3.34l-.8,2.17h-1.8l3.16-8.34Zm2.25,4.73l-1.14-3.13-1.14,3.13h2.29Z"/><path class="cls-1" d="M58.84,52.37h2.55c1.84,0,2.97,.94,2.97,2.49,0,1.01-.49,1.76-1.35,2.16l2.61,3.69h-1.99l-2.23-3.37h-.87v3.37h-1.69v-8.34Zm1.69,1.41v2.16h.95c.72,0,1.13-.42,1.13-1.1,0-.63-.42-1.06-1.13-1.06h-.95Z"/><path class="cls-1" d="M69.16,52.37h2.22l3.16,8.34h-1.8l-.8-2.17h-3.34l-.8,2.17h-1.8l3.16-8.34Zm2.25,4.73l-1.14-3.13-1.14,3.13h2.29Z"/><path class="cls-1" d="M74.13,52.37h6.84v1.54h-2.57v6.81h-1.69v-6.81h-2.57v-1.54Z"/><path class="cls-1" d="M90.22,56.54c0,2.38-1.8,4.41-4.42,4.41s-4.43-2.03-4.43-4.41,1.8-4.41,4.43-4.41,4.42,2.03,4.42,4.41Zm-1.74,0c0-1.6-1.12-2.82-2.68-2.82s-2.69,1.23-2.69,2.82,1.12,2.82,2.69,2.82,2.68-1.23,2.68-2.82Z"/><path class="cls-1" d="M91.84,52.37h1.69v8.34h-1.69v-8.34Z"/><path class="cls-1" d="M95.87,52.37h2.55c1.84,0,2.97,.94,2.97,2.49,0,1.01-.49,1.76-1.35,2.16l2.61,3.69h-1.99l-2.23-3.37h-.87v3.37h-1.69v-8.34Zm1.69,1.41v2.16h.95c.72,0,1.13-.42,1.13-1.1,0-.63-.42-1.06-1.13-1.06h-.95Z"/><path class="cls-1" d="M103.72,52.37h4.86v1.41h-3.17v1.98h2.69v1.41h-2.69v2.15h3.17v1.41h-4.86v-8.34Z"/><path class="cls-1" d="M15.83,68.08h2.22l3.16,8.34h-1.8l-.8-2.17h-3.34l-.8,2.17h-1.8l3.16-8.34Zm2.25,4.73l-1.14-3.13-1.14,3.13h2.29Z"/><path class="cls-1" d="M27.07,68.08h1.69v5.08c0,2.19-1.29,3.5-3.38,3.5s-3.37-1.31-3.37-3.5v-5.08h1.69v5.22c0,1.12,.63,1.78,1.69,1.78s1.68-.66,1.68-1.78v-5.22Z"/><path class="cls-1" d="M33.96,68.08h2.75c1.84,0,2.96,.94,2.96,2.49s-1.12,2.48-2.96,2.48h-1.06v3.37h-1.69v-8.34Zm1.69,1.41v2.16h1.13c.71,0,1.14-.42,1.14-1.1,0-.63-.43-1.06-1.14-1.06h-1.13Z"/><path class="cls-1" d="M41.06,68.08h2.55c1.84,0,2.97,.94,2.97,2.49,0,1.01-.49,1.76-1.35,2.16l2.61,3.69h-1.99l-2.23-3.37h-.87v3.37h-1.69v-8.34Zm1.69,1.41v2.16h.95c.72,0,1.13-.42,1.13-1.1,0-.63-.42-1.06-1.13-1.06h-.95Z"/><path class="cls-1" d="M56.97,72.25c0,2.38-1.8,4.41-4.42,4.41s-4.43-2.03-4.43-4.41,1.8-4.41,4.43-4.41,4.42,2.03,4.42,4.41Zm-1.74,0c0-1.6-1.12-2.82-2.68-2.82s-2.69,1.23-2.69,2.82,1.12,2.82,2.69,2.82,2.68-1.23,2.68-2.82Z"/><path class="cls-1" d="M58.59,68.08h4.86v1.41h-3.17v1.98h2.69v1.41h-2.69v3.55h-1.69v-8.34Z"/><path class="cls-1" d="M64.94,68.08h4.86v1.41h-3.17v1.98h2.69v1.41h-2.69v2.15h3.17v1.41h-4.86v-8.34Z"/><path class="cls-1" d="M72.25,74.13c.5,.64,1.17,1.03,1.85,1.03s1.07-.36,1.07-.95c0-1.54-3.79-1.12-3.79-3.95,0-1.32,1.1-2.42,2.69-2.42,1.25,0,2.21,.56,2.92,1.41l-1.24,1.12c-.49-.63-1.04-1.05-1.67-1.05-.6,0-.99,.38-.99,.88,0,1.51,3.79,1.09,3.79,3.95-.02,1.57-1.25,2.51-2.78,2.51-1.41,0-2.35-.51-3.09-1.39l1.23-1.13Z"/><path class="cls-1" d="M79.05,74.13c.5,.64,1.17,1.03,1.85,1.03s1.07-.36,1.07-.95c0-1.54-3.79-1.12-3.79-3.95,0-1.32,1.1-2.42,2.69-2.42,1.25,0,2.21,.56,2.92,1.41l-1.24,1.12c-.49-.63-1.04-1.05-1.67-1.05-.6,0-.99,.38-.99,.88,0,1.51,3.79,1.09,3.79,3.95-.02,1.57-1.25,2.51-2.78,2.51-1.41,0-2.35-.51-3.09-1.39l1.23-1.13Z"/><path class="cls-1" d="M93.5,72.25c0,2.38-1.8,4.41-4.42,4.41s-4.43-2.03-4.43-4.41,1.8-4.41,4.43-4.41,4.42,2.03,4.42,4.41Zm-1.74,0c0-1.6-1.12-2.82-2.68-2.82s-2.69,1.23-2.69,2.82,1.12,2.82,2.69,2.82,2.68-1.23,2.68-2.82Z"/><path class="cls-1" d="M95.12,68.08h2.55c1.84,0,2.97,.94,2.97,2.49,0,1.01-.49,1.76-1.35,2.16l2.61,3.69h-1.99l-2.23-3.37h-.87v3.37h-1.69v-8.34Zm1.69,1.41v2.16h.95c.72,0,1.13-.42,1.13-1.1,0-.63-.42-1.06-1.13-1.06h-.95Z"/><path class="cls-1" d="M105.44,68.08h2.22l3.16,8.34h-1.8l-.8-2.17h-3.34l-.8,2.17h-1.8l3.16-8.34Zm2.25,4.73l-1.14-3.13-1.14,3.13h2.29Z"/><path class="cls-1" d="M110.41,68.08h6.84v1.54h-2.57v6.81h-1.69v-6.81h-2.57v-1.54Z"/><path class="cls-1" d="M30.6,83.79h3.28c2.65,0,4.43,1.92,4.43,4.17s-1.79,4.17-4.43,4.17h-3.28v-8.34Zm1.69,1.54v5.27h1.61c1.55,0,2.67-1.16,2.67-2.63s-1.12-2.63-2.67-2.63h-1.61Z"/><path class="cls-1" d="M39.94,83.79h4.86v1.41h-3.17v1.98h2.69v1.41h-2.69v2.15h3.17v1.41h-4.86v-8.34Z"/><path class="cls-1" d="M47.24,89.84c.5,.64,1.17,1.03,1.85,1.03s1.07-.36,1.07-.95c0-1.54-3.79-1.12-3.79-3.95,0-1.32,1.1-2.42,2.69-2.42,1.25,0,2.21,.56,2.92,1.41l-1.24,1.12c-.49-.63-1.04-1.05-1.67-1.05-.6,0-.99,.38-.99,.88,0,1.51,3.79,1.09,3.79,3.95-.02,1.57-1.25,2.51-2.78,2.51-1.41,0-2.35-.51-3.09-1.39l1.23-1.13Z"/><path class="cls-1" d="M56.75,83.79h4.86v1.41h-3.17v1.98h2.69v1.41h-2.69v2.15h3.17v1.41h-4.86v-8.34Zm1.64-.72l1.35-1.61h1.74l-1.55,1.61h-1.54Z"/><path class="cls-1" d="M69.29,89.64l1.33,1.03c-.76,1.04-2,1.7-3.52,1.7-2.63,0-4.43-2.03-4.43-4.41s1.8-4.41,4.43-4.41c1.51,0,2.75,.68,3.52,1.69l-1.33,1.04c-.48-.68-1.23-1.14-2.18-1.14-1.57,0-2.69,1.23-2.69,2.82s1.12,2.82,2.69,2.82c.95,0,1.7-.46,2.18-1.14Z"/><path class="cls-1" d="M80.17,87.96c0,2.38-1.8,4.41-4.42,4.41s-4.43-2.03-4.43-4.41,1.8-4.41,4.43-4.41,4.42,2.03,4.42,4.41Zm-1.74,0c0-1.6-1.12-2.82-2.68-2.82s-2.69,1.23-2.69,2.82,1.12,2.82,2.69,2.82,2.68-1.23,2.68-2.82Z"/><path class="cls-1" d="M81.79,83.79h1.69v6.81h3.17v1.54h-4.86v-8.34Z"/><path class="cls-1" d="M88.14,83.79h4.86v1.41h-3.17v1.98h2.69v1.41h-2.69v2.15h3.17v1.41h-4.86v-8.34Z"/><path class="cls-1" d="M95.45,89.84c.5,.64,1.17,1.03,1.85,1.03s1.07-.36,1.07-.95c0-1.54-3.79-1.12-3.79-3.95,0-1.32,1.1-2.42,2.69-2.42,1.25,0,2.21,.56,2.92,1.41l-1.24,1.12c-.49-.63-1.04-1.05-1.67-1.05-.6,0-.99,.38-.99,.88,0,1.51,3.79,1.09,3.79,3.95-.02,1.57-1.25,2.51-2.78,2.51-1.41,0-2.35-.51-3.09-1.39l1.23-1.13Z"/></g></svg>