<svg fill="none" height="16" viewBox="0 0 16 16" width="16" xmlns="http://www.w3.org/2000/svg"><path clip-rule="evenodd" d="m6.96066 6.78355c-.47878-1.16398-1.62402-1.9835-2.96066-1.9835-1.49107 0-2.74395 1.01982-3.099186 2.4h-.500814c-.220914 0-.4.17908-.4.4 0 .22091.179086.4.4.4h.4c0 1.76731 1.43269 3.19995 3.2 3.19995s3.2-1.43264 3.2-3.19995c0-.44183.35817-.8.8-.8s.8.35817.8.8c0 1.76731 1.4327 3.19995 3.2 3.19995s3.2-1.43264 3.2-3.19995h.4c.2209 0 .4-.17909.4-.4 0-.22092-.1791-.4-.4-.4h-.5008c-.3552-1.38018-1.6081-2.4-3.0992-2.4-1.3366 0-2.48188.81952-2.96066 1.9835-.2796-.2391-.6426-.3835-1.03934-.3835-.39673 0-.75974.1444-1.03934.3835zm-.56066 1.2165c0 1.32548-1.07452 2.39995-2.4 2.39995s-2.4-1.07447-2.4-2.39995 1.07452-2.4 2.4-2.4 2.4 1.07452 2.4 2.4zm3.2 0c0 1.32548 1.0745 2.39995 2.4 2.39995s2.4-1.07447 2.4-2.39995-1.0745-2.4-2.4-2.4-2.4 1.07452-2.4 2.4z" fill="#239aff" fill-rule="evenodd"/></svg>