<svg width="16" height="16" viewBox="0 0 16 16" fill="none" xmlns="http://www.w3.org/2000/svg">
<path fill-rule="evenodd" clip-rule="evenodd" d="M4.667 1.79166C4.59354 1.51883 4.20646 1.51883 4.133 1.79166C3.82554 2.93357 2.93357 3.82554 1.79166 4.133C1.51883 4.20646 1.51883 4.59354 1.79166 4.667C2.93357 4.97446 3.82554 5.86643 4.133 7.00834C4.20646 7.28117 4.59354 7.28117 4.667 7.00835C4.97446 5.86643 5.86643 4.97446 7.00834 4.667C7.28117 4.59354 7.28117 4.20646 7.00834 4.133C5.86643 3.82554 4.97446 2.93357 4.667 1.79166ZM9.98625 4.63453C9.87998 4.23986 9.32002 4.23986 9.21376 4.63453L8.96084 5.57386C8.51608 7.22575 7.22575 8.51608 5.57386 8.96084L4.63453 9.21376C4.23986 9.32002 4.23986 9.87998 4.63453 9.98625L5.57386 10.2392C7.22575 10.6839 8.51608 11.9743 8.96084 13.6261L9.21376 14.5655C9.32002 14.9601 9.87998 14.9601 9.98625 14.5655L10.2392 13.6261C10.6839 11.9743 11.9743 10.6839 13.6261 10.2392L14.5655 9.98625C14.9601 9.87998 14.9601 9.32002 14.5655 9.21376L13.6261 8.96084C11.9743 8.51608 10.6839 7.22575 10.2392 5.57386L9.98625 4.63453Z" fill="#1976F0"/>
</svg>
