<svg fill="none" height="16" viewBox="0 0 16 16" width="16" xmlns="http://www.w3.org/2000/svg"><path clip-rule="evenodd" d="m.484211 2.42695c-.484211.95073-.484211 2.19537-.484211 4.68379v1.77852c0 2.48844 0 3.73304.484211 4.68384.426105.8362 1.106529 1.5166 1.942739 1.9427.95073.4842 2.19537.4842 4.68379.4842h1.77852c2.48844 0 3.73304 0 4.68384-.4842.8362-.4261 1.5166-1.1065 1.9427-1.9427.4842-.9508.4842-2.1954.4842-4.68384v-1.77852c0-2.48842 0-3.73306-.4842-4.68379-.4261-.83621-1.1065-1.516634-1.9427-1.942739-.9508-.484211-2.1954-.484211-4.68384-.484211h-1.77852c-2.48842 0-3.73306 0-4.68379.484211-.83621.426105-1.516634 1.106529-1.942739 1.942739zm3.701049 1.8021h1.03579c.42948 0 .77811.34863.77811.77811v3.02063h2.02442v1.08968h-2.336c-.42947 0-.77811-.34863-.77811-.7781v-3.02063h-.72421zm7.91664.77811v.80926h-1.0897v-.49853h-.8564v3.79958h-1.0897v-3.79958h-.85642v.49853h-1.08968v-.80926c0-.43032.34863-.77895.77811-.77895h3.42569c.4295 0 .7781.34863.7781.77895zm-8.4219 7.03324-1.01305-.7242c.29726-.4168.60463-.7394.928-.9659.35873-.2509.74105-.38483 1.13516-.38483.36715 0 .68463.08923.96757.25933.11453.0683.21979.1474.3259.2417.07326.064.12547.1154.23747.2266.16842.1684.23832.2307.32253.2804.09095.0547.18695.0817.32674.0817s.23579-.027.32758-.0817c.08421-.0506.15494-.1129.32336-.2813l.00169-.0017c.11116-.1103.16421-.1617.23747-.2257.10611-.0934.21053-.1726.32505-.2408.28295-.1701.59958-.25853.96421-.25853.36548 0 .68211.08843.96502.25853.1137.0682.219.1474.3251.2408.0733.064.1263.1154.2366.2257l.0017.0017c.1684.1684.2392.2307.3234.2813.0918.0547.1886.0817.3284.0817.1238 0 .261-.048.421-.16.1963-.1365.4076-.3596.6291-.6687l1.0131.7234c-.2973.4168-.6047.7394-.928.9659-.3588.2518-.7411.3848-1.1352.3848-.3663 0-.6838-.0884-.9676-.2585-.1145-.0682-.2198-.1474-.32672-.2417-.07326-.064-.12632-.1153-.23747-.2265l-.00169-.0017c-.16842-.1676-.23831-.2299-.32253-.2804-.0901-.0539-.1861-.0809-.32421-.0809-.1381 0-.23326.027-.32421.0809-.08336.0505-.1541.1128-.32252.2804l-.00169.0017c-.11115.1112-.16337.1625-.23747.2265-.10611.0943-.21137.1735-.3259.2417-.28379.1701-.60126.2585-.96757.2585-.36632 0-.68379-.0884-.96758-.2585-.11453-.069-.21979-.1482-.3259-.2417-.07326-.0648-.12547-.1153-.23663-.2265-.16926-.1693-.23916-.2307-.32337-.2813-.09095-.0547-.18695-.0817-.32673-.0817-.12379 0-.26106.048-.42106.16-.19537.1373-.40758.3596-.62905.6695z" fill="#2f3237" fill-rule="evenodd"/></svg>