<svg width="16" height="16" viewBox="0 0 16 16" fill="none" xmlns="http://www.w3.org/2000/svg">
<path fill-rule="evenodd" clip-rule="evenodd" d="M4.667 1.79163C4.59354 1.5188 4.20646 1.5188 4.133 1.79163C3.82554 2.93354 2.93357 3.82551 1.79166 4.13297C1.51883 4.20643 1.51883 4.59351 1.79166 4.66697C2.93357 4.97443 3.82554 5.8664 4.133 7.00831C4.20646 7.28114 4.59354 7.28114 4.667 7.00831C4.97446 5.8664 5.86643 4.97443 7.00835 4.66697C7.28117 4.59351 7.28117 4.20643 7.00835 4.13297C5.86643 3.82551 4.97446 2.93354 4.667 1.79163ZM9.98625 4.6345C9.87998 4.23983 9.32002 4.23983 9.21376 4.6345L8.96084 5.57383C8.51608 7.22572 7.22575 8.51605 5.57386 8.96081L4.63453 9.21373C4.23986 9.31999 4.23986 9.87995 4.63453 9.98622L5.57386 10.2391C7.22575 10.6839 8.51608 11.9742 8.96084 13.6261L9.21376 14.5654C9.32002 14.9601 9.87998 14.9601 9.98625 14.5654L10.2392 13.6261C10.6839 11.9742 11.9743 10.6839 13.6261 10.2391L14.5655 9.98622C14.9601 9.87995 14.9601 9.31999 14.5655 9.21373L13.6261 8.96081C11.9743 8.51604 10.6839 7.22572 10.2392 5.57383L9.98625 4.6345Z" fill="#5E636E"/>
</svg>
