<svg width="441" height="170" viewBox="0 0 441 170" fill="none" xmlns="http://www.w3.org/2000/svg">
<g clip-path="url(#clip0_761_47)">
<path d="M41.49 131C33.85 131 26.92 129.3 20.69 125.89C14.46 122.36 9.47 117.19 5.71 110.38C2.07 103.44 0.25 94.92 0.25 84.82C0.25 77.18 1.37 70.54 3.6 64.9C5.83 59.14 8.83 54.32 12.59 50.45C16.47 46.45 20.87 43.52 25.81 41.64C30.86 39.64 36.09 38.64 41.5 38.64C49.14 38.64 56.07 40.4 62.3 43.93C68.53 47.34 73.46 52.51 77.11 59.44C80.87 66.26 82.75 74.72 82.75 84.82C82.75 92.34 81.63 98.98 79.4 104.74C77.17 110.5 74.11 115.37 70.23 119.37C66.47 123.25 62.12 126.19 57.19 128.18C52.25 130.06 47.03 131 41.5 131H41.49ZM41.49 117.6C50.19 117.6 56.77 114.66 61.23 108.79C65.69 102.92 67.93 94.92 67.93 84.82C67.93 74.72 65.7 66.72 61.23 60.85C56.77 54.98 50.18 52.04 41.49 52.04C32.8 52.04 26.51 54.98 21.93 60.85C17.35 66.72 15.06 74.72 15.06 84.82C15.06 94.92 17.29 102.92 21.76 108.79C26.34 114.66 32.92 117.6 41.5 117.6H41.49Z" fill="black"/>
<path d="M374.41 169.42C372.53 169.42 370.47 169.24 368.24 168.89C366.12 168.66 364.48 168.36 363.3 168.01V154.97C364.36 155.2 365.53 155.38 366.83 155.5C368.24 155.62 369.71 155.68 371.24 155.68C374.3 155.68 377 154.97 379.35 153.56C381.7 152.15 383.87 149.45 385.87 145.45C387.87 141.57 389.87 135.87 391.86 128.35L354.49 40.75H371.41L399.61 109.49L423.4 40.75H440.14L404.71 134.87C401.89 142.51 399.19 148.85 396.6 153.91C394.13 159.08 391.2 162.96 387.79 165.54C384.38 168.13 379.92 169.42 374.39 169.42H374.41Z" fill="black"/>
<path d="M271.12 128.88V40.75H285.93V57.32C286.28 55.79 287.1 53.97 288.4 51.86C289.69 49.74 291.51 47.69 293.86 45.69C296.21 43.69 299.15 42.05 302.67 40.75C306.2 39.34 310.43 38.63 315.36 38.63C321.12 38.63 326.17 39.86 330.52 42.33C334.98 44.8 338.51 48.44 341.1 53.26C343.68 58.08 344.98 64.01 344.98 71.06V128.87H330.17V73.17C330.17 65.53 328.35 60.13 324.71 56.95C321.07 53.66 316.31 52.01 310.43 52.01C305.02 52.01 300.5 53.3 296.86 55.89C293.22 58.36 290.46 61.82 288.58 66.29C286.82 70.64 285.94 75.63 285.94 81.27V128.86H271.13L271.12 128.88Z" fill="black"/>
<path d="M250.61 40.75V128.88H235.8V112.31C235.45 113.84 234.62 115.66 233.33 117.77C232.04 119.89 230.22 121.94 227.87 123.94C225.52 125.94 222.58 127.58 219.06 128.88C215.53 130.29 211.3 131 206.37 131C200.73 131 195.68 129.77 191.21 127.3C186.74 124.83 183.22 121.19 180.63 116.37C178.04 111.55 176.75 105.62 176.75 98.57V40.76H191.56V96.46C191.56 104.1 193.38 109.56 197.02 112.85C200.66 116.02 205.42 117.61 211.3 117.61C216.7 117.61 221.23 116.38 224.87 113.91C228.51 111.32 231.22 107.86 232.98 103.51C234.86 99.05 235.8 93.99 235.8 88.35V40.76H250.61V40.75Z" fill="black"/>
<path d="M128.05 131C121.7 131 115.71 129.77 110.07 127.3C104.43 124.71 99.85 121.19 96.32 116.72C92.91 112.26 91.21 107.14 91.21 101.39H107.07C107.07 105.03 108.13 108.09 110.24 110.56C112.36 112.91 115.06 114.67 118.35 115.85C121.64 117.03 124.99 117.61 128.4 117.61C134.98 117.61 140.09 116.55 143.73 114.44C147.49 112.32 149.37 109.09 149.37 104.75C149.37 101.22 148.02 98.58 145.32 96.82C142.62 95.06 139.09 93.77 134.74 92.94C130.51 92 125.99 91.12 121.17 90.3C116.47 89.48 111.95 88.24 107.6 86.6C103.37 84.96 99.9 82.49 97.2 79.2C94.5 75.91 93.15 71.33 93.15 65.45C93.15 61.1 94.32 56.93 96.68 52.94C99.15 48.83 102.85 45.42 107.78 42.72C112.72 40.02 119 38.67 126.64 38.67C133.34 38.67 138.98 39.49 143.56 41.14C148.14 42.67 151.78 44.72 154.49 47.31C157.31 49.9 159.31 52.72 160.48 55.77C161.77 58.71 162.42 61.53 162.42 64.23H147.26C147.26 61.29 145.56 58.53 142.15 55.95C138.74 53.36 133.51 52.07 126.46 52.07C120 52.07 115.3 53.25 112.36 55.6C109.42 57.83 107.95 60.83 107.95 64.59C107.95 67.41 108.95 69.64 110.95 71.29C113.07 72.82 115.77 74.05 119.06 74.99C122.35 75.93 125.99 76.75 129.99 77.46C134.1 78.17 138.16 79.05 142.15 80.1C146.14 81.16 149.79 82.63 153.08 84.51C156.37 86.39 159.01 88.92 161.01 92.09C163.13 95.14 164.18 99.14 164.18 104.08C164.18 109.02 162.95 113.19 160.48 117.3C158.13 121.41 154.31 124.76 149.02 127.35C143.73 129.82 136.74 131.05 128.05 131.05V131Z" fill="black"/>
</g>
<defs>
<clipPath id="clip0_761_47">
<rect width="440.47" height="169.54" fill="white"/>
</clipPath>
</defs>
</svg>
