<svg width="32" height="32" viewBox="0 0 32 32" fill="none" xmlns="http://www.w3.org/2000/svg">
<path d="M15.1953 2.68682L15.8117 3.47426V3.47426L15.1953 2.68682ZM3.78193 7.81827L4.01774 8.79007L3.78193 7.81827ZM3.00222 8.80187L2.00223 8.80789L3.00222 8.80187ZM15.9148 29.9927L16.0022 28.9965H16.0022L15.9148 29.9927ZM16.7688 2.72936L17.4222 1.97234V1.97234L16.7688 2.72936ZM28.1661 7.8499L27.9761 8.83169L27.9761 8.83169L28.1661 7.8499ZM28.9973 8.84691L27.9973 8.84051V8.84052L28.9973 8.84691ZM16.0849 29.9927L15.9976 28.9965H15.9976L16.0849 29.9927ZM16.9999 18C16.9999 17.4477 16.5522 17 15.9999 17C15.4476 17 14.9999 17.4477 14.9999 18H16.9999ZM14.9999 20C14.9999 20.5523 15.4476 21 15.9999 21C16.5522 21 16.9999 20.5523 16.9999 20H14.9999ZM14.5789 1.89937C13.1649 3.00626 9.60928 5.37527 3.54613 6.84647L4.01774 8.79007C10.3933 7.24306 14.2036 4.73303 15.8117 3.47426L14.5789 1.89937ZM2.00223 8.80789C2.03158 13.6856 2.35246 18.9205 4.21757 23.0826C5.15946 25.1845 6.5055 27.0387 8.4232 28.4331C10.3423 29.8285 12.7763 30.7214 15.8275 30.9889L16.0022 28.9965C13.2529 28.7556 11.1799 27.9647 9.59938 26.8155C8.01753 25.6653 6.87148 24.1142 6.04269 22.2647C4.36642 18.5241 4.03153 13.672 4.0022 8.79585L2.00223 8.80789ZM16.1154 3.48638C17.7062 4.8594 21.5368 7.58547 27.9761 8.83169L28.3561 6.86812C22.3205 5.70002 18.7997 3.16132 17.4222 1.97234L16.1154 3.48638ZM27.9973 8.84052C27.9662 13.7097 27.627 18.5507 25.9494 22.2818C25.12 24.1266 23.9739 25.6736 22.3931 26.8208C20.8135 27.9671 18.7427 28.7559 15.9976 28.9965L16.1723 30.9889C19.2188 30.7219 21.65 29.8312 23.5678 28.4395C25.4842 27.0487 26.8306 25.1992 27.7735 23.102C29.6407 18.9492 29.9661 13.725 29.9973 8.8533L27.9973 8.84052ZM27.9761 8.83169C27.9868 8.83376 27.9934 8.83872 27.9969 8.84288C27.9985 8.84476 27.9985 8.84543 27.9981 8.84427C27.9979 8.84367 27.9976 8.84285 27.9975 8.84192C27.9973 8.84095 27.9973 8.8404 27.9973 8.84051L29.9973 8.8533C30.0036 7.86286 29.2886 7.04859 28.3561 6.86812L27.9761 8.83169ZM15.8275 30.9889C15.9409 30.9988 16.0589 30.9988 16.1723 30.9889L15.9976 28.9965C16.0006 28.9963 16.001 28.9964 15.9999 28.9964C15.9987 28.9964 15.9992 28.9963 16.0022 28.9965L15.8275 30.9889ZM3.54613 6.84647C2.65629 7.06239 1.99652 7.85897 2.00223 8.80789L4.0022 8.79585C4.0022 8.79585 4.0022 8.79587 4.0022 8.79589C4.0022 8.79591 4.0022 8.79595 4.00219 8.79599C4.00219 8.79609 4.00218 8.79621 4.00217 8.79637C4.00214 8.79669 4.0021 8.79709 4.00202 8.79753C4.00187 8.79844 4.00164 8.79925 4.00143 8.79985C4.00101 8.80102 4.00093 8.80064 4.00207 8.79921C4.00462 8.79601 4.00954 8.79206 4.01774 8.79007L3.54613 6.84647ZM15.8117 3.47426C15.8375 3.45405 15.8884 3.43168 15.9604 3.43372C16.0326 3.43576 16.0864 3.46141 16.1154 3.48638L17.4222 1.97234C16.6306 1.2891 15.414 1.2457 14.5789 1.89937L15.8117 3.47426ZM12.9999 15H18.9999V13H12.9999V15ZM20.9999 17V21H22.9999V17H20.9999ZM18.9999 23H12.9999V25H18.9999V23ZM10.9999 21V17H8.99989V21H10.9999ZM12.9999 23C11.8953 23 10.9999 22.1046 10.9999 21H8.99989C8.99989 23.2091 10.7908 25 12.9999 25V23ZM20.9999 21C20.9999 22.1046 20.1045 23 18.9999 23V25C21.209 25 22.9999 23.2091 22.9999 21H20.9999ZM18.9999 15C20.1045 15 20.9999 15.8954 20.9999 17H22.9999C22.9999 14.7909 21.209 13 18.9999 13V15ZM12.9999 13C10.7908 13 8.99989 14.7909 8.99989 17H10.9999C10.9999 15.8954 11.8953 15 12.9999 15V13ZM17.9999 12V14H19.9999V12H17.9999ZM13.9999 14V12H11.9999V14H13.9999ZM15.9999 9.99999C17.1045 9.99999 17.9999 10.8954 17.9999 12H19.9999C19.9999 9.79085 18.209 7.99999 15.9999 7.99999V9.99999ZM15.9999 7.99999C13.7908 7.99999 11.9999 9.79085 11.9999 12H13.9999C13.9999 10.8954 14.8953 9.99999 15.9999 9.99999V7.99999ZM14.9999 18V20H16.9999V18H14.9999Z" fill="#FFFFFF"/>
</svg>
