<svg width="20" height="20" viewBox="0 0 20 20" fill="none" xmlns="http://www.w3.org/2000/svg">
<path d="M4.55556 10H3.80556H4.55556ZM4.55556 8.42857L5.08857 7.90094C4.94771 7.75864 4.75579 7.67857 4.55556 7.67857C4.35532 7.67857 4.16341 7.75864 4.02254 7.90094L4.55556 8.42857ZM5.5781 10.5276C5.8695 10.822 6.34437 10.8244 6.63874 10.533C6.93312 10.2416 6.93553 9.76675 6.64413 9.47237L5.5781 10.5276ZM2.46698 9.47237C2.17558 9.76674 2.17799 10.2416 2.47237 10.533C2.76674 10.8244 3.24161 10.822 3.53302 10.5276L2.46698 9.47237ZM14.3828 14.4167C14.6742 14.1223 14.6718 13.6475 14.3774 13.3561C14.083 13.0647 13.6082 13.0671 13.3168 13.3615L14.3828 14.4167ZM15.4444 11.5714L14.9114 12.0991C15.0523 12.2414 15.2442 12.3214 15.4444 12.3214C15.6447 12.3214 15.8366 12.2414 15.9775 12.0991L15.4444 11.5714ZM14.4219 9.47237C14.1305 9.17799 13.6556 9.17558 13.3613 9.46698C13.0669 9.75839 13.0645 10.2333 13.3559 10.5276L14.4219 9.47237ZM17.533 10.5276C17.8244 10.2333 17.822 9.75839 17.5276 9.46698C17.2333 9.17558 16.7584 9.17799 16.467 9.47237L17.533 10.5276ZM5.61721 5.58328C5.32581 5.87766 5.32822 6.35253 5.6226 6.64393C5.91697 6.93533 6.39184 6.93292 6.68324 6.63854L5.61721 5.58328ZM8.44444 8.07143C8.03023 8.07143 7.69444 8.40721 7.69444 8.82143C7.69444 9.23564 8.03023 9.57143 8.44444 9.57143V8.07143ZM11.5556 9.57143C11.9698 9.57143 12.3056 9.23564 12.3056 8.82143C12.3056 8.40721 11.9698 8.07143 11.5556 8.07143V9.57143ZM8.44444 10.4286C8.03023 10.4286 7.69444 10.7644 7.69444 11.1786C7.69444 11.5928 8.03023 11.9286 8.44444 11.9286V10.4286ZM11.5556 11.9286C11.9698 11.9286 12.3056 11.5928 12.3056 11.1786C12.3056 10.7644 11.9698 10.4286 11.5556 10.4286V11.9286ZM5.30556 10L5.30556 8.42857H3.80556L3.80556 10H5.30556ZM4.02254 8.9562L5.5781 10.5276L6.64413 9.47237L5.08857 7.90094L4.02254 8.9562ZM4.02254 7.90094L2.46698 9.47237L3.53302 10.5276L5.08857 8.9562L4.02254 7.90094ZM9.99997 14.75C7.41446 14.75 5.30556 12.6306 5.30556 10H3.80556C3.80556 13.4446 6.57171 16.25 9.99997 16.25V14.75ZM13.3168 13.3615C12.4658 14.2211 11.294 14.75 9.99997 14.75V16.25C11.7128 16.25 13.2633 15.5477 14.3828 14.4167L13.3168 13.3615ZM14.6944 10V11.5714H16.1944V10H14.6944ZM15.9775 11.0438L14.4219 9.47237L13.3559 10.5276L14.9114 12.0991L15.9775 11.0438ZM15.9775 12.0991L17.533 10.5276L16.467 9.47237L14.9114 11.0438L15.9775 12.0991ZM10 5.25C12.5855 5.25 14.6944 7.36944 14.6944 10H16.1944C16.1944 6.55542 13.4283 3.75 10 3.75V5.25ZM6.68324 6.63854C7.53422 5.77888 8.706 5.25 10 5.25V3.75C8.28717 3.75 6.73673 4.45234 5.61721 5.58328L6.68324 6.63854ZM8.44444 9.57143H11.5556V8.07143H8.44444V9.57143ZM8.44444 11.9286H11.5556V10.4286H8.44444V11.9286Z" fill="white"/>
</svg>
