<svg xmlns="http://www.w3.org/2000/svg" width="20" height="20" fill="none" viewBox="0 0 20 20"><path fill="#fff" d="M13.866 6.34a.5.5 0 1 0-.732-.68zM1.967 9.432l.239.44zm.14 1.82l-.167.472zm12.04 6.372l-.272.42zm-5.222-1.338l-.112-.487zM17.282 2.91l-.497-.057zm-1.47-.992l.238.44zM6.727 13.42l7.147 4.624.543-.84-7.146-4.624zm9.452 3.535l1.599-13.989-.994-.114-1.599 13.99zm-.607-15.478L1.728 8.993l.478.879L16.05 2.356zM1.94 11.724l4.892 1.747.336-.942-4.892-1.747zm9.198 3.539l-2.325.536.225.975 2.324-.537zm-2.918.186l-.74-2.586-.96.274.738 2.587zm4.914-9.79l-6.5 7 .732.681 6.5-7zM1.728 8.994c-1.14.619-1.01 2.294.212 2.73l.336-.941a.5.5 0 0 1-.07-.91zm12.147 9.05a1.5 1.5 0 0 0 2.305-1.088l-.994-.114a.5.5 0 0 1-.768.363zM8.813 15.8a.5.5 0 0 1-.593-.35l-.962.275a1.5 1.5 0 0 0 1.78 1.05zm8.966-12.833c.137-1.206-1.14-2.068-2.206-1.489l.477.88a.5.5 0 0 1 .735.495z"/></svg>