<svg fill="none" height="20" viewBox="0 0 20 20" width="20" xmlns="http://www.w3.org/2000/svg"><path d="m2.625 9.375c-.55229 0-1 .44772-1 1s.44771 1 1 1zm5 1 .70711.70711c.39052-.39053.39052-1.02369 0-1.41422zm-1.29289-2.70711c-.39053-.39052-1.02369-.39052-1.41422 0-.39052.39053-.39052 1.02369 0 1.41422zm-1.41422 4c-.39052.39053-.39052 1.02369 0 1.41422.39053.39052 1.02369.39052 1.41422 0zm12.70711-.29289c.5523 0 1-.44772 1-1s-.4477-1-1-1zm-5-1-.7071-.70711c-.1875.18754-.2929.44189-.2929.70711s.1054.51957.2929.70711zm1.2929 2.70711c.3905.39052 1.0237.39052 1.4142 0 .3905-.39053.3905-1.02369 0-1.41422zm1.4142-4c.3905-.39053.3905-1.02369 0-1.41422-.3905-.39052-1.0237-.39052-1.4142 0zm-4.2071-2.70711c0-.55229-.44771-1-1-1-.55228 0-1 .44771-1 1zm-2 8c0 .55229.44772 1 1 1 .55229 0 1-.44771 1-1zm-6.5-3h5v-2h-5zm5.70711-1.70711-2-2-1.41422 1.41422 2 2zm-1.41422 0-2 2 1.41422 1.41422 2-2zm10.70711-.29289h-5v2h5zm-5.7071 1.70711 2 2 1.4142-1.41422-2-2zm1.4142 0 2-2-1.4142-1.41422-2 2zm-4.2071-4.70711v8h2v-8z" fill="#fff"/></svg>