<svg xmlns="http://www.w3.org/2000/svg" width="20" height="20" fill="none" viewBox="0 0 20 20"><path fill="#fff" fill-rule="evenodd" d="M10 2a8 8 0 1 1 0 16 8 8 0 0 1 0-16zm6.982 8.5l-2.727.001c-.105 2.62-1.041 4.745-2.8 6.348a7.005 7.005 0 0 0 5.527-6.349zm-8.756 6.273A7.005 7.005 0 0 1 3.018 10.5l2.492.001c.103 2.58 1.012 4.678 2.716 6.273zm-1.715-6.272c.112 2.582 1.104 4.584 2.989 6.043V10.5l-2.99.001zm3.99 5.853L10.5 10.5l2.754.001c-.107 2.471-1.02 4.412-2.752 5.853zm.954-13.203l.097.089c1.696 1.592 2.6 3.687 2.703 6.26h2.728a7.004 7.004 0 0 0-5.529-6.349zm-3.445.136l.218-.061C6.523 4.82 5.613 6.919 5.51 9.499H3.018A7.005 7.005 0 0 1 8.01 3.288zm2.49.358v5.854h2.754c-.107-2.472-1.02-4.413-2.753-5.854zM6.51 9.499c.113-2.582 1.105-4.584 2.99-6.043v6.043H6.51z" clip-rule="evenodd"/></svg>