<svg fill="none" height="20" viewBox="0 0 20 20" width="20" xmlns="http://www.w3.org/2000/svg"><g fill="#fff"><path d="m12.1214 7.17146c.1953-.19526.5119-.19526.7072 0 .1952.19527.1952.51185 0 .70711l-2.1215 2.12143 2.1199 2.12c.1956.1955.1956.5125 0 .708-.1955.1955-.5125.1955-.708 0l-2.11992-2.12-2.12053 2.1206c-.19526.1952-.51184.1952-.70711 0-.19526-.1953-.19526-.5119 0-.7071l2.12053-2.1206-2.12178-2.12174c-.19551-.19552-.19551-.51251 0-.70803.19552-.19551.51251-.19551.70803 0l2.12178 2.12178z"/><path clip-rule="evenodd" d="m14.9497 5.05027c2.7337 2.73367 2.7337 7.16583 0 9.89953-2.7336 2.7336-7.16578 2.7336-9.89945 0-2.73367-2.7337-2.73367-7.16586 0-9.89953s7.16585-2.73367 9.89945 0zm-.7071.70711c-2.3431-2.34315-6.14209-2.34315-8.48524 0-2.34315 2.34314-2.34315 6.14212 0 8.48532 2.34314 2.3431 6.14214 2.3431 8.48524 0 2.3432-2.3432 2.3432-6.14218 0-8.48532z" fill-rule="evenodd"/></g></svg>