<svg xmlns="http://www.w3.org/2000/svg" width="20" height="20" fill="none" viewBox="0 0 20 20"><path fill="#fff" fill-rule="evenodd" d="M5.902 4.963H4.375v1.625h1.068v4.504c0 .641.513 1.16 1.147 1.16h3.444v-1.624H7.05V6.124c0-.641-.514-1.16-1.148-1.16zM16.05 7.331V6.124c0-.641-.514-1.16-1.148-1.16H9.85c-.634 0-1.148.519-1.148 1.16v1.207h1.607v-.743h1.263v5.665h1.607V6.588h1.263v.743zm-13.915 8.2l1.495 1.08c.326-.462.638-.793.927-.998.236-.166.438-.238.621-.238.206 0 .348.04.482.122.124.075.227.167.476.419.164.166.242.241.35.338.156.14.311.257.48.36A2.68 2.68 0 0 0 8.393 17c.54 0 1.008-.132 1.427-.386a3.24 3.24 0 0 0 .48-.36c.11-.096.187-.173.35-.338l.003-.002c.248-.25.352-.343.476-.418a.86.86 0 0 1 .478-.121.86.86 0 0 1 .478.12c.124.076.228.168.476.419l.002.002c.164.165.242.242.35.338.157.14.312.258.481.36.419.254.887.386 1.427.386.582 0 1.145-.2 1.675-.574.477-.337.93-.818 1.369-1.44l-1.495-1.08c-.326.462-.639.794-.927.998-.236.167-.438.239-.622.239a.87.87 0 0 1-.483-.122c-.124-.075-.228-.168-.477-.42l-.003-.002a7.007 7.007 0 0 0-.349-.337 3.24 3.24 0 0 0-.48-.359 2.676 2.676 0 0 0-1.422-.385c-.538 0-1.005.132-1.422.385-.169.102-.323.22-.48.36a7.017 7.017 0 0 0-.35.336l-.002.003c-.248.25-.353.344-.477.419a.87.87 0 0 1-.483.122.867.867 0 0 1-.482-.122c-.124-.075-.227-.167-.476-.419a7.04 7.04 0 0 0-.35-.338 3.235 3.235 0 0 0-.48-.36 2.681 2.681 0 0 0-1.427-.386c-.582 0-1.144.199-1.674.574-.477.337-.93.818-1.369 1.44z" clip-rule="evenodd"/></svg>