<svg width="24" height="24" viewBox="0 0 24 24" fill="none" xmlns="http://www.w3.org/2000/svg">
<path fill-rule="evenodd" clip-rule="evenodd" d="M11.4 6.6C11.4 6.26863 11.6686 6 12 6C12.3314 6 12.6 6.26863 12.6 6.6V10.2C12.6 10.5314 12.3314 10.8 12 10.8C11.6686 10.8 11.4 10.5314 11.4 10.2V6.6ZM7.75736 7.75716C7.99167 7.52284 8.37157 7.52284 8.60589 7.75716C8.81417 7.96544 8.83731 8.28875 8.67531 8.52259L8.60589 8.60569C6.73137 10.4802 6.73137 13.5194 8.60589 15.3939C10.4804 17.2684 13.5196 17.2684 15.3941 15.3939C17.2686 13.5194 17.2686 10.4802 15.3941 8.60569C15.1598 8.37137 15.1598 7.99147 15.3941 7.75716C15.6024 7.54888 15.9257 7.52574 16.1595 7.68773L16.2426 7.75716C18.5858 10.1003 18.5858 13.8993 16.2426 16.2424C13.8995 18.5856 10.1005 18.5856 7.75736 16.2424C5.41421 13.8993 5.41421 10.1003 7.75736 7.75716Z" fill="#fff"/>
</svg>
