<svg xmlns="http://www.w3.org/2000/svg" width="20" height="20" fill="none" viewBox="0 0 20 20"><path fill="#fff" fill-rule="evenodd" d="M6.465 6.465l-.708-.708a6 6 0 0 1 10.254 4.077l.33-.392a.5.5 0 0 1 .766.643L15.5 12l-1.607-1.915a.5.5 0 0 1 .766-.643l.353.42a5 5 0 0 0-8.547-3.397zm7.07 7.07l.708.708a6 6 0 0 1-10.254-4.077l-.33.392a.5.5 0 0 1-.766-.643L4.5 8l1.607 1.915a.5.5 0 0 1-.766.643l-.353-.42a5 5 0 0 0 8.548 3.398zM8.5 8.5h3a.5.5 0 1 1 0 1h-3a.5.5 0 0 1 0-1zm0 2h3a.5.5 0 1 1 0 1h-3a.5.5 0 0 1 0-1z" clip-rule="evenodd"/></svg>