<svg xmlns="http://www.w3.org/2000/svg" width="20" height="20" viewBox="0 0 20 20"><path fill="#45a8fc" fill-rule="evenodd" d="M2 9v7h2.395c.674 0 1.288.39 1.576 1 .287.61.901 1 1.576 1H12c2.652 0 4-.627 4-3v-1.001a1 1 0 0 1 1-1h.79c.123-.324.21-.915.21-1.748 0-.98-.12-1.682-.31-2.086A1.064 1.064 0 0 0 17.601 9H10V3c0-.442-.46-.791-2-.936v1.228a10 10 0 0 1-.793 3.904L6.442 9zm10 11H5.72a1 1 0 0 1-.948-.684l-.192-.328A2 2 0 0 0 2.854 18H0V7h5a9.472 9.472 0 0 0 1-4.236v-1.76a1 1 0 0 1 1.03-1C10.345.105 12 1.104 12 3v4h6c1.333.334 2 1.751 2 4.251C20 13.75 19.334 15 18.002 15c-.007 5-4.753 5-6.002 5z"/></svg>