<svg xmlns="http://www.w3.org/2000/svg" width="40" height="40" viewBox="0 0 40 40"><mask id="a" fill="#fff"><path fill-rule="evenodd" d="M.3.192v29.459a2.532 2.532 0 0 0 2.526 2.524h31.982a2.532 2.532 0 0 0 2.526-2.524V.192zm12.625 5.05c0-.93.754-1.683 1.684-1.683h8.417a1.683 1.683 0 1 1 0 3.367h-8.417c-.93 0-1.684-.754-1.684-1.684z"/></mask><mask id="b" fill="#fff"><path fill-rule="evenodd" d="M.137 16.21v.099a.55.55 0 0 0 .001.023v.087l.001.004v.048l.001.05.002.08v.03l.002.038v.012l.001.024v.021l.003.052v.044l.002.01v.005a.02.02 0 0 0 0 .005v.001l.004.09c0 .015 0 .032.002.048v.016l.001.018v.013l.001.001v.005l.002.036.001.013v.001l.005.08v.02l.001.003v.003l.003.045v.002l.007.101v.001l.001.02.001.016.001.014v.002c.01.133.022.266.034.398l.002.012.003.032.002.019.002.021c.014.134.03.267.046.4l.001.006.005.035.001.013.004.029.004.025.002.018c.015.112.032.224.05.336h31.586c.026-.162.05-.323.07-.486v-.003l.004-.032.003-.023.003-.022.004-.035.001-.014.006-.044v-.006a15.59 15.59 0 0 0 .075-.832v-.004l.003-.045v-.003l.001-.025.003-.038.002-.04.001-.022v-.012l.001-.011v-.011l.002-.019v-.023h.001v-.003l.004-.093v-.017c.002-.013.002-.026.003-.04v-.006a1.1 1.1 0 0 0 0-.033l.002-.013v-.034l.001-.02v-.019l.002-.029v-.051l.001-.008v-.008l.001-.03.001-.058V16.483l.001-.003V16.441l.001-.01v-.066a.28.28 0 0 1 .001-.017v-.138C32.12 7.378 24.961.218 16.13.218S.137 7.378.137 16.21z"/></mask><mask id="c" fill="#fff"><path fill-rule="evenodd" d="M.3.192v29.459a2.532 2.532 0 0 0 2.526 2.524h31.982a2.532 2.532 0 0 0 2.526-2.524V.192zm12.625 5.05c0-.93.754-1.683 1.684-1.683h8.417a1.683 1.683 0 1 1 0 3.367h-8.417c-.93 0-1.684-.754-1.684-1.684z"/></mask><mask id="d" fill="#fff"><path fill-rule="evenodd" d="M.3.192v29.459a2.532 2.532 0 0 0 2.526 2.524h31.982a2.532 2.532 0 0 0 2.526-2.524V.192zm12.625 5.05c0-.93.754-1.683 1.684-1.683h8.417a1.683 1.683 0 1 1 0 3.367h-8.417c-.93 0-1.684-.754-1.684-1.684z"/></mask><g fill="none" fill-rule="evenodd"><g mask="url(#a)" transform="translate(1.048 3.793)"><path fill="#eee" d="M.3.192h37.034v31.983H.301z"/><path fill="#fff" d="M23.026 3.559h-8.417a1.683 1.683 0 1 0 0 3.367h8.417a1.683 1.683 0 1 0 0-3.367"/></g><g mask="url(#b)" transform="translate(3.737 17.234)"><g fill-rule="nonzero"><path fill="#db4437" d="M2.677.218v19.625h7.156L16.13 8.94h15.992V.218zm0 0v19.625h7.156L16.13 8.94h15.992V.218z"/><path fill="#0f9d58" d="M.138 32.201h15.22l7.067-7.066v-5.29l-12.592-.002L.137 3.214zm0 0h15.22l7.067-7.066v-5.29l-12.592-.002L.137 3.214z"/><path fill="#ffcd40" d="M16.129 8.94l6.296 10.903-7.064 12.359h16.76V8.94zm0 0l6.296 10.903-7.064 12.359h16.76V8.94z"/></g><ellipse cx="7.392" cy="7.515" fill="#f1f1f1" rx="7.27" ry="7.27" transform="translate(8.737 8.695)"/><circle cx="6.048" cy="5.945" r="5.816" fill="#4285f4" transform="translate(10.08 10.265)"/></g><g mask="url(#c)" opacity=".05" transform="translate(1.048 3.793)"><path fill="#212121" d="M.3.192h37.034v15.992H.3z"/></g><g mask="url(#d)" transform="translate(1.048 3.793)"><path fill="#212121" d="M.3 15.973h37.034v1H.3z" opacity=".02"/><path fill="#fff" d="M.3 16.184h37.034v1H.3z" opacity=".05"/><g fill-rule="nonzero"><path fill="#212121" d="M.3.403h37.034v-.21H.301zm22.726 6.522h-8.417a1.68 1.68 0 0 1-1.677-1.578.925.925 0 0 0-.007.106c0 .93.754 1.683 1.684 1.683h8.417c.93 0 1.683-.753 1.683-1.683a.925.925 0 0 0-.006-.106 1.68 1.68 0 0 1-1.677 1.578z" opacity=".02"/><path fill="#231f20" d="M34.809 31.965H2.826A2.533 2.533 0 0 1 .3 29.44v.21a2.532 2.532 0 0 0 2.525 2.525h31.983a2.532 2.532 0 0 0 2.525-2.524v-.211a2.533 2.533 0 0 1-2.525 2.525m-20.2-28.406h8.417a1.68 1.68 0 0 1 1.677 1.578c.002-.036.006-.07.006-.105 0-.93-.753-1.684-1.683-1.684h-8.417c-.93 0-1.684.754-1.684 1.684 0 .036.003.07.007.105A1.68 1.68 0 0 1 14.61 3.56" opacity=".1"/></g></g></g></svg>