<svg xmlns="http://www.w3.org/2000/svg" width="400" height="400" fill="none" viewBox="0 0 400 400"><path fill="url(#paint0_linear)" d="M344.582 143.005c-6.781-16.313-20.535-33.927-31.307-39.495a162.113 162.113 0 0 1 15.805 47.362l.028.262c-17.645-43.984-47.566-61.719-72.004-100.336-1.236-1.953-2.472-3.91-3.676-5.975a48.96 48.96 0 0 1-1.719-3.22 28.38 28.38 0 0 1-2.328-6.18.403.403 0 0 0-.354-.403.556.556 0 0 0-.294 0c-.02 0-.052.036-.077.044-.024.008-.076.044-.112.06l.06-.104c-39.199 22.948-52.499 65.431-53.723 86.68a78.068 78.068 0 0 0-42.948 16.551 46.78 46.78 0 0 0-4.026-3.052 72.324 72.324 0 0 1-.439-38.138 115.569 115.569 0 0 0-37.564 29.027h-.073c-6.185-7.838-5.75-33.685-5.396-39.084a27.915 27.915 0 0 0-5.21 2.765 113.64 113.64 0 0 0-15.253 13.065 136.216 136.216 0 0 0-14.588 17.501v.024-.028a131.769 131.769 0 0 0-20.938 47.277l-.21 1.031c-.294 1.373-1.353 8.249-1.534 9.743 0 .117-.024.225-.036.342a148.69 148.69 0 0 0-2.533 21.511v.805a156.03 156.03 0 0 0 41.17 105.468 156.083 156.083 0 0 0 210.278 17.907 156.037 156.037 0 0 0 58.415-96.988c.262-2.013.476-4.006.709-6.039a160.44 160.44 0 0 0-10.123-78.383zM164.714 265.147c.729.35 1.413.728 2.162 1.062l.109.069a82.655 82.655 0 0 1-2.271-1.131zM329.12 151.17v-.149l.028.165-.028-.016z"/><path fill="url(#paint1_radial)" d="M344.582 143.005c-6.781-16.313-20.535-33.927-31.307-39.495a162.113 162.113 0 0 1 15.805 47.362v.149l.028.165a141.292 141.292 0 0 1-4.856 105.313c-17.886 38.372-61.18 77.702-128.948 75.789-73.224-2.073-137.71-56.4-149.766-127.556-2.194-11.22 0-16.909 1.104-26.028a116.243 116.243 0 0 0-2.509 21.531v.805a156.03 156.03 0 0 0 41.17 105.468 156.088 156.088 0 0 0 210.278 17.907 156.037 156.037 0 0 0 58.415-96.988c.262-2.013.476-4.006.709-6.039a160.44 160.44 0 0 0-10.123-78.383z"/><path fill="url(#paint2_radial)" d="M344.582 143.005c-6.781-16.313-20.535-33.927-31.307-39.495a162.113 162.113 0 0 1 15.805 47.362v.149l.028.165a141.292 141.292 0 0 1-4.856 105.313c-17.886 38.372-61.18 77.702-128.948 75.789-73.224-2.073-137.71-56.4-149.766-127.556-2.194-11.22 0-16.909 1.104-26.028a116.243 116.243 0 0 0-2.509 21.531v.805a156.03 156.03 0 0 0 41.17 105.468 156.088 156.088 0 0 0 210.278 17.907 156.037 156.037 0 0 0 58.415-96.988c.262-2.013.476-4.006.709-6.039a160.44 160.44 0 0 0-10.123-78.383z"/><path fill="url(#paint3_radial)" d="M268.745 161.348c.338.238.652.475.971.713a84.963 84.963 0 0 0-14.496-18.903c-48.505-48.505-12.712-105.171-6.676-108.05l.06-.088c-39.199 22.948-52.499 65.431-53.723 86.68 1.82-.125 3.624-.278 5.484-.278a78.76 78.76 0 0 1 68.38 39.926z"/><path fill="url(#paint4_radial)" d="M200.466 171.034c-.258 3.881-13.972 17.268-18.768 17.268-44.377 0-51.581 26.841-51.581 26.841 1.965 22.602 17.717 41.218 36.759 51.066.87.451 1.752.858 2.633 1.256a85.77 85.77 0 0 0 4.583 1.876 69.406 69.406 0 0 0 20.306 3.918c77.782 3.647 92.849-93.001 36.718-121.046a53.877 53.877 0 0 1 37.629 9.135 78.76 78.76 0 0 0-68.38-39.926c-1.852 0-3.664.153-5.484.277a78.075 78.075 0 0 0-42.948 16.551c2.38 2.013 5.066 4.703 10.723 10.279 10.59 10.431 37.75 21.237 37.81 22.505z"/><path fill="url(#paint5_radial)" d="M200.466 171.034c-.258 3.881-13.972 17.268-18.768 17.268-44.377 0-51.581 26.841-51.581 26.841 1.965 22.602 17.717 41.218 36.759 51.066.87.451 1.752.858 2.633 1.256a85.77 85.77 0 0 0 4.583 1.876 69.406 69.406 0 0 0 20.306 3.918c77.782 3.647 92.849-93.001 36.718-121.046a53.877 53.877 0 0 1 37.629 9.135 78.76 78.76 0 0 0-68.38-39.926c-1.852 0-3.664.153-5.484.277a78.075 78.075 0 0 0-42.948 16.551c2.38 2.013 5.066 4.703 10.723 10.279 10.59 10.431 37.75 21.237 37.81 22.505z"/><path fill="url(#paint6_radial)" d="M144.657 133.061a99.27 99.27 0 0 1 3.221 2.137 72.332 72.332 0 0 1-.438-38.138 115.578 115.578 0 0 0-37.565 29.028c.761-.021 23.399-.427 34.782 6.973z"/><path fill="url(#paint7_radial)" d="M45.558 204.733c12.044 71.156 76.542 125.482 149.766 127.556 67.768 1.916 111.062-37.418 128.948-75.79a141.29 141.29 0 0 0 4.856-105.312v-.149c0-.117-.024-.185 0-.149l.028.262c5.537 36.141-12.849 71.155-41.591 94.832l-.088.202c-56.002 45.602-109.596 27.513-120.444 20.13a82.698 82.698 0 0 1-2.271-1.132c-32.652-15.604-46.141-45.349-43.25-70.857a40.076 40.076 0 0 1-36.968-23.251 58.867 58.867 0 0 1 57.375-2.303 77.72 77.72 0 0 0 58.595 2.303c-.06-1.268-27.22-12.078-37.81-22.505-5.657-5.576-8.343-8.261-10.722-10.278a46.59 46.59 0 0 0-4.027-3.052 217.165 217.165 0 0 0-3.221-2.138c-11.383-7.4-34.021-6.993-34.77-6.973h-.072c-6.185-7.839-5.75-33.686-5.396-39.085a27.907 27.907 0 0 0-5.21 2.766 113.627 113.627 0 0 0-15.253 13.065 136.194 136.194 0 0 0-14.65 17.461v.024-.029a131.781 131.781 0 0 0-20.937 47.278c-.077.318-5.622 24.555-2.888 37.124z"/><path fill="url(#paint8_radial)" d="M255.228 143.158a84.963 84.963 0 0 1 14.496 18.923 32.53 32.53 0 0 1 2.339 1.916c35.382 32.611 16.843 78.709 15.462 81.99 28.742-23.677 47.111-58.691 41.591-94.833-17.653-44.004-47.574-61.739-72.012-100.356-1.236-1.953-2.472-3.91-3.676-5.975a48.96 48.96 0 0 1-1.719-3.22 28.38 28.38 0 0 1-2.328-6.18.403.403 0 0 0-.354-.403.556.556 0 0 0-.294 0c-.02 0-.052.036-.077.044-.024.008-.076.044-.112.06-6.036 2.863-41.829 59.53 6.684 108.034z"/><path fill="url(#paint9_radial)" d="M272.039 163.977a32.557 32.557 0 0 0-2.34-1.917c-.318-.237-.632-.475-.97-.712a53.877 53.877 0 0 0-37.629-9.135c56.131 28.061 41.072 124.693-36.718 121.046a69.406 69.406 0 0 1-20.306-3.918 81.8 81.8 0 0 1-4.583-1.876 57.946 57.946 0 0 1-2.633-1.256l.109.069c10.847 7.403 64.425 25.492 120.443-20.13l.089-.202c1.397-3.261 19.936-49.371-15.462-81.969z"/><path fill="url(#paint10_radial)" d="M130.117 215.143s7.204-26.841 51.581-26.841c4.796 0 18.522-13.387 18.768-17.268a77.725 77.725 0 0 1-58.595-2.302 58.865 58.865 0 0 0-57.375 2.302 40.076 40.076 0 0 0 36.968 23.251c-2.891 25.512 10.598 55.257 43.25 70.857.729.351 1.413.729 2.162 1.063-19.058-9.843-34.794-28.46-36.759-51.062z"/><path fill="url(#paint11_linear)" d="M344.582 143.005c-6.781-16.313-20.535-33.927-31.307-39.495a162.113 162.113 0 0 1 15.805 47.362l.028.262c-17.645-43.984-47.566-61.719-72.004-100.336-1.236-1.953-2.472-3.91-3.676-5.975a48.96 48.96 0 0 1-1.719-3.22 28.38 28.38 0 0 1-2.328-6.18.403.403 0 0 0-.354-.403.556.556 0 0 0-.294 0c-.02 0-.052.036-.077.044-.024.008-.076.044-.112.06l.06-.104c-39.199 22.948-52.499 65.431-53.723 86.68 1.82-.125 3.624-.278 5.484-.278a78.77 78.77 0 0 1 68.38 39.926 53.882 53.882 0 0 0-37.629-9.135c56.131 28.061 41.072 124.694-36.718 121.046a69.405 69.405 0 0 1-20.306-3.917 82.565 82.565 0 0 1-4.583-1.876c-.881-.403-1.763-.806-2.633-1.257l.109.069a82.655 82.655 0 0 1-2.271-1.131c.729.35 1.413.728 2.162 1.062-19.058-9.847-34.794-28.463-36.759-51.065 0 0 7.204-26.842 51.581-26.842 4.796 0 18.522-13.386 18.768-17.267-.06-1.269-27.22-12.078-37.81-22.506-5.657-5.576-8.343-8.261-10.723-10.278a46.78 46.78 0 0 0-4.026-3.052 72.324 72.324 0 0 1-.439-38.138 115.569 115.569 0 0 0-37.564 29.027h-.073c-6.185-7.838-5.75-33.685-5.396-39.084a27.915 27.915 0 0 0-5.21 2.765 113.64 113.64 0 0 0-15.253 13.065 136.216 136.216 0 0 0-14.588 17.501v.024-.028a131.769 131.769 0 0 0-20.938 47.277l-.21 1.031c-.294 1.373-1.61 8.346-1.8 9.844 0 .112 0-.117 0 0a181.536 181.536 0 0 0-2.303 21.752v.805a156.03 156.03 0 0 0 41.17 105.468 156.083 156.083 0 0 0 210.278 17.907 156.037 156.037 0 0 0 58.415-96.988c.262-2.013.476-4.006.709-6.039a160.44 160.44 0 0 0-10.123-78.383zm-15.482 8.016l.028.165-.028-.165z"/><defs><linearGradient id="paint0_linear" x1="323.926" x2="64.895" y1="84.878" y2="334.831" gradientUnits="userSpaceOnUse"><stop offset=".048" stop-color="#FFF44F"/><stop offset=".111" stop-color="#FFE847"/><stop offset=".225" stop-color="#FFC830"/><stop offset=".368" stop-color="#FF980E"/><stop offset=".401" stop-color="#FF8B16"/><stop offset=".462" stop-color="#FF672A"/><stop offset=".534" stop-color="#FF3647"/><stop offset=".705" stop-color="#E31587"/></linearGradient><radialGradient id="paint1_radial" cx="0" cy="0" r="1" gradientTransform="matrix(325.338 0 0 325.29 311.955 70.73)" gradientUnits="userSpaceOnUse"><stop offset=".129" stop-color="#FFBD4F"/><stop offset=".186" stop-color="#FFAC31"/><stop offset=".247" stop-color="#FF9D17"/><stop offset=".283" stop-color="#FF980E"/><stop offset=".403" stop-color="#FF563B"/><stop offset=".467" stop-color="#FF3750"/><stop offset=".71" stop-color="#F5156C"/><stop offset=".782" stop-color="#EB0878"/><stop offset=".86" stop-color="#E50080"/></radialGradient><radialGradient id="paint2_radial" cx="0" cy="0" r="1" gradientTransform="matrix(325.338 0 0 325.29 193.074 203.718)" gradientUnits="userSpaceOnUse"><stop offset=".3" stop-color="#960E18"/><stop offset=".351" stop-color="#B11927" stop-opacity=".74"/><stop offset=".435" stop-color="#DB293D" stop-opacity=".343"/><stop offset=".497" stop-color="#F5334B" stop-opacity=".094"/><stop offset=".53" stop-color="#FF3750" stop-opacity="0"/></radialGradient><radialGradient id="paint3_radial" cx="0" cy="0" r="1" gradientTransform="matrix(235.693 0 0 235.659 232.296 -3.09)" gradientUnits="userSpaceOnUse"><stop offset=".132" stop-color="#FFF44F"/><stop offset=".252" stop-color="#FFDC3E"/><stop offset=".506" stop-color="#FF9D12"/><stop offset=".526" stop-color="#FF980E"/></radialGradient><radialGradient id="paint4_radial" cx="0" cy="0" r="1" gradientTransform="matrix(154.908 0 0 154.885 157.088 288.685)" gradientUnits="userSpaceOnUse"><stop offset=".353" stop-color="#3A8EE6"/><stop offset=".472" stop-color="#5C79F0"/><stop offset=".669" stop-color="#9059FF"/><stop offset="1" stop-color="#C139E6"/></radialGradient><radialGradient id="paint5_radial" cx="0" cy="0" r="1" gradientTransform="matrix(79.83105 -19.29783 22.58995 93.44989 210.851 177.059)" gradientUnits="userSpaceOnUse"><stop offset=".206" stop-color="#9059FF" stop-opacity="0"/><stop offset=".278" stop-color="#8C4FF3" stop-opacity=".064"/><stop offset=".747" stop-color="#7716A8" stop-opacity=".45"/><stop offset=".975" stop-color="#6E008B" stop-opacity=".6"/></radialGradient><radialGradient id="paint6_radial" cx="0" cy="0" r="1" gradientTransform="matrix(111.44 0 0 111.424 188.966 57.42)" gradientUnits="userSpaceOnUse"><stop stop-color="#FFE226"/><stop offset=".121" stop-color="#FFDB27"/><stop offset=".295" stop-color="#FFC82A"/><stop offset=".502" stop-color="#FFA930"/><stop offset=".732" stop-color="#FF7E37"/><stop offset=".792" stop-color="#FF7139"/></radialGradient><radialGradient id="paint7_radial" cx="0" cy="0" r="1" gradientTransform="matrix(475.466 0 0 475.395 276.56 -13.253)" gradientUnits="userSpaceOnUse"><stop offset=".113" stop-color="#FFF44F"/><stop offset=".456" stop-color="#FF980E"/><stop offset=".622" stop-color="#FF5634"/><stop offset=".716" stop-color="#FF3647"/><stop offset=".904" stop-color="#E31587"/></radialGradient><radialGradient id="paint8_radial" cx="0" cy="0" r="1" gradientTransform="rotate(83.975 110.921 137.97) scale(348.429 228.704)" gradientUnits="userSpaceOnUse"><stop stop-color="#FFF44F"/><stop offset=".06" stop-color="#FFE847"/><stop offset=".168" stop-color="#FFC830"/><stop offset=".304" stop-color="#FF980E"/><stop offset=".356" stop-color="#FF8B16"/><stop offset=".455" stop-color="#FF672A"/><stop offset=".57" stop-color="#FF3647"/><stop offset=".737" stop-color="#E31587"/></radialGradient><radialGradient id="paint9_radial" cx="0" cy="0" r="1" gradientTransform="matrix(296.841 0 0 296.798 186.341 98.692)" gradientUnits="userSpaceOnUse"><stop offset=".137" stop-color="#FFF44F"/><stop offset=".48" stop-color="#FF980E"/><stop offset=".592" stop-color="#FF5634"/><stop offset=".655" stop-color="#FF3647"/><stop offset=".904" stop-color="#E31587"/></radialGradient><radialGradient id="paint10_radial" cx="0" cy="0" r="1" gradientTransform="matrix(324.891 0 0 324.843 264.699 116.062)" gradientUnits="userSpaceOnUse"><stop offset=".094" stop-color="#FFF44F"/><stop offset=".231" stop-color="#FFE141"/><stop offset=".509" stop-color="#FFAF1E"/><stop offset=".626" stop-color="#FF980E"/></radialGradient><linearGradient id="paint11_linear" x1="320.813" x2="100.405" y1="83.541" y2="303.978" gradientUnits="userSpaceOnUse"><stop offset=".167" stop-color="#FFF44F" stop-opacity=".8"/><stop offset=".266" stop-color="#FFF44F" stop-opacity=".634"/><stop offset=".489" stop-color="#FFF44F" stop-opacity=".217"/><stop offset=".6" stop-color="#FFF44F" stop-opacity="0"/></linearGradient></defs></svg>