<svg xmlns="http://www.w3.org/2000/svg" width="24" height="24" fill="none" viewBox="0 0 24 24"><g clip-path="url(#clip0)"><path fill="#B11010" d="M8.05 5.237c1.101-1.299 2.523-2.083 4.077-2.083 3.493 0 6.325 3.96 6.325 8.847 0 4.885-2.832 8.845-6.325 8.845-1.554 0-2.976-.784-4.077-2.083 1.721 2.235 4.28 3.653 7.138 3.653a8.656 8.656 0 0 0 4.808-1.47A11.97 11.97 0 0 0 24 12c0-3.554-1.547-6.749-4.003-8.946a8.66 8.66 0 0 0-4.809-1.469c-2.857 0-5.417 1.418-7.138 3.652z"/><path fill="#FF1B2D" d="M12 0C5.372 0 0 5.372 0 12c0 6.436 5.066 11.688 11.428 11.986a11.955 11.955 0 0 0 8.569-3.04 8.656 8.656 0 0 1-4.809 1.47c-2.857 0-5.417-1.418-7.138-3.653-1.326-1.566-2.186-3.882-2.245-6.48v-.566c.059-2.598.919-4.914 2.245-6.48 1.721-2.234 4.28-3.652 7.138-3.652 1.757 0 3.403.537 4.81 1.47A11.953 11.953 0 0 0 12.045 0L12 0z"/></g><defs><clipPath id="clip0"><path fill="#fff" d="M0 0h24v24H0z"/></clipPath></defs></svg>