<svg xmlns="http://www.w3.org/2000/svg" width="24" height="24" fill="none" viewBox="0 0 24 24"><g clip-path="url(#clip0)"><path fill="#1BB3F3" d="M18.844 0H5.156A5.156 5.156 0 0 0 0 5.156v13.688A5.156 5.156 0 0 0 5.156 24h13.688A5.156 5.156 0 0 0 24 18.844V5.156A5.156 5.156 0 0 0 18.844 0z"/><path fill="#fff" fill-rule="evenodd" d="M13.181 9.22a2.366 2.366 0 0 0 .004 2.327l4.077 7.2a1.26 1.26 0 0 0 2.319-.281 1.258 1.258 0 0 0-.13-.963l-.957-1.675h1.285a1.261 1.261 0 1 0 0-2.523h-2.725l-2.848-4.988a.297.297 0 0 0-.517.002l-.508.901z" clip-rule="evenodd"/><path fill="#fff" d="M14.279 4.236a1.26 1.26 0 0 0-1.723.461l-.253.438-.222-.385a1.261 1.261 0 1 0-2.185 1.26l.946 1.64.014-.009-3.976 6.887 2.185 1.261 5.676-9.83a1.262 1.262 0 0 0-.462-1.723z"/><path fill="#fff" d="M13.1 13.305c.425 0 .817.23 1.025.6l.85 1.511a.276.276 0 01-.24.411H4.958a1.261 1.261 0 010-2.522H13.1zM8.27 16.85l-1.1 1.898a1.275 1.275 0 01-2.21-1.27l.559-.979a.496.496 0 01.191-.195c.796-.427 2.26-.352 2.56.546z"/></g><defs><clipPath id="clip0"><path fill="#fff" d="M0 0h24v24H0z"/></clipPath></defs></svg>