<svg xmlns="http://www.w3.org/2000/svg" width="20" height="20" fill="none" viewBox="0 0 20 20"><path fill="#2F3237" fill-rule="evenodd" d="M9.928 2.975c-.335-.838-1.521-.838-1.857 0l-5.535 13.84a.5.5 0 1 0 .928.37L5.738 11.5h2.806c.162-.353.357-.688.582-1H6.138L9 3.346l2.15 5.373c.29-.158.597-.292.916-.4L9.928 2.975zM14 10.5c-.786 0-1.512.26-2.096.697l4.9 4.9A3.5 3.5 0 0 0 14 10.5zM10.5 14c0-.786.26-1.512.697-2.096l4.9 4.9A3.5 3.5 0 0 1 10.5 14zm3.5 4.5c1.24 0 2.363-.502 3.177-1.313l.005-.005.005-.005A4.5 4.5 0 1 0 14 18.5z" clip-rule="evenodd"/></svg>