<svg width="32" height="32" viewBox="0 0 32 32" fill="none" xmlns="http://www.w3.org/2000/svg">
<path d="M17 3C16.4477 3 16 3.44772 16 4C16 4.55228 16.4477 5 17 5V3ZM5 12L5.70711 11.2929C5.31658 10.9024 4.68342 10.9024 4.29289 11.2929L5 12ZM1.29289 14.2929C0.902369 14.6834 0.902369 15.3166 1.29289 15.7071C1.68342 16.0976 2.31658 16.0976 2.70711 15.7071L1.29289 14.2929ZM7.29289 15.7071C7.68342 16.0976 8.31658 16.0976 8.70711 15.7071C9.09763 15.3166 9.09763 14.6834 8.70711 14.2929L7.29289 15.7071ZM28 16C28 22.0751 23.0751 27 17 27V29C24.1797 29 30 23.1797 30 16H28ZM17 27C10.9249 27 6 22.0751 6 16H4C4 23.1797 9.8203 29 17 29V27ZM17 5C23.0751 5 28 9.92487 28 16H30C30 8.8203 24.1797 3 17 3V5ZM6 16V12H4V16H6ZM4.29289 11.2929L1.29289 14.2929L2.70711 15.7071L5.70711 12.7071L4.29289 11.2929ZM4.29289 12.7071L7.29289 15.7071L8.70711 14.2929L5.70711 11.2929L4.29289 12.7071Z" fill="#2F3237"/>
<path d="M23 16C23 12.6863 20.3137 10 17 10C13.6863 10 11 12.6863 11 16C11 19.3137 13.6863 22 17 22" stroke="#2F3237" stroke-width="2" stroke-linecap="round"/>
<path d="M15 16C15 17.1046 15.8954 18 17 18C18.1046 18 19 17.1046 19 16C19 14.8954 18.1046 14 17 14" stroke="#2F3237" stroke-width="2" stroke-linecap="round"/>
</svg>
