<svg xmlns="http://www.w3.org/2000/svg" width="648" height="648" fill="none" viewBox="0 0 648 648"><g clip-path="url(#clip0)"><path fill="#1978F0" d="M0 0h648v648H0z"/><path fill="#45A8FC" d="M0 486l81 81 81 81H0V486zM324 162l81 81 81 81H324V162zM486 162l81-81 81-81v162H486z" opacity=".2"/><path fill="#2D8CF0" d="M324 162H162v162c89.47 0 162-72.53 162-162zM486 648h162V486c-89.47 0-162 72.53-162 162z" opacity=".2"/><path fill="#45A8FC" d="M81 324H0c0-89.47 72.53-162 162-162v81c-44.735 0-81 36.265-81 81z" opacity=".2"/><path fill="#2D8CF0" d="M567 162h81c0 89.47-72.53 162-162 162v-81c44.735 0 81-36.265 81-81z" opacity=".2"/><path fill="#45A8FC" d="M405 486h81c0 89.47-72.53 162-162 162v-81c44.735 0 81-36.265 81-81zM405 162h-81C324 72.53 396.53 0 486 0v81c-44.735 0-81 36.265-81 81z" opacity=".2"/><path fill="#2D8CF0" d="M0 0h162v162H0z" opacity=".2"/><path fill="#45A8FC" d="M162 324h162v162H162z" opacity=".2"/><path fill="#2D8CF0" d="M648 344.25v40.5c-11.184 0-20.25 9.066-20.25 20.25 0 33.551-27.199 60.75-60.75 60.75s-60.75-27.199-60.75-60.75c0-11.184-9.066-20.25-20.25-20.25v-40.5c33.551 0 60.75 27.199 60.75 60.75 0 11.184 9.066 20.25 20.25 20.25s20.25-9.066 20.25-20.25c0-33.551 27.199-60.75 60.75-60.75zM162 344.25v40.5c-11.184 0-20.25 9.066-20.25 20.25 0 33.551-27.199 60.75-60.75 60.75S20.25 438.551 20.25 405c0-11.184-9.066-20.25-20.25-20.25v-40.5c33.551 0 60.75 27.199 60.75 60.75 0 11.184 9.066 20.25 20.25 20.25s20.25-9.066 20.25-20.25c0-33.551 27.199-60.75 60.75-60.75zM162 141.75v-40.5c11.184 0 20.25-9.066 20.25-20.25 0-33.551 27.199-60.75 60.75-60.75S303.75 47.449 303.75 81c0 11.184 9.066 20.25 20.25 20.25v40.5c-33.551 0-60.75-27.199-60.75-60.75 0-11.184-9.066-20.25-20.25-20.25S222.75 69.816 222.75 81c0 33.551-27.199 60.75-60.75 60.75z" opacity=".2"/><path fill="#45A8FC" fill-rule="evenodd" d="M243 648c44.735 0 81-36.265 81-81s-36.265-81-81-81-81 36.265-81 81 36.265 81 81 81zm0-40.5c22.368 0 40.5-18.132 40.5-40.5s-18.132-40.5-40.5-40.5-40.5 18.132-40.5 40.5 18.132 40.5 40.5 40.5z" clip-rule="evenodd" opacity=".2"/><path fill="#2D8CF0" fill-rule="evenodd" d="M486 324H324v162h162V324zm-40.5 40.5h-81v81h81v-81z" clip-rule="evenodd" opacity=".2"/></g><defs><clipPath id="clip0"><path fill="#fff" d="M0 0h648v648H0z"/></clipPath></defs></svg>